<svg xmlns="http://www.w3.org/2000/svg" viewBox="0 0 500 1800"><defs><style>.cls-1{fill:#f0f0f0;}.cls-2{fill:#666;}.cls-12,.cls-3,.cls-4{fill:none;stroke-miterlimit:10;}.cls-3{stroke:#999;}.cls-3,.cls-4{stroke-width:0.75px;}.cls-4{stroke:#e6e6e6;}.cls-5{fill:#09bbec;}.cls-6{fill:#006814;}.cls-7{fill:#f7b614;}.cls-8{fill:#ccc;}.cls-9{fill:#748689;}.cls-10{fill:#f24333;}.cls-11{fill:#9e8180;}.cls-12{stroke:#b3b3b3;stroke-width:0.5px;}.cls-108,.cls-13,.cls-22,.cls-30,.cls-35,.cls-37,.cls-42,.cls-46,.cls-49,.cls-54,.cls-61,.cls-63,.cls-65,.cls-70,.cls-72,.cls-74,.cls-78,.cls-83,.cls-96{font-size:12px;}.cls-108,.cls-13,.cls-22,.cls-30,.cls-35,.cls-37,.cls-42,.cls-46,.cls-49,.cls-61,.cls-63,.cls-65,.cls-70,.cls-72,.cls-74,.cls-78,.cls-83,.cls-96{fill:#1a1a1a;font-family:Lato-Bold, Lato;font-weight:700;}.cls-13{letter-spacing:0.02em;}.cls-14{letter-spacing:0.03em;}.cls-15,.cls-61{letter-spacing:0.02em;}.cls-16{letter-spacing:0.03em;}.cls-17{letter-spacing:0.04em;}.cls-18{letter-spacing:0.02em;}.cls-19{letter-spacing:0.02em;}.cls-20{letter-spacing:0.02em;}.cls-21,.cls-96{letter-spacing:0.02em;}.cls-22{letter-spacing:0.04em;}.cls-23{letter-spacing:0.02em;}.cls-24{letter-spacing:0.02em;}.cls-25{letter-spacing:0.02em;}.cls-26,.cls-78{letter-spacing:0.02em;}.cls-27{letter-spacing:0.02em;}.cls-28{letter-spacing:0.03em;}.cls-29{letter-spacing:0.03em;}.cls-30{letter-spacing:0.03em;}.cls-31{letter-spacing:0.03em;}.cls-32{letter-spacing:0.01em;}.cls-33{letter-spacing:0.02em;}.cls-34{letter-spacing:0.03em;}.cls-35{letter-spacing:0.03em;}.cls-36{letter-spacing:0.02em;}.cls-37{letter-spacing:0.03em;}.cls-38{letter-spacing:0.03em;}.cls-39{letter-spacing:0.02em;}.cls-40{letter-spacing:0.03em;}.cls-41,.cls-70{letter-spacing:0.02em;}.cls-42{letter-spacing:0.01em;}.cls-43{letter-spacing:0.02em;}.cls-44{letter-spacing:0.02em;}.cls-45{letter-spacing:0.02em;}.cls-46{letter-spacing:0.03em;}.cls-47{letter-spacing:0.03em;}.cls-48{letter-spacing:0.02em;}.cls-49{letter-spacing:0.03em;}.cls-50{letter-spacing:0.01em;}.cls-51{letter-spacing:0.02em;}.cls-52{letter-spacing:0.01em;}.cls-53{letter-spacing:0.01em;}.cls-54{fill:#e6e6e6;font-family:Lato-Black, Lato;font-weight:800;letter-spacing:0.03em;}.cls-55{letter-spacing:0.02em;}.cls-56{letter-spacing:0.03em;}.cls-57{letter-spacing:0em;}.cls-58{letter-spacing:0.01em;}.cls-59{letter-spacing:-0.01em;}.cls-60{letter-spacing:0em;}.cls-62{letter-spacing:0.02em;}.cls-63{letter-spacing:0.03em;}.cls-64,.cls-83{letter-spacing:0.02em;}.cls-65{letter-spacing:0.02em;}.cls-66{letter-spacing:0.02em;}.cls-67{letter-spacing:0.02em;}.cls-68{letter-spacing:0.02em;}.cls-69{letter-spacing:0.02em;}.cls-71{letter-spacing:0.03em;}.cls-72{letter-spacing:0.03em;}.cls-73{letter-spacing:0.02em;}.cls-74{letter-spacing:0em;}.cls-75{letter-spacing:0.01em;}.cls-76{letter-spacing:0.02em;}.cls-77{letter-spacing:0.05em;}.cls-79{letter-spacing:0.02em;}.cls-80{letter-spacing:0.03em;}.cls-81{letter-spacing:0.02em;}.cls-82{letter-spacing:0.02em;}.cls-84{letter-spacing:0.02em;}.cls-85{letter-spacing:0.05em;}.cls-86{letter-spacing:0.03em;}.cls-87{letter-spacing:0.03em;}.cls-88{letter-spacing:0.02em;}.cls-89{letter-spacing:0.02em;}.cls-90{letter-spacing:0.05em;}.cls-91{letter-spacing:0.01em;}.cls-92{letter-spacing:0.03em;}.cls-93{letter-spacing:0.02em;}.cls-94{letter-spacing:0.03em;}.cls-95{letter-spacing:0.02em;}.cls-97{letter-spacing:0.01em;}.cls-98{letter-spacing:0.03em;}.cls-99{letter-spacing:0.02em;}.cls-100{letter-spacing:0.01em;}.cls-101{letter-spacing:0.02em;}.cls-102{letter-spacing:0.03em;}.cls-103{letter-spacing:0.02em;}.cls-104{letter-spacing:0.01em;}.cls-105{letter-spacing:0.02em;}.cls-106{letter-spacing:0.02em;}.cls-107{letter-spacing:0.01em;}.cls-108{letter-spacing:0.03em;}.cls-109{letter-spacing:-0.05em;}.cls-110{letter-spacing:0.05em;}.cls-111{letter-spacing:0.04em;}.cls-112{letter-spacing:0.02em;}.cls-113{letter-spacing:0em;}.cls-114{letter-spacing:0.02em;}</style></defs><title>ACLU_antitrans_billsovertime_1.2</title><g id="background"><rect class="cls-1" width="500" height="1800"/><rect class="cls-2" width="500" height="27.5"/></g><g id="state_grid-2" data-name="state grid"><g id="vert_lines" data-name="vert lines"><line class="cls-3" x1="405" x2="405" y2="1800"/><line class="cls-3" x1="215" x2="215" y2="1800"/><line class="cls-3" x1="120" x2="120" y2="1800"/><polyline class="cls-3" points="310 27.5 310 0 310 1800"/><line class="cls-4" x1="310" y1="27.5" x2="310"/><line class="cls-4" x1="405" y1="27.5" x2="405"/></g><g id="dots"><path class="cls-5" d="M419,201.75a2.75,2.75,0,1,1-2.75,2.75,2.75,2.75,0,0,1,2.75-2.75m0-1.25a4,4,0,1,0,4,4,4,4,0,0,0-4-4Z"/><path class="cls-5" d="M428.5,201.75a2.75,2.75,0,1,1-2.75,2.75,2.75,2.75,0,0,1,2.75-2.75m0-1.25a4,4,0,1,0,4,4,4,4,0,0,0-4-4Z"/><circle class="cls-6" cx="419" cy="237.47" r="4"/><path class="cls-6" d="M428.5,234.78a2.75,2.75,0,1,1-2.75,2.75,2.75,2.75,0,0,1,2.75-2.75m0-1.25a4,4,0,1,0,4,4,4,4,0,0,0-4-4Z"/><path class="cls-6" d="M419,225.25a2.75,2.75,0,1,1-2.75,2.75,2.75,2.75,0,0,1,2.75-2.75m0-1.25a4,4,0,1,0,4,4,4,4,0,0,0-4-4Z"/><path class="cls-5" d="M324,35.75a2.75,2.75,0,1,1-2.75,2.75A2.75,2.75,0,0,1,324,35.75m0-1.25a4,4,0,1,0,4,4,4,4,0,0,0-4-4Z"/><path class="cls-5" d="M334,35.75a2.75,2.75,0,1,1-2.75,2.75A2.75,2.75,0,0,1,334,35.75m0-1.25a4,4,0,1,0,4,4,4,4,0,0,0-4-4Z"/><path class="cls-6" d="M324,69.75a2.75,2.75,0,1,1-2.75,2.75A2.75,2.75,0,0,1,324,69.75m0-1.25a4,4,0,1,0,4,4,4,4,0,0,0-4-4Z"/><path class="cls-5" d="M419,35.75a2.75,2.75,0,1,1-2.75,2.75A2.75,2.75,0,0,1,419,35.75m0-1.25a4,4,0,1,0,4,4,4,4,0,0,0-4-4Z"/><path class="cls-5" d="M428.5,35.75a2.75,2.75,0,1,1-2.75,2.75,2.75,2.75,0,0,1,2.75-2.75m0-1.25a4,4,0,1,0,4,4,4,4,0,0,0-4-4Z"/><path class="cls-6" d="M419,69.75a2.75,2.75,0,1,1-2.75,2.75A2.75,2.75,0,0,1,419,69.75m0-1.25a4,4,0,1,0,4,4,4,4,0,0,0-4-4Z"/><path class="cls-6" d="M334,69.75a2.75,2.75,0,1,1-2.75,2.75A2.75,2.75,0,0,1,334,69.75m0-1.25a4,4,0,1,0,4,4,4,4,0,0,0-4-4Z"/><path class="cls-7" d="M486,234.72a2.75,2.75,0,1,1-2.75,2.75,2.75,2.75,0,0,1,2.75-2.75m0-1.25a4,4,0,1,0,4,4,4,4,0,0,0-4-4Z"/><circle class="cls-8" cx="419" cy="94.5" r="4"/><circle class="cls-8" cx="428.5" cy="94.5" r="4"/><circle class="cls-8" cx="419" cy="127.5" r="4"/><circle class="cls-8" cx="428.5" cy="127.5" r="4"/><circle class="cls-8" cx="419" cy="118" r="4"/><circle class="cls-8" cx="486" cy="127.5" r="4"/><circle class="cls-8" cx="428.5" cy="118" r="4"/><circle class="cls-8" cx="447.75" cy="127.5" r="4"/><circle class="cls-8" cx="476.5" cy="127.5" r="4"/><circle class="cls-8" cx="457.25" cy="127.5" r="4"/><circle class="cls-8" cx="447.75" cy="118" r="4"/><circle class="cls-8" cx="457.25" cy="118" r="4"/><circle class="cls-8" cx="476.5" cy="118" r="4"/><circle class="cls-8" cx="486" cy="118" r="4"/><circle class="cls-8" cx="419" cy="104" r="4"/><circle class="cls-8" cx="428.5" cy="104" r="4"/><circle class="cls-8" cx="486" cy="104" r="4"/><circle class="cls-8" cx="447.75" cy="104" r="4"/><circle class="cls-8" cx="476.5" cy="104" r="4"/><circle class="cls-8" cx="457.25" cy="104" r="4"/><circle class="cls-8" cx="447.75" cy="94.5" r="4"/><circle class="cls-8" cx="457.25" cy="94.5" r="4"/><circle class="cls-8" cx="476.5" cy="94.5" r="4"/><circle class="cls-8" cx="486" cy="94.5" r="4"/><path class="cls-7" d="M486,179.75a2.75,2.75,0,1,1-2.75,2.75,2.75,2.75,0,0,1,2.75-2.75m0-1.25a4,4,0,1,0,4,4,4,4,0,0,0-4-4Z"/><path class="cls-5" d="M418.25,476.75a2.75,2.75,0,1,1-2.75,2.75,2.75,2.75,0,0,1,2.75-2.75m0-1.25a4,4,0,1,0,4,4,4,4,0,0,0-4-4Z"/><path class="cls-6" d="M418.25,500.22A2.75,2.75,0,1,1,415.5,503a2.75,2.75,0,0,1,2.75-2.75m0-1.25a4,4,0,1,0,4,4,4,4,0,0,0-4-4Z"/><path class="cls-6" d="M427.75,500.28A2.75,2.75,0,1,1,425,503a2.75,2.75,0,0,1,2.75-2.75m0-1.25a4,4,0,1,0,4,4,4,4,0,0,0-4-4Z"/><path class="cls-6" d="M418.25,490.75a2.75,2.75,0,1,1-2.75,2.75,2.75,2.75,0,0,1,2.75-2.75m0-1.25a4,4,0,1,0,4,4,4,4,0,0,0-4-4Z"/><path class="cls-5" d="M417.5,522.28a2.75,2.75,0,1,1-2.75,2.75,2.75,2.75,0,0,1,2.75-2.75m0-1.25a4,4,0,1,0,4,4,4,4,0,0,0-4-4Z"/><path class="cls-6" d="M417.5,545.72a2.75,2.75,0,1,1-2.75,2.75,2.75,2.75,0,0,1,2.75-2.75m0-1.25a4,4,0,1,0,4,4,4,4,0,0,0-4-4Z"/><path class="cls-6" d="M427,545.78a2.75,2.75,0,1,1-2.75,2.75,2.75,2.75,0,0,1,2.75-2.75m0-1.25a4,4,0,1,0,4,4,4,4,0,0,0-4-4Z"/><path class="cls-6" d="M417.5,536.25a2.75,2.75,0,1,1-2.75,2.75,2.75,2.75,0,0,1,2.75-2.75m0-1.25a4,4,0,1,0,4,4,4,4,0,0,0-4-4Z"/><circle class="cls-9" cx="324" cy="317.5" r="4"/><circle class="cls-9" cx="324" cy="479.5" r="4"/><circle class="cls-9" cx="333.5" cy="479.5" r="4"/><path class="cls-5" d="M324,522.28a2.75,2.75,0,1,1-2.75,2.75,2.75,2.75,0,0,1,2.75-2.75m0-1.25a4,4,0,1,0,4,4,4,4,0,0,0-4-4Z"/><path class="cls-6" d="M324,545.78a2.75,2.75,0,1,1-2.75,2.75,2.75,2.75,0,0,1,2.75-2.75m0-1.25a4,4,0,1,0,4,4,4,4,0,0,0-4-4Z"/><path class="cls-5" d="M324,749.75a2.75,2.75,0,1,1-2.75,2.75,2.75,2.75,0,0,1,2.75-2.75m0-1.25a4,4,0,1,0,4,4,4,4,0,0,0-4-4Z"/><path class="cls-6" d="M324,773.25a2.75,2.75,0,1,1-2.75,2.75,2.75,2.75,0,0,1,2.75-2.75m0-1.25a4,4,0,1,0,4,4,4,4,0,0,0-4-4Z"/><path class="cls-7" d="M391,773.25a2.75,2.75,0,1,1-2.75,2.75,2.75,2.75,0,0,1,2.75-2.75m0-1.25a4,4,0,1,0,4,4,4,4,0,0,0-4-4Z"/><path class="cls-5" d="M324,840.75a2.75,2.75,0,1,1-2.75,2.75,2.75,2.75,0,0,1,2.75-2.75m0-1.25a4,4,0,1,0,4,4,4,4,0,0,0-4-4Z"/><path class="cls-6" d="M324,864.25a2.75,2.75,0,1,1-2.75,2.75,2.75,2.75,0,0,1,2.75-2.75m0-1.25a4,4,0,1,0,4,4,4,4,0,0,0-4-4Z"/><circle class="cls-8" cx="324" cy="94.5" r="4"/><circle class="cls-8" cx="333.5" cy="94.5" r="4"/><circle class="cls-8" cx="324" cy="127.5" r="4"/><circle class="cls-8" cx="333.5" cy="127.5" r="4"/><circle class="cls-8" cx="324" cy="118" r="4"/><circle class="cls-8" cx="391" cy="127.5" r="4"/><circle class="cls-8" cx="333.5" cy="118" r="4"/><circle class="cls-8" cx="352.75" cy="127.5" r="4"/><circle class="cls-8" cx="381.5" cy="127.5" r="4"/><circle class="cls-8" cx="362.25" cy="127.5" r="4"/><circle class="cls-8" cx="352.75" cy="118" r="4"/><circle class="cls-8" cx="362.25" cy="118" r="4"/><circle class="cls-8" cx="381.5" cy="118" r="4"/><circle class="cls-8" cx="391" cy="118" r="4"/><circle class="cls-8" cx="324" cy="104" r="4"/><circle class="cls-8" cx="333.5" cy="104" r="4"/><circle class="cls-8" cx="391" cy="104" r="4"/><circle class="cls-8" cx="352.75" cy="104" r="4"/><circle class="cls-8" cx="381.5" cy="104" r="4"/><circle class="cls-8" cx="362.25" cy="104" r="4"/><circle class="cls-8" cx="352.75" cy="94.5" r="4"/><circle class="cls-8" cx="362.25" cy="94.5" r="4"/><circle class="cls-8" cx="381.5" cy="94.5" r="4"/><circle class="cls-8" cx="391" cy="94.5" r="4"/><path class="cls-10" d="M352.75,840.75A2.75,2.75,0,1,1,350,843.5a2.75,2.75,0,0,1,2.75-2.75m0-1.25a4,4,0,1,0,4,4,4,4,0,0,0-4-4Z"/><path class="cls-5" d="M324,1204.75a2.75,2.75,0,1,1-2.75,2.75,2.75,2.75,0,0,1,2.75-2.75m0-1.25a4,4,0,1,0,4,4,4,4,0,0,0-4-4Z"/><path class="cls-6" d="M324,1228.25a2.75,2.75,0,1,1-2.75,2.75,2.75,2.75,0,0,1,2.75-2.75m0-1.25a4,4,0,1,0,4,4,4,4,0,0,0-4-4Z"/><path class="cls-6" d="M333.5,1228.32a2.75,2.75,0,1,1-2.75,2.75,2.75,2.75,0,0,1,2.75-2.75m0-1.25a4,4,0,1,0,4,4,4,4,0,0,0-4-4Z"/><path class="cls-7" d="M391,1228.25a2.75,2.75,0,1,1-2.75,2.75,2.75,2.75,0,0,1,2.75-2.75m0-1.25a4,4,0,1,0,4,4,4,4,0,0,0-4-4Z"/><path class="cls-5" d="M324,1659.75a2.75,2.75,0,1,1-2.75,2.75,2.75,2.75,0,0,1,2.75-2.75m0-1.25a4,4,0,1,0,4,4,4,4,0,0,0-4-4Z"/><path class="cls-5" d="M229,91.75a2.75,2.75,0,1,1-2.75,2.75A2.75,2.75,0,0,1,229,91.75m0-1.25a4,4,0,1,0,4,4,4,4,0,0,0-4-4Z"/><circle class="cls-11" cx="257.75" cy="707" r="4"/></g><g id="horiz_lines" data-name="horiz lines"><line class="cls-12" x1="500" y1="83.5" y2="83.5"/><line class="cls-12" x1="500" y1="193.5" y2="193.5"/><line class="cls-12" x1="500" y1="248.5" y2="248.5"/><line class="cls-12" x1="500" y1="303.5" y2="303.5"/><line class="cls-12" x1="500" y1="358.5" y2="358.5"/><line class="cls-12" x1="500" y1="138.5" y2="138.5"/><line class="cls-12" x1="500" y1="413.5" y2="413.5"/><line class="cls-12" x1="500" y1="468.5" y2="468.5"/><line class="cls-12" x1="500" y1="514" y2="514"/><line class="cls-12" x1="500" y1="559.5" y2="559.5"/><line class="cls-12" x1="500" y1="605" y2="605"/><line class="cls-12" x1="500" y1="650.5" y2="650.5"/><line class="cls-12" x1="500" y1="696" y2="696"/><line class="cls-12" x1="500" y1="741.5" y2="741.5"/><line class="cls-12" x1="500" y1="787" y2="787"/><line class="cls-12" x1="500" y1="832.5" y2="832.5"/><line class="cls-12" x1="500" y1="878" y2="878"/><line class="cls-12" x1="500" y1="923.5" y2="923.5"/><line class="cls-12" x1="500" y1="969" y2="969"/><line class="cls-12" x1="500" y1="1014.5" y2="1014.5"/><line class="cls-12" x1="500" y1="1060" y2="1060"/><line class="cls-12" x1="500" y1="1105.5" y2="1105.5"/><line class="cls-12" x1="500" y1="1151" y2="1151"/><line class="cls-12" x1="500" y1="1196.5" y2="1196.5"/><line class="cls-12" x1="500" y1="1242" y2="1242"/><line class="cls-12" x1="500" y1="1287.5" y2="1287.5"/><line class="cls-12" x1="500" y1="1333" y2="1333"/><line class="cls-12" x1="500" y1="1378.5" y2="1378.5"/><line class="cls-12" x1="500" y1="1424" y2="1424"/><line class="cls-12" x1="500" y1="1469.5" y2="1469.5"/><line class="cls-12" x1="500" y1="1515" y2="1515"/><line class="cls-12" x1="500" y1="1560.5" y2="1560.5"/><line class="cls-12" x1="500" y1="1606" y2="1606"/><line class="cls-12" x1="500" y1="1651.5" y2="1651.5"/><line class="cls-12" x1="500" y1="1697" y2="1697"/><line class="cls-12" x1="500" y1="1742.5" y2="1742.5"/></g><g id="state_names-2" data-name="state names"><text class="cls-13" transform="translate(10 374.41)">C<tspan class="cls-14" x="8.21" y="0">on</tspan><tspan class="cls-15" x="22.47" y="0">n</tspan><tspan class="cls-16" x="29.54" y="0">e</tspan><tspan class="cls-17" x="36.26" y="0">c</tspan><tspan class="cls-18" x="42.54" y="0">ti</tspan><tspan class="cls-19" x="50.52" y="0">c</tspan><tspan class="cls-20" x="56.55" y="0">u</tspan><tspan class="cls-21" x="63.56" y="0">t</tspan></text><text class="cls-22" transform="translate(10 264.41)">C<tspan class="cls-21" x="8.45" y="0">a</tspan><tspan class="cls-23" x="14.84" y="0">l</tspan><tspan class="cls-24" x="18.08" y="0">i</tspan><tspan class="cls-25" x="21.32" y="0">f</tspan><tspan class="cls-21" x="25.84" y="0">o</tspan><tspan class="cls-16" x="33.04" y="0">r</tspan><tspan class="cls-26" x="37.83" y="0">n</tspan><tspan class="cls-27" x="44.86" y="0">i</tspan><tspan class="cls-21" x="48.15" y="0">a</tspan></text><text class="cls-13" transform="translate(10 319.41)">C<tspan class="cls-14" x="8.21" y="0">olo</tspan><tspan class="cls-28" x="25.88" y="0">r</tspan><tspan class="cls-29" x="30.72" y="0">a</tspan><tspan class="cls-14" x="37.12" y="0">do</tspan></text><text class="cls-30" transform="translate(10 429.4)">D<tspan class="cls-31" x="9.46" y="0">e</tspan><tspan class="cls-21" x="16.18" y="0">l</tspan><tspan class="cls-32" x="19.47" y="0">a</tspan><tspan class="cls-33" x="25.68" y="0">w</tspan><tspan class="cls-34" x="35.57" y="0">a</tspan><tspan class="cls-23" x="41.96" y="0">r</tspan><tspan class="cls-14" x="46.7" y="0">e</tspan></text><text class="cls-35" transform="translate(10 43.42)">A<tspan class="cls-21" x="8.72" y="0">l</tspan><tspan class="cls-34" x="12" y="0">a</tspan><tspan class="cls-36" x="18.4" y="0">b</tspan><tspan class="cls-34" x="25.48" y="0">a</tspan><tspan class="cls-21" x="31.88" y="0">ma</tspan></text><text class="cls-37" transform="translate(10 209.41)">A<tspan class="cls-16" x="8.73" y="0">r</tspan><tspan class="cls-21" x="13.52" y="0">k</tspan><tspan class="cls-38" x="20.23" y="0">a</tspan><tspan class="cls-39" x="26.63" y="0">n</tspan><tspan class="cls-40" x="33.67" y="0">s</tspan><tspan class="cls-41" x="39.31" y="0">a</tspan><tspan class="cls-21" x="45.68" y="0">s</tspan></text><text class="cls-42" transform="translate(10 484.4)">F<tspan class="cls-21" x="6.97" y="0">lo</tspan><tspan class="cls-43" x="17.44" y="0">r</tspan><tspan class="cls-44" x="22.21" y="0">i</tspan><tspan class="cls-45" x="25.52" y="0">d</tspan><tspan class="cls-21" x="32.62" y="0">a</tspan></text><text class="cls-46" transform="translate(10 529.93)">G<tspan class="cls-16" x="9.11" y="0">e</tspan><tspan class="cls-21" x="15.84" y="0">o</tspan><tspan class="cls-47" x="23.03" y="0">r</tspan><tspan class="cls-48" x="27.84" y="0">g</tspan><tspan class="cls-27" x="34.4" y="0">i</tspan><tspan class="cls-21" x="37.69" y="0">a</tspan></text><text class="cls-49" transform="translate(10 761.25)">I<tspan class="cls-50" x="3.87" y="0">o</tspan><tspan class="cls-33" x="10.87" y="0">w</tspan><tspan class="cls-21" x="20.75" y="0">a</tspan></text><text class="cls-35" transform="translate(10 99.42)">A<tspan class="cls-21" x="8.72" y="0">l</tspan><tspan class="cls-41" x="12" y="0">a</tspan><tspan class="cls-34" x="18.37" y="0">s</tspan><tspan class="cls-21" x="23.95" y="0">ka</tspan></text><text class="cls-37" transform="translate(10 154.41)">A<tspan class="cls-51" x="8.73" y="0">r</tspan><tspan class="cls-52" x="13.49" y="0">i</tspan><tspan class="cls-53" x="16.7" y="0">z</tspan><tspan class="cls-21" x="22.28" y="0">ona</tspan></text><text class="cls-54" transform="translate(320 19.99)">2<tspan class="cls-55" x="7.32" y="0">0</tspan><tspan class="cls-56" x="14.51" y="0">2</tspan><tspan class="cls-14" x="21.83" y="0">0</tspan></text><text class="cls-54" transform="translate(415 19.99)">2<tspan class="cls-55" x="7.32" y="0">0</tspan><tspan class="cls-57" x="14.51" y="0">2</tspan><tspan class="cls-14" x="21.53" y="0">1</tspan></text><line class="cls-4" x1="215" y1="27.5" x2="215"/><text class="cls-54" transform="translate(225 19.99)">2<tspan class="cls-58" x="7.32" y="0">0</tspan><tspan class="cls-59" x="14.4" y="0">1</tspan><tspan class="cls-14" x="21.2" y="0">9</tspan></text><line class="cls-4" x1="120" y1="27.5" x2="120"/><text class="cls-54" transform="translate(130 19.99)">2<tspan class="cls-58" x="7.32" y="0">0</tspan><tspan class="cls-60" x="14.4" y="0">1</tspan><tspan class="cls-14" x="21.41" y="0">8</tspan></text><text class="cls-61" transform="translate(10 580.75)">H<tspan class="cls-32" x="9.54" y="0">a</tspan><tspan class="cls-33" x="15.76" y="0">w</tspan><tspan class="cls-44" x="25.64" y="0">a</tspan><tspan class="cls-62" x="31.99" y="0">i</tspan><tspan class="cls-21" x="35.29" y="0">i</tspan></text><text class="cls-63" transform="translate(10 626.22)">I<tspan class="cls-64" x="3.88" y="0">d</tspan><tspan class="cls-34" x="10.98" y="0">a</tspan><tspan class="cls-15" x="17.38" y="0">h</tspan><tspan class="cls-21" x="24.44" y="0">o</tspan></text><text class="cls-65" transform="translate(10 671.72)">I<tspan class="cls-66" x="3.83" y="0">l</tspan><tspan class="cls-67" x="7.08" y="0">l</tspan><tspan class="cls-66" x="10.32" y="0">i</tspan><tspan class="cls-15" x="13.64" y="0">n</tspan><tspan class="cls-68" x="20.7" y="0">o</tspan><tspan class="cls-69" x="27.83" y="0">i</tspan><tspan class="cls-14" x="31.15" y="0">s</tspan></text><text class="cls-70" transform="translate(10 717.22)">I<tspan class="cls-71" x="3.84" y="0">n</tspan><tspan class="cls-26" x="10.93" y="0">d</tspan><tspan class="cls-27" x="18.01" y="0">i</tspan><tspan class="cls-34" x="21.3" y="0">a</tspan><tspan class="cls-14" x="27.7" y="0">na</tspan></text><text class="cls-72" transform="translate(10 802.93)">K<tspan class="cls-34" x="8.6" y="0">a</tspan><tspan class="cls-73" x="14.99" y="0">n</tspan><tspan class="cls-40" x="22.04" y="0">s</tspan><tspan class="cls-41" x="27.68" y="0">a</tspan><tspan class="cls-21" x="34.05" y="0">s</tspan></text><text class="cls-74" transform="translate(10 848.47)">K<tspan class="cls-29" x="8.19" y="0">e</tspan><tspan class="cls-75" x="14.91" y="0">n</tspan><tspan class="cls-76" x="21.84" y="0">t</tspan><tspan class="cls-21" x="26.56" y="0">u</tspan><tspan class="cls-19" x="33.63" y="0">c</tspan><tspan class="cls-77" x="39.66" y="0">k</tspan><tspan class="cls-14" x="46.7" y="0">y</tspan></text><text class="cls-78" transform="translate(10 1079.78)">M<tspan class="cls-79" x="11.6" y="0">ic</tspan><tspan x="20.93" y="0">h</tspan><tspan class="cls-27" x="27.96" y="0">i</tspan><tspan class="cls-80" x="31.25" y="0">ga</tspan><tspan class="cls-14" x="44.29" y="0">n</tspan></text><text class="cls-70" transform="translate(10 899.29)">L<tspan class="cls-21" x="6.51" y="0">o</tspan><tspan class="cls-81" x="13.71" y="0">u</tspan><tspan class="cls-69" x="20.74" y="0">i</tspan><tspan class="cls-82" x="24.06" y="0">si</tspan><tspan class="cls-34" x="32.88" y="0">a</tspan><tspan class="cls-21" x="39.28" y="0">na</tspan></text><text class="cls-83" transform="translate(10 944.75)">M<tspan class="cls-44" x="11.63" y="0">ai</tspan><tspan class="cls-84" x="21.3" y="0">n</tspan><tspan class="cls-21" x="28.36" y="0">e</tspan></text><text class="cls-83" transform="translate(10 990.25)">M<tspan class="cls-34" x="11.63" y="0">a</tspan><tspan class="cls-85" x="18.03" y="0">r</tspan><tspan class="cls-86" x="23.16" y="0">y</tspan><tspan class="cls-21" x="29.81" y="0">l</tspan><tspan class="cls-34" x="33.1" y="0">a</tspan><tspan class="cls-87" x="39.49" y="0">n</tspan><tspan class="cls-21" x="46.59" y="0">d</tspan></text><text class="cls-83" transform="translate(10 1035.75)">M<tspan class="cls-41" x="11.63" y="0">a</tspan><tspan class="cls-27" x="18" y="0">s</tspan><tspan class="cls-40" x="23.52" y="0">s</tspan><tspan class="cls-21" x="29.16" y="0">a</tspan><tspan class="cls-19" x="35.55" y="0">c</tspan><tspan class="cls-43" x="41.57" y="0">h</tspan><tspan class="cls-14" x="48.63" y="0">u</tspan><tspan class="cls-88" x="55.7" y="0">s</tspan><tspan class="cls-89" x="61.25" y="0">e</tspan><tspan class="cls-90" x="67.91" y="0">tt</tspan><tspan class="cls-21" x="76.89" y="0">s</tspan></text><text class="cls-78" transform="translate(10 1121.47)">Mi<tspan class="cls-14" x="14.91" y="0">n</tspan><tspan class="cls-15" x="21.98" y="0">n</tspan><tspan class="cls-16" x="29.04" y="0">e</tspan><tspan class="cls-88" x="35.77" y="0">s</tspan><tspan class="cls-91" x="41.32" y="0">o</tspan><tspan class="cls-92" x="48.36" y="0">t</tspan><tspan class="cls-14" x="53.24" y="0">a</tspan></text><text class="cls-78" transform="translate(10 1167)">M<tspan class="cls-93" x="11.6" y="0">i</tspan><tspan class="cls-27" x="14.92" y="0">ss</tspan><tspan class="cls-93" x="25.96" y="0">i</tspan><tspan class="cls-27" x="29.28" y="0">ss</tspan><tspan class="cls-66" x="40.31" y="0">i</tspan><tspan class="cls-94" x="43.63" y="0">p</tspan><tspan class="cls-95" x="50.75" y="0">p</tspan><tspan class="cls-14" x="57.83" y="0">i</tspan></text><text class="cls-96" transform="translate(10 1398.31)">N<tspan class="cls-75" x="9.55" y="0">e</tspan><tspan x="16.12" y="0">w </tspan><tspan class="cls-15" x="29.26" y="0">H</tspan><tspan class="cls-34" x="38.8" y="0">am</tspan><tspan class="cls-18" x="55.56" y="0">p</tspan><tspan class="cls-34" x="62.64" y="0">s</tspan><tspan class="cls-26" x="68.22" y="0">hir</tspan><tspan x="83.3" y="0">e</tspan></text><text class="cls-78" transform="translate(10 1217.82)">M<tspan class="cls-93" x="11.6" y="0">i</tspan><tspan class="cls-27" x="14.92" y="0">s</tspan><tspan class="cls-88" x="20.44" y="0">s</tspan><tspan class="cls-21" x="26" y="0">o</tspan><tspan class="cls-51" x="33.19" y="0">ur</tspan><tspan class="cls-21" x="45.01" y="0">i</tspan></text><text class="cls-96" transform="translate(10 1263.28)">Mo<tspan class="cls-97" x="18.83" y="0">n</tspan><tspan class="cls-92" x="25.77" y="0">t</tspan><tspan class="cls-34" x="30.65" y="0">a</tspan><tspan class="cls-14" x="37.04" y="0">na</tspan></text><text class="cls-96" transform="translate(10 1308.78)">N<tspan class="cls-94" x="9.55" y="0">eb</tspan><tspan class="cls-98" x="23.39" y="0">r</tspan><tspan class="cls-99" x="28.22" y="0">a</tspan><tspan class="cls-34" x="34.59" y="0">s</tspan><tspan class="cls-14" x="40.17" y="0">ka</tspan></text><text class="cls-96" transform="translate(10 1354.28)">N<tspan class="cls-100" x="9.55" y="0">e</tspan><tspan class="cls-76" x="16.09" y="0">v</tspan><tspan class="cls-29" x="22.68" y="0">a</tspan><tspan class="cls-64" x="29.08" y="0">d</tspan><tspan class="cls-14" x="36.18" y="0">a</tspan></text><text class="cls-96" transform="translate(10 1439.97)">N<tspan class="cls-75" x="9.55" y="0">e</tspan><tspan x="16.12" y="0">w </tspan><tspan class="cls-101" x="29.26" y="0">J</tspan><tspan class="cls-94" x="34.69" y="0">e</tspan><tspan class="cls-102" x="41.41" y="0">r</tspan><tspan class="cls-103" x="46.26" y="0">s</tspan><tspan class="cls-104" x="51.82" y="0">e</tspan><tspan class="cls-14" x="58.35" y="0">y</tspan></text><text class="cls-96" transform="translate(10 1485.5)">N<tspan class="cls-75" x="9.55" y="0">e</tspan><tspan x="16.12" y="0">w M</tspan><tspan class="cls-105" x="40.9" y="0">e</tspan><tspan class="cls-14" x="47.54" y="0">x</tspan><tspan class="cls-106" x="54.11" y="0">i</tspan><tspan class="cls-107" x="57.4" y="0">c</tspan><tspan x="63.33" y="0">o</tspan></text><text class="cls-108" transform="translate(10 1716.81)">O<tspan class="cls-87" x="10.07" y="0">k</tspan><tspan class="cls-21" x="16.81" y="0">l</tspan><tspan class="cls-34" x="20.09" y="0">a</tspan><tspan class="cls-15" x="26.49" y="0">h</tspan><tspan class="cls-14" x="33.55" y="0">oma</tspan></text><text class="cls-96" transform="translate(10 1536.32)">N<tspan class="cls-75" x="9.55" y="0">e</tspan><tspan x="16.12" y="0">w </tspan><tspan class="cls-109" x="29.26" y="0">Y</tspan><tspan x="36.46" y="0">o</tspan><tspan class="cls-16" x="43.65" y="0">r</tspan><tspan x="48.44" y="0">k</tspan></text><text class="cls-96" transform="translate(10 1581.78)">No<tspan class="cls-110" x="16.74" y="0">r</tspan><tspan class="cls-14" x="21.79" y="0">th </tspan><tspan class="cls-111" x="36.84" y="0">C</tspan><tspan class="cls-34" x="45.29" y="0">a</tspan><tspan class="cls-76" x="51.69" y="0">r</tspan><tspan class="cls-14" x="56.42" y="0">o</tspan><tspan class="cls-23" x="63.61" y="0">l</tspan><tspan class="cls-81" x="66.85" y="0">i</tspan><tspan x="70.17" y="0">na</tspan></text><text class="cls-96" transform="translate(10 1627.28)">No<tspan class="cls-110" x="16.74" y="0">r</tspan><tspan class="cls-14" x="21.79" y="0">th </tspan><tspan class="cls-112" x="36.84" y="0">D</tspan><tspan class="cls-38" x="46.23" y="0">a</tspan><tspan class="cls-113" x="52.62" y="0">k</tspan><tspan class="cls-91" x="59.08" y="0">o</tspan><tspan class="cls-92" x="66.11" y="0">t</tspan><tspan x="71" y="0">a</tspan></text><text class="cls-108" transform="translate(10 1672.78)">O<tspan class="cls-114" x="10.07" y="0">h</tspan><tspan class="cls-106" x="17.1" y="0">i</tspan><tspan class="cls-14" x="20.39" y="0">o</tspan></text></g></g></svg>