<svg xmlns="http://www.w3.org/2000/svg" viewBox="0 0 500 2276"><defs><style>.cls-1{fill:#f0f0f0;}.cls-2{fill:#09bbec;}.cls-3{fill:#006814;}.cls-4{fill:#f7b614;}.cls-5{fill:#748689;}.cls-6{fill:#f24333;}.cls-7{fill:#9e8180;}.cls-8{fill:#afa591;}.cls-9{fill:#5f7061;}.cls-10{fill:#778478;}.cls-11{fill:#7234ad;}.cls-12,.cls-13{fill:none;stroke-miterlimit:10;stroke-width:0.75px;}.cls-12{stroke:#b3b3b3;}.cls-13{stroke:#666;}.cls-102,.cls-110,.cls-113,.cls-116,.cls-118,.cls-120,.cls-121,.cls-123,.cls-126,.cls-130,.cls-132,.cls-14,.cls-23,.cls-31,.cls-36,.cls-38,.cls-43,.cls-47,.cls-50,.cls-55,.cls-57,.cls-59,.cls-64,.cls-66,.cls-68,.cls-72,.cls-77,.cls-90{font-size:12px;fill:#1a1a1a;font-family:Lato-Bold, Lato;font-weight:700;}.cls-14{letter-spacing:0.02em;}.cls-15{letter-spacing:0.03em;}.cls-16,.cls-55{letter-spacing:0.02em;}.cls-17{letter-spacing:0.03em;}.cls-18{letter-spacing:0.04em;}.cls-19{letter-spacing:0.02em;}.cls-20{letter-spacing:0.02em;}.cls-21{letter-spacing:0.02em;}.cls-22,.cls-90{letter-spacing:0.02em;}.cls-23{letter-spacing:0.04em;}.cls-24{letter-spacing:0.02em;}.cls-25{letter-spacing:0.02em;}.cls-26{letter-spacing:0.02em;}.cls-27,.cls-72{letter-spacing:0.02em;}.cls-28{letter-spacing:0.02em;}.cls-29{letter-spacing:0.03em;}.cls-30{letter-spacing:0.03em;}.cls-31{letter-spacing:0.03em;}.cls-32{letter-spacing:0.03em;}.cls-33{letter-spacing:0.01em;}.cls-34{letter-spacing:0.02em;}.cls-35{letter-spacing:0.03em;}.cls-36{letter-spacing:0.03em;}.cls-37{letter-spacing:0.02em;}.cls-38{letter-spacing:0.03em;}.cls-39{letter-spacing:0.03em;}.cls-40{letter-spacing:0.02em;}.cls-41{letter-spacing:0.03em;}.cls-42,.cls-64{letter-spacing:0.02em;}.cls-43{letter-spacing:0.01em;}.cls-44{letter-spacing:0.02em;}.cls-45{letter-spacing:0.02em;}.cls-46{letter-spacing:0.02em;}.cls-47{letter-spacing:0.03em;}.cls-48{letter-spacing:0.03em;}.cls-49{letter-spacing:0.02em;}.cls-50{letter-spacing:0.03em;}.cls-51{letter-spacing:0.01em;}.cls-52{letter-spacing:0.02em;}.cls-53{letter-spacing:0.01em;}.cls-54{letter-spacing:0.01em;}.cls-56{letter-spacing:0.02em;}.cls-57{letter-spacing:0.03em;}.cls-58,.cls-77{letter-spacing:0.02em;}.cls-59{letter-spacing:0.02em;}.cls-60{letter-spacing:0.02em;}.cls-61{letter-spacing:0.02em;}.cls-62{letter-spacing:0.02em;}.cls-63{letter-spacing:0.02em;}.cls-65{letter-spacing:0.03em;}.cls-66{letter-spacing:0.03em;}.cls-132,.cls-67{letter-spacing:0.02em;}.cls-68{letter-spacing:0em;}.cls-69{letter-spacing:0.01em;}.cls-70{letter-spacing:0.02em;}.cls-71{letter-spacing:0.05em;}.cls-73{letter-spacing:0.02em;}.cls-74{letter-spacing:0.03em;}.cls-75{letter-spacing:0.02em;}.cls-76{letter-spacing:0.02em;}.cls-78{letter-spacing:0.02em;}.cls-79{letter-spacing:0.05em;}.cls-80{letter-spacing:0.03em;}.cls-81{letter-spacing:0.03em;}.cls-82{letter-spacing:0.02em;}.cls-83{letter-spacing:0.02em;}.cls-84{letter-spacing:0.05em;}.cls-85{letter-spacing:0.01em;}.cls-86{letter-spacing:0.03em;}.cls-87{letter-spacing:0.02em;}.cls-88{letter-spacing:0.03em;}.cls-89{letter-spacing:0.02em;}.cls-91{letter-spacing:0.01em;}.cls-92{letter-spacing:0.03em;}.cls-93{letter-spacing:0.02em;}.cls-94{letter-spacing:0.01em;}.cls-95{letter-spacing:0.02em;}.cls-96{letter-spacing:0.03em;}.cls-97{letter-spacing:0.02em;}.cls-98{letter-spacing:0.01em;}.cls-99{letter-spacing:0.02em;}.cls-100{letter-spacing:0.02em;}.cls-101{letter-spacing:0.01em;}.cls-102,.cls-127{letter-spacing:0.03em;}.cls-103{letter-spacing:-0.05em;}.cls-104{letter-spacing:0.05em;}.cls-105{letter-spacing:0.04em;}.cls-106{letter-spacing:0.02em;}.cls-107{letter-spacing:0em;}.cls-108{letter-spacing:0.02em;}.cls-109{letter-spacing:0.01em;}.cls-110{letter-spacing:0.01em;}.cls-111{letter-spacing:0.03em;}.cls-112{letter-spacing:0.02em;}.cls-113{letter-spacing:0.03em;}.cls-114{letter-spacing:0.03em;}.cls-115{letter-spacing:0.02em;}.cls-116{letter-spacing:0.02em;}.cls-117{letter-spacing:0.02em;}.cls-118{letter-spacing:-0.06em;}.cls-119{letter-spacing:0.03em;}.cls-120{letter-spacing:-0.03em;}.cls-121,.cls-128{letter-spacing:0.03em;}.cls-122{letter-spacing:0.03em;}.cls-123{letter-spacing:-0.01em;}.cls-124{letter-spacing:0.04em;}.cls-125{letter-spacing:0.01em;}.cls-126{letter-spacing:-0.01em;}.cls-129{letter-spacing:0.02em;}.cls-130{letter-spacing:0.03em;}.cls-131{letter-spacing:0.01em;}.cls-133{letter-spacing:0.01em;}.cls-134{letter-spacing:0.02em;}</style></defs><title>ACLU_antitrans_billsovertime_1.4</title><g id="background"><rect class="cls-1" width="500" height="2276"/></g><g id="state_grid-2" data-name="state grid"><g id="dots"><path class="cls-2" d="M419,145.75a2.75,2.75,0,1,1-2.75,2.75,2.75,2.75,0,0,1,2.75-2.75m0-1.25a4,4,0,1,0,4,4,4,4,0,0,0-4-4Z"/><path class="cls-2" d="M428.5,145.75a2.75,2.75,0,1,1-2.75,2.75,2.75,2.75,0,0,1,2.75-2.75m0-1.25a4,4,0,1,0,4,4,4,4,0,0,0-4-4Z"/><circle class="cls-3" cx="419" cy="171.93" r="4"/><path class="cls-3" d="M428.5,169.25a2.75,2.75,0,1,1-2.75,2.75,2.75,2.75,0,0,1,2.75-2.75m0-1.25a4,4,0,1,0,4,4,4,4,0,0,0-4-4Z"/><path class="cls-3" d="M419,159.75a2.75,2.75,0,1,1-2.75,2.75,2.75,2.75,0,0,1,2.75-2.75m0-1.25a4,4,0,1,0,4,4,4,4,0,0,0-4-4Z"/><path class="cls-2" d="M324,8.25A2.75,2.75,0,1,1,321.25,11,2.75,2.75,0,0,1,324,8.25M324,7a4,4,0,1,0,4,4,4,4,0,0,0-4-4Z"/><path class="cls-2" d="M333.5,8.25A2.75,2.75,0,1,1,330.75,11a2.75,2.75,0,0,1,2.75-2.75m0-1.25a4,4,0,1,0,4,4,4,4,0,0,0-4-4Z"/><path class="cls-3" d="M324,32.75a2.75,2.75,0,1,1-2.75,2.75A2.75,2.75,0,0,1,324,32.75m0-1.25a4,4,0,1,0,4,4,4,4,0,0,0-4-4Z"/><path class="cls-2" d="M419,8.25A2.75,2.75,0,1,1,416.25,11,2.75,2.75,0,0,1,419,8.25M419,7a4,4,0,1,0,4,4,4,4,0,0,0-4-4Z"/><path class="cls-2" d="M428.5,8.25A2.75,2.75,0,1,1,425.75,11a2.75,2.75,0,0,1,2.75-2.75m0-1.25a4,4,0,1,0,4,4,4,4,0,0,0-4-4Z"/><path class="cls-3" d="M419,32.75a2.75,2.75,0,1,1-2.75,2.75A2.75,2.75,0,0,1,419,32.75m0-1.25a4,4,0,1,0,4,4,4,4,0,0,0-4-4Z"/><path class="cls-3" d="M333.5,32.75a2.75,2.75,0,1,1-2.75,2.75,2.75,2.75,0,0,1,2.75-2.75m0-1.25a4,4,0,1,0,4,4,4,4,0,0,0-4-4Z"/><path class="cls-4" d="M486,169.18a2.75,2.75,0,1,1-2.75,2.75,2.75,2.75,0,0,1,2.75-2.75m0-1.25a4,4,0,1,0,4,4,4,4,0,0,0-4-4Z"/><path class="cls-4" d="M486,123.75a2.75,2.75,0,1,1-2.75,2.75,2.75,2.75,0,0,1,2.75-2.75m0-1.25a4,4,0,1,0,4,4,4,4,0,0,0-4-4Z"/><path class="cls-2" d="M419.75,373.25A2.75,2.75,0,1,1,417,376a2.75,2.75,0,0,1,2.75-2.75m0-1.25a4,4,0,1,0,4,4,4,4,0,0,0-4-4Z"/><path class="cls-3" d="M419.75,396.72a2.75,2.75,0,1,1-2.75,2.75,2.75,2.75,0,0,1,2.75-2.75m0-1.25a4,4,0,1,0,4,4,4,4,0,0,0-4-4Z"/><path class="cls-3" d="M429.25,396.78a2.75,2.75,0,1,1-2.75,2.75,2.75,2.75,0,0,1,2.75-2.75m0-1.25a4,4,0,1,0,4,4,4,4,0,0,0-4-4Z"/><path class="cls-3" d="M419.75,387.25A2.75,2.75,0,1,1,417,390a2.75,2.75,0,0,1,2.75-2.75m0-1.25a4,4,0,1,0,4,4,4,4,0,0,0-4-4Z"/><path class="cls-2" d="M419,418.78a2.75,2.75,0,1,1-2.75,2.75,2.75,2.75,0,0,1,2.75-2.75m0-1.25a4,4,0,1,0,4,4,4,4,0,0,0-4-4Z"/><path class="cls-3" d="M419,442.22a2.75,2.75,0,1,1-2.75,2.75,2.75,2.75,0,0,1,2.75-2.75m0-1.25a4,4,0,1,0,4,4,4,4,0,0,0-4-4Z"/><path class="cls-3" d="M428.5,442.28a2.75,2.75,0,1,1-2.75,2.75,2.75,2.75,0,0,1,2.75-2.75m0-1.25a4,4,0,1,0,4,4,4,4,0,0,0-4-4Z"/><path class="cls-3" d="M419,432.75a2.75,2.75,0,1,1-2.75,2.75,2.75,2.75,0,0,1,2.75-2.75m0-1.25a4,4,0,1,0,4,4,4,4,0,0,0-4-4Z"/><circle class="cls-5" cx="324" cy="242.5" r="4"/><circle class="cls-5" cx="324" cy="376" r="4"/><circle class="cls-5" cx="333.5" cy="376" r="4"/><path class="cls-2" d="M324,418.78a2.75,2.75,0,1,1-2.75,2.75,2.75,2.75,0,0,1,2.75-2.75m0-1.25a4,4,0,1,0,4,4,4,4,0,0,0-4-4Z"/><path class="cls-3" d="M324,442.28a2.75,2.75,0,1,1-2.75,2.75,2.75,2.75,0,0,1,2.75-2.75m0-1.25a4,4,0,1,0,4,4,4,4,0,0,0-4-4Z"/><path class="cls-2" d="M324,646.25a2.75,2.75,0,1,1-2.75,2.75,2.75,2.75,0,0,1,2.75-2.75m0-1.25a4,4,0,1,0,4,4,4,4,0,0,0-4-4Z"/><path class="cls-3" d="M324,669.75a2.75,2.75,0,1,1-2.75,2.75,2.75,2.75,0,0,1,2.75-2.75m0-1.25a4,4,0,1,0,4,4,4,4,0,0,0-4-4Z"/><path class="cls-4" d="M391,669.75a2.75,2.75,0,1,1-2.75,2.75,2.75,2.75,0,0,1,2.75-2.75m0-1.25a4,4,0,1,0,4,4,4,4,0,0,0-4-4Z"/><path class="cls-2" d="M324,737.25a2.75,2.75,0,1,1-2.75,2.75,2.75,2.75,0,0,1,2.75-2.75m0-1.25a4,4,0,1,0,4,4,4,4,0,0,0-4-4Z"/><path class="cls-3" d="M324,760.75a2.75,2.75,0,1,1-2.75,2.75,2.75,2.75,0,0,1,2.75-2.75m0-1.25a4,4,0,1,0,4,4,4,4,0,0,0-4-4Z"/><path class="cls-6" d="M352.75,737.25A2.75,2.75,0,1,1,350,740a2.75,2.75,0,0,1,2.75-2.75m0-1.25a4,4,0,1,0,4,4,4,4,0,0,0-4-4Z"/><path class="cls-2" d="M324,1101.25a2.75,2.75,0,1,1-2.75,2.75,2.75,2.75,0,0,1,2.75-2.75m0-1.25a4,4,0,1,0,4,4,4,4,0,0,0-4-4Z"/><path class="cls-3" d="M324,1124.75a2.75,2.75,0,1,1-2.75,2.75,2.75,2.75,0,0,1,2.75-2.75m0-1.25a4,4,0,1,0,4,4,4,4,0,0,0-4-4Z"/><path class="cls-3" d="M333.5,1124.82a2.75,2.75,0,1,1-2.75,2.75,2.75,2.75,0,0,1,2.75-2.75m0-1.25a4,4,0,1,0,4,4,4,4,0,0,0-4-4Z"/><path class="cls-4" d="M391,1124.75a2.75,2.75,0,1,1-2.75,2.75,2.75,2.75,0,0,1,2.75-2.75m0-1.25a4,4,0,1,0,4,4,4,4,0,0,0-4-4Z"/><path class="cls-2" d="M324,1556.25a2.75,2.75,0,1,1-2.75,2.75,2.75,2.75,0,0,1,2.75-2.75m0-1.25a4,4,0,1,0,4,4,4,4,0,0,0-4-4Z"/><path class="cls-2" d="M229,54.75a2.75,2.75,0,1,1-2.75,2.75A2.75,2.75,0,0,1,229,54.75m0-1.25a4,4,0,1,0,4,4,4,4,0,0,0-4-4Z"/><circle class="cls-7" cx="257.75" cy="603.5" r="4"/><circle class="cls-4" cx="296" cy="627" r="4"/><path class="cls-6" d="M257.75,919.25A2.75,2.75,0,1,1,255,922a2.75,2.75,0,0,1,2.75-2.75m0-1.25a4,4,0,1,0,4,4,4,4,0,0,0-4-4Z"/><path class="cls-6" d="M267.25,919.25A2.75,2.75,0,1,1,264.5,922a2.75,2.75,0,0,1,2.75-2.75m0-1.25a4,4,0,1,0,4,4,4,4,0,0,0-4-4Z"/><circle class="cls-8" cx="296" cy="1082" r="4"/><circle class="cls-6" cx="257" cy="1877.5" r="4"/><circle class="cls-6" cx="266.5" cy="1877.5" r="4"/><path class="cls-6" d="M257,2102.25a2.75,2.75,0,1,1-2.75,2.75,2.75,2.75,0,0,1,2.75-2.75m0-1.25a4,4,0,1,0,4,4,4,4,0,0,0-4-4Z"/><circle class="cls-8" cx="296" cy="1946.5" r="4"/><path class="cls-2" d="M229,555.25a2.75,2.75,0,1,1-2.75,2.75,2.75,2.75,0,0,1,2.75-2.75m0-1.25a4,4,0,1,0,4,4,4,4,0,0,0-4-4Z"/><circle class="cls-5" cx="229" cy="1240.5" r="4"/><circle class="cls-5" cx="229" cy="1923" r="4"/><path class="cls-4" d="M296,715.25a2.75,2.75,0,1,1-2.75,2.75,2.75,2.75,0,0,1,2.75-2.75m0-1.25a4,4,0,1,0,4,4,4,4,0,0,0-4-4Z"/><path class="cls-4" d="M296,1488.75a2.75,2.75,0,1,1-2.75,2.75,2.75,2.75,0,0,1,2.75-2.75m0-1.25a4,4,0,1,0,4,4,4,4,0,0,0-4-4Z"/><path class="cls-4" d="M296,1306.75a2.75,2.75,0,1,1-2.75,2.75,2.75,2.75,0,0,1,2.75-2.75m0-1.25a4,4,0,1,0,4,4,4,4,0,0,0-4-4Z"/><circle class="cls-8" cx="296" cy="1855.5" r="4"/><circle class="cls-8" cx="296" cy="1846" r="4"/><circle class="cls-8" cx="286.5" cy="1855.5" r="4"/><circle class="cls-8" cx="286.5" cy="1846" r="4"/><circle class="cls-8" cx="296" cy="1937" r="4"/><circle class="cls-8" cx="286.5" cy="1946.5" r="4"/><path class="cls-6" d="M162.75,646.25A2.75,2.75,0,1,1,160,649a2.75,2.75,0,0,1,2.75-2.75m0-1.25a4,4,0,1,0,4,4,4,4,0,0,0-4-4Z"/><path class="cls-6" d="M172.25,646.25A2.75,2.75,0,1,1,169.5,649a2.75,2.75,0,0,1,2.75-2.75m0-1.25a4,4,0,1,0,4,4,4,4,0,0,0-4-4Z"/><path class="cls-6" d="M162.75,737.25A2.75,2.75,0,1,1,160,740a2.75,2.75,0,0,1,2.75-2.75m0-1.25a4,4,0,1,0,4,4,4,4,0,0,0-4-4Z"/><path class="cls-6" d="M162.75,1101.25A2.75,2.75,0,1,1,160,1104a2.75,2.75,0,0,1,2.75-2.75m0-1.25a4,4,0,1,0,4,4,4,4,0,0,0-4-4Z"/><path class="cls-6" d="M162.75,1601.75a2.75,2.75,0,1,1-2.75,2.75,2.75,2.75,0,0,1,2.75-2.75m0-1.25a4,4,0,1,0,4,4,4,4,0,0,0-4-4Z"/><path class="cls-6" d="M162,1829.25a2.75,2.75,0,1,1-2.75,2.75,2.75,2.75,0,0,1,2.75-2.75m0-1.25a4,4,0,1,0,4,4,4,4,0,0,0-4-4Z"/><path class="cls-6" d="M171.5,1829.25a2.75,2.75,0,1,1-2.75,2.75,2.75,2.75,0,0,1,2.75-2.75m0-1.25a4,4,0,1,0,4,4,4,4,0,0,0-4-4Z"/><path class="cls-6" d="M162,1874.75a2.75,2.75,0,1,1-2.75,2.75,2.75,2.75,0,0,1,2.75-2.75m0-1.25a4,4,0,1,0,4,4,4,4,0,0,0-4-4Z"/><path class="cls-6" d="M171.5,1874.75a2.75,2.75,0,1,1-2.75,2.75,2.75,2.75,0,0,1,2.75-2.75m0-1.25a4,4,0,1,0,4,4,4,4,0,0,0-4-4Z"/><path class="cls-4" d="M201,1625.25a2.75,2.75,0,1,1-2.75,2.75,2.75,2.75,0,0,1,2.75-2.75m0-1.25a4,4,0,1,0,4,4,4,4,0,0,0-4-4Z"/><path class="cls-4" d="M201,760.75a2.75,2.75,0,1,1-2.75,2.75,2.75,2.75,0,0,1,2.75-2.75m0-1.25a4,4,0,1,0,4,4,4,4,0,0,0-4-4Z"/><path class="cls-4" d="M201,260.25a2.75,2.75,0,1,1-2.75,2.75,2.75,2.75,0,0,1,2.75-2.75m0-1.25a4,4,0,1,0,4,4,4,4,0,0,0-4-4Z"/><path class="cls-2" d="M134,1283.25a2.75,2.75,0,1,1-2.75,2.75,2.75,2.75,0,0,1,2.75-2.75m0-1.25a4,4,0,1,0,4,4,4,4,0,0,0-4-4Z"/><path class="cls-2" d="M143.5,1283.25a2.75,2.75,0,1,1-2.75,2.75,2.75,2.75,0,0,1,2.75-2.75m0-1.25a4,4,0,1,0,4,4,4,4,0,0,0-4-4Z"/><path class="cls-2" d="M134,1292.75a2.75,2.75,0,1,1-2.75,2.75,2.75,2.75,0,0,1,2.75-2.75m0-1.25a4,4,0,1,0,4,4,4,4,0,0,0-4-4Z"/><circle class="cls-5" cx="134" cy="1695.5" r="4"/><circle class="cls-4" cx="201" cy="627" r="4"/><path class="cls-4" d="M201,1852.75a2.75,2.75,0,1,1-2.75,2.75,2.75,2.75,0,0,1,2.75-2.75m0-1.25a4,4,0,1,0,4,4,4,4,0,0,0-4-4Z"/><path class="cls-2" d="M324,509.75a2.75,2.75,0,1,1-2.75,2.75,2.75,2.75,0,0,1,2.75-2.75m0-1.25a4,4,0,1,0,4,4,4,4,0,0,0-4-4Z"/><circle class="cls-5" cx="324" cy="1058.5" r="4"/><path class="cls-2" d="M324,1601.75a2.75,2.75,0,1,1-2.75,2.75,2.75,2.75,0,0,1,2.75-2.75m0-1.25a4,4,0,1,0,4,4,4,4,0,0,0-4-4Z"/><path class="cls-2" d="M324,1783.75a2.75,2.75,0,1,1-2.75,2.75,2.75,2.75,0,0,1,2.75-2.75m0-1.25a4,4,0,1,0,4,4,4,4,0,0,0-4-4Z"/><path class="cls-2" d="M324,1829.25a2.75,2.75,0,1,1-2.75,2.75,2.75,2.75,0,0,1,2.75-2.75m0-1.25a4,4,0,1,0,4,4,4,4,0,0,0-4-4Z"/><circle class="cls-5" cx="333.5" cy="1832" r="4"/><path class="cls-2" d="M324.75,1874.75a2.75,2.75,0,1,1-2.75,2.75,2.75,2.75,0,0,1,2.75-2.75m0-1.25a4,4,0,1,0,4,4,4,4,0,0,0-4-4Z"/><path class="cls-2" d="M334.25,1874.75a2.75,2.75,0,1,1-2.75,2.75,2.75,2.75,0,0,1,2.75-2.75m0-1.25a4,4,0,1,0,4,4,4,4,0,0,0-4-4Z"/><path class="cls-2" d="M324,1965.75a2.75,2.75,0,1,1-2.75,2.75,2.75,2.75,0,0,1,2.75-2.75m0-1.25a4,4,0,1,0,4,4,4,4,0,0,0-4-4Z"/><circle class="cls-7" cx="352.75" cy="1058.64" r="4"/><path class="cls-6" d="M352.75,1875.26A2.75,2.75,0,1,1,350,1878a2.75,2.75,0,0,1,2.75-2.75m0-1.25a4,4,0,1,0,4,4,4,4,0,0,0-4-4Z"/><path class="cls-6" d="M362.25,1875.26a2.75,2.75,0,1,1-2.75,2.75,2.75,2.75,0,0,1,2.75-2.75m0-1.25a4,4,0,1,0,4,4,4,4,0,0,0-4-4Z"/><path class="cls-3" d="M324,123.75a2.75,2.75,0,1,1-2.75,2.75,2.75,2.75,0,0,1,2.75-2.75m0-1.25a4,4,0,1,0,4,4,4,4,0,0,0-4-4Z"/><circle class="cls-9" cx="324" cy="263" r="4"/><circle class="cls-3" cx="324" cy="536" r="4"/><path class="cls-3" d="M324,624.25a2.75,2.75,0,1,1-2.75,2.75,2.75,2.75,0,0,1,2.75-2.75m0-1.25a4,4,0,1,0,4,4,4,4,0,0,0-4-4Z"/><path class="cls-3" d="M324,715.25a2.75,2.75,0,1,1-2.75,2.75,2.75,2.75,0,0,1,2.75-2.75m0-1.25a4,4,0,1,0,4,4,4,4,0,0,0-4-4Z"/><path class="cls-3" d="M324,806.25a2.75,2.75,0,1,1-2.75,2.75,2.75,2.75,0,0,1,2.75-2.75m0-1.25a4,4,0,1,0,4,4,4,4,0,0,0-4-4Z"/><circle class="cls-10" cx="324" cy="1082" r="4"/><circle class="cls-10" cx="324" cy="1264" r="4"/><circle class="cls-10" cx="333.5" cy="1264" r="4"/><path class="cls-3" d="M324,1807.25a2.75,2.75,0,1,1-2.75,2.75,2.75,2.75,0,0,1,2.75-2.75m0-1.25a4,4,0,1,0,4,4,4,4,0,0,0-4-4Z"/><path class="cls-3" d="M324.75,1898.25A2.75,2.75,0,1,1,322,1901a2.75,2.75,0,0,1,2.75-2.75m0-1.25a4,4,0,1,0,4,4,4,4,0,0,0-4-4Z"/><path class="cls-3" d="M334.25,1898.25a2.75,2.75,0,1,1-2.75,2.75,2.75,2.75,0,0,1,2.75-2.75m0-1.25a4,4,0,1,0,4,4,4,4,0,0,0-4-4Z"/><path class="cls-3" d="M324,2125.75a2.75,2.75,0,1,1-2.75,2.75,2.75,2.75,0,0,1,2.75-2.75m0-1.25a4,4,0,1,0,4,4,4,4,0,0,0-4-4Z"/><path class="cls-3" d="M323.72,2171.25A2.75,2.75,0,1,1,321,2174a2.75,2.75,0,0,1,2.75-2.75m0-1.25a4,4,0,1,0,4,4,4,4,0,0,0-4-4Z"/><circle class="cls-11" cx="352.75" cy="536" r="4"/><path class="cls-11" d="M352.5,624.25a2.75,2.75,0,1,1-2.75,2.75,2.75,2.75,0,0,1,2.75-2.75m0-1.25a4,4,0,1,0,4,4,4,4,0,0,0-4-4Z"/><path class="cls-4" d="M391,123.75a2.75,2.75,0,1,1-2.75,2.75,2.75,2.75,0,0,1,2.75-2.75m0-1.25a4,4,0,1,0,4,4,4,4,0,0,0-4-4Z"/><path class="cls-4" d="M381.5,123.75a2.75,2.75,0,1,1-2.75,2.75,2.75,2.75,0,0,1,2.75-2.75m0-1.25a4,4,0,1,0,4,4,4,4,0,0,0-4-4Z"/><path class="cls-4" d="M391,578.75a2.75,2.75,0,1,1-2.75,2.75,2.75,2.75,0,0,1,2.75-2.75m0-1.25a4,4,0,1,0,4,4,4,4,0,0,0-4-4Z"/><path class="cls-4" d="M391,1716.25a2.75,2.75,0,1,1-2.75,2.75,2.75,2.75,0,0,1,2.75-2.75m0-1.25a4,4,0,1,0,4,4,4,4,0,0,0-4-4Z"/><circle class="cls-8" cx="391" cy="1855.5" r="4"/><circle class="cls-5" cx="419" cy="603.5" r="4"/><circle class="cls-5" cx="419" cy="649" r="4"/><path class="cls-2" d="M419,690.75a2.75,2.75,0,1,1-2.75,2.75,2.75,2.75,0,0,1,2.75-2.75m0-1.25a4,4,0,1,0,4,4,4,4,0,0,0-4-4Z"/><path class="cls-2" d="M419,737.25a2.75,2.75,0,1,1-2.75,2.75,2.75,2.75,0,0,1,2.75-2.75m0-1.25a4,4,0,1,0,4,4,4,4,0,0,0-4-4Z"/><path class="cls-2" d="M428.5,737.25a2.75,2.75,0,1,1-2.75,2.75,2.75,2.75,0,0,1,2.75-2.75m0-1.25a4,4,0,1,0,4,4,4,4,0,0,0-4-4Z"/><path class="cls-2" d="M419,1101.25a2.75,2.75,0,1,1-2.75,2.75,2.75,2.75,0,0,1,2.75-2.75m0-1.25a4,4,0,1,0,4,4,4,4,0,0,0-4-4Z"/><circle class="cls-5" cx="419" cy="1058.5" r="4"/><circle class="cls-5" cx="419" cy="1149.5" r="4"/><path class="cls-2" d="M419,1601.75a2.75,2.75,0,1,1-2.75,2.75,2.75,2.75,0,0,1,2.75-2.75m0-1.25a4,4,0,1,0,4,4,4,4,0,0,0-4-4Z"/><path class="cls-2" d="M428.5,1601.75a2.75,2.75,0,1,1-2.75,2.75,2.75,2.75,0,0,1,2.75-2.75m0-1.25a4,4,0,1,0,4,4,4,4,0,0,0-4-4Z"/><path class="cls-2" d="M419,1784.31a2.75,2.75,0,1,1-2.75,2.75,2.75,2.75,0,0,1,2.75-2.75m0-1.25a4,4,0,1,0,4,4,4,4,0,0,0-4-4Z"/><path class="cls-2" d="M428.5,1784.31a2.75,2.75,0,1,1-2.75,2.75,2.75,2.75,0,0,1,2.75-2.75m0-1.25a4,4,0,1,0,4,4,4,4,0,0,0-4-4Z"/><path class="cls-2" d="M419,1793.75a2.75,2.75,0,1,1-2.75,2.75,2.75,2.75,0,0,1,2.75-2.75m0-1.25a4,4,0,1,0,4,4,4,4,0,0,0-4-4Z"/><path class="cls-2" d="M419,1874.75a2.75,2.75,0,1,1-2.75,2.75,2.75,2.75,0,0,1,2.75-2.75m0-1.25a4,4,0,1,0,4,4,4,4,0,0,0-4-4Z"/><path class="cls-2" d="M419,1920.25a2.75,2.75,0,1,1-2.75,2.75,2.75,2.75,0,0,1,2.75-2.75m0-1.25a4,4,0,1,0,4,4,4,4,0,0,0-4-4Z"/><circle class="cls-5" cx="419" cy="1968.5" r="4"/><path class="cls-2" d="M419,2147.75a2.75,2.75,0,1,1-2.75,2.75,2.75,2.75,0,0,1,2.75-2.75m0-1.25a4,4,0,1,0,4,4,4,4,0,0,0-4-4Z"/><path class="cls-3" d="M419,123.75a2.75,2.75,0,1,1-2.75,2.75,2.75,2.75,0,0,1,2.75-2.75m0-1.25a4,4,0,1,0,4,4,4,4,0,0,0-4-4Z"/><path class="cls-3" d="M428.5,123.75a2.75,2.75,0,1,1-2.75,2.75,2.75,2.75,0,0,1,2.75-2.75m0-1.25a4,4,0,1,0,4,4,4,4,0,0,0-4-4Z"/><path class="cls-3" d="M419,305.75a2.75,2.75,0,1,1-2.75,2.75,2.75,2.75,0,0,1,2.75-2.75m0-1.25a4,4,0,1,0,4,4,4,4,0,0,0-4-4Z"/><path class="cls-3" d="M428.5,305.75a2.75,2.75,0,1,1-2.75,2.75,2.75,2.75,0,0,1,2.75-2.75m0-1.25a4,4,0,1,0,4,4,4,4,0,0,0-4-4Z"/><path class="cls-3" d="M419,851.75a2.75,2.75,0,1,1-2.75,2.75,2.75,2.75,0,0,1,2.75-2.75m0-1.25a4,4,0,1,0,4,4,4,4,0,0,0-4-4Z"/><path class="cls-3" d="M419,487.75a2.75,2.75,0,1,1-2.75,2.75,2.75,2.75,0,0,1,2.75-2.75m0-1.25a4,4,0,1,0,4,4,4,4,0,0,0-4-4Z"/><path class="cls-3" d="M419,669.75a2.75,2.75,0,1,1-2.75,2.75,2.75,2.75,0,0,1,2.75-2.75m0-1.25a4,4,0,1,0,4,4,4,4,0,0,0-4-4Z"/><path class="cls-3" d="M419,715.25a2.75,2.75,0,1,1-2.75,2.75,2.75,2.75,0,0,1,2.75-2.75m0-1.25a4,4,0,1,0,4,4,4,4,0,0,0-4-4Z"/><path class="cls-3" d="M419,760.75a2.75,2.75,0,1,1-2.75,2.75,2.75,2.75,0,0,1,2.75-2.75m0-1.25a4,4,0,1,0,4,4,4,4,0,0,0-4-4Z"/><path class="cls-3" d="M428.5,760.75a2.75,2.75,0,1,1-2.75,2.75,2.75,2.75,0,0,1,2.75-2.75m0-1.25a4,4,0,1,0,4,4,4,4,0,0,0-4-4Z"/><path class="cls-3" d="M419,988.25a2.75,2.75,0,1,1-2.75,2.75,2.75,2.75,0,0,1,2.75-2.75m0-1.25a4,4,0,1,0,4,4,4,4,0,0,0-4-4Z"/><path class="cls-3" d="M419,1033.68a2.75,2.75,0,1,1-2.75,2.75,2.75,2.75,0,0,1,2.75-2.75m0-1.25a4,4,0,1,0,4,4,4,4,0,0,0-4-4Z"/><path class="cls-3" d="M428.5,1033.75a2.75,2.75,0,1,1-2.75,2.75,2.75,2.75,0,0,1,2.75-2.75m0-1.25a4,4,0,1,0,4,4,4,4,0,0,0-4-4Z"/><path class="cls-3" d="M419,1024.22a2.75,2.75,0,1,1-2.75,2.75,2.75,2.75,0,0,1,2.75-2.75m0-1.25a4,4,0,1,0,4,4,4,4,0,0,0-4-4Z"/><path class="cls-3" d="M419,1124.68a2.75,2.75,0,1,1-2.75,2.75,2.75,2.75,0,0,1,2.75-2.75m0-1.25a4,4,0,1,0,4,4,4,4,0,0,0-4-4Z"/><path class="cls-3" d="M428.5,1124.75a2.75,2.75,0,1,1-2.75,2.75,2.75,2.75,0,0,1,2.75-2.75m0-1.25a4,4,0,1,0,4,4,4,4,0,0,0-4-4Z"/><path class="cls-3" d="M419,1115.22a2.75,2.75,0,1,1-2.75,2.75,2.75,2.75,0,0,1,2.75-2.75m0-1.25a4,4,0,1,0,4,4,4,4,0,0,0-4-4Z"/><circle class="cls-3" cx="419" cy="1082" r="4"/><path class="cls-3" d="M419,1170.25a2.75,2.75,0,1,1-2.75,2.75,2.75,2.75,0,0,1,2.75-2.75m0-1.25a4,4,0,1,0,4,4,4,4,0,0,0-4-4Z"/><path class="cls-3" d="M419,1306.75a2.75,2.75,0,1,1-2.75,2.75,2.75,2.75,0,0,1,2.75-2.75m0-1.25a4,4,0,1,0,4,4,4,4,0,0,0-4-4Z"/><path class="cls-3" d="M419,1352.25a2.75,2.75,0,1,1-2.75,2.75,2.75,2.75,0,0,1,2.75-2.75m0-1.25a4,4,0,1,0,4,4,4,4,0,0,0-4-4Z"/><path class="cls-3" d="M419,1534.25a2.75,2.75,0,1,1-2.75,2.75,2.75,2.75,0,0,1,2.75-2.75m0-1.25a4,4,0,1,0,4,4,4,4,0,0,0-4-4Z"/><path class="cls-3" d="M419,1397.75a2.75,2.75,0,1,1-2.75,2.75,2.75,2.75,0,0,1,2.75-2.75m0-1.25a4,4,0,1,0,4,4,4,4,0,0,0-4-4Z"/><path class="cls-3" d="M419,1579.75a2.75,2.75,0,1,1-2.75,2.75,2.75,2.75,0,0,1,2.75-2.75m0-1.25a4,4,0,1,0,4,4,4,4,0,0,0-4-4Z"/><path class="cls-3" d="M428.5,1579.75a2.75,2.75,0,1,1-2.75,2.75,2.75,2.75,0,0,1,2.75-2.75m0-1.25a4,4,0,1,0,4,4,4,4,0,0,0-4-4Z"/><path class="cls-3" d="M419,1625.25a2.75,2.75,0,1,1-2.75,2.75,2.75,2.75,0,0,1,2.75-2.75m0-1.25a4,4,0,1,0,4,4,4,4,0,0,0-4-4Z"/><path class="cls-3" d="M419,1852.75a2.75,2.75,0,1,1-2.75,2.75,2.75,2.75,0,0,1,2.75-2.75m0-1.25a4,4,0,1,0,4,4,4,4,0,0,0-4-4Z"/><path class="cls-3" d="M419,1807.25a2.75,2.75,0,1,1-2.75,2.75,2.75,2.75,0,0,1,2.75-2.75m0-1.25a4,4,0,1,0,4,4,4,4,0,0,0-4-4Z"/><path class="cls-3" d="M419,1898.18a2.75,2.75,0,1,1-2.75,2.75,2.75,2.75,0,0,1,2.75-2.75m0-1.25a4,4,0,1,0,4,4,4,4,0,0,0-4-4Z"/><path class="cls-3" d="M428.5,1898.25a2.75,2.75,0,1,1-2.75,2.75,2.75,2.75,0,0,1,2.75-2.75m0-1.25a4,4,0,1,0,4,4,4,4,0,0,0-4-4Z"/><path class="cls-3" d="M419,1888.72a2.75,2.75,0,1,1-2.75,2.75,2.75,2.75,0,0,1,2.75-2.75m0-1.25a4,4,0,1,0,4,4,4,4,0,0,0-4-4Z"/><path class="cls-3" d="M419,1943.68a2.75,2.75,0,1,1-2.75,2.75,2.75,2.75,0,0,1,2.75-2.75m0-1.25a4,4,0,1,0,4,4,4,4,0,0,0-4-4Z"/><path class="cls-3" d="M428.5,1943.75a2.75,2.75,0,1,1-2.75,2.75,2.75,2.75,0,0,1,2.75-2.75m0-1.25a4,4,0,1,0,4,4,4,4,0,0,0-4-4Z"/><path class="cls-3" d="M419,1934.22a2.75,2.75,0,1,1-2.75,2.75,2.75,2.75,0,0,1,2.75-2.75m0-1.25a4,4,0,1,0,4,4,4,4,0,0,0-4-4Z"/><path class="cls-3" d="M438,1943.68a2.75,2.75,0,1,1-2.75,2.75,2.75,2.75,0,0,1,2.75-2.75m0-1.25a4,4,0,1,0,4,4,4,4,0,0,0-4-4Z"/><path class="cls-3" d="M428.5,1934.22a2.75,2.75,0,1,1-2.75,2.75,2.75,2.75,0,0,1,2.75-2.75m0-1.25a4,4,0,1,0,4,4,4,4,0,0,0-4-4Z"/><path class="cls-3" d="M438,1934.22a2.75,2.75,0,1,1-2.75,2.75,2.75,2.75,0,0,1,2.75-2.75m0-1.25a4,4,0,1,0,4,4,4,4,0,0,0-4-4Z"/><path class="cls-3" d="M419,1989.25a2.75,2.75,0,1,1-2.75,2.75,2.75,2.75,0,0,1,2.75-2.75m0-1.25a4,4,0,1,0,4,4,4,4,0,0,0-4-4Z"/><path class="cls-3" d="M419,2171.18a2.75,2.75,0,1,1-2.75,2.75,2.75,2.75,0,0,1,2.75-2.75m0-1.25a4,4,0,1,0,4,4,4,4,0,0,0-4-4Z"/><path class="cls-3" d="M428.5,2171.25a2.75,2.75,0,1,1-2.75,2.75,2.75,2.75,0,0,1,2.75-2.75m0-1.25a4,4,0,1,0,4,4,4,4,0,0,0-4-4Z"/><path class="cls-3" d="M419,2161.72a2.75,2.75,0,1,1-2.75,2.75,2.75,2.75,0,0,1,2.75-2.75m0-1.25a4,4,0,1,0,4,4,4,4,0,0,0-4-4Z"/><path class="cls-3" d="M428.5,2161.72a2.75,2.75,0,1,1-2.75,2.75,2.75,2.75,0,0,1,2.75-2.75m0-1.25a4,4,0,1,0,4,4,4,4,0,0,0-4-4Z"/><path class="cls-11" d="M448.5,1170.25a2.75,2.75,0,1,1-2.75,2.75,2.75,2.75,0,0,1,2.75-2.75m0-1.25a4,4,0,1,0,4,4,4,4,0,0,0-4-4Z"/><path class="cls-11" d="M458,1170.25a2.75,2.75,0,1,1-2.75,2.75,2.75,2.75,0,0,1,2.75-2.75m0-1.25a4,4,0,1,0,4,4,4,4,0,0,0-4-4Z"/><path class="cls-11" d="M448.5,1852.75a2.75,2.75,0,1,1-2.75,2.75,2.75,2.75,0,0,1,2.75-2.75m0-1.25a4,4,0,1,0,4,4,4,4,0,0,0-4-4Z"/><path class="cls-4" d="M486,669.75a2.75,2.75,0,1,1-2.75,2.75,2.75,2.75,0,0,1,2.75-2.75m0-1.25a4,4,0,1,0,4,4,4,4,0,0,0-4-4Z"/><path class="cls-4" d="M476.5,669.75a2.75,2.75,0,1,1-2.75,2.75,2.75,2.75,0,0,1,2.75-2.75m0-1.25a4,4,0,1,0,4,4,4,4,0,0,0-4-4Z"/><path class="cls-4" d="M486,660.25a2.75,2.75,0,1,1-2.75,2.75,2.75,2.75,0,0,1,2.75-2.75m0-1.25a4,4,0,1,0,4,4,4,4,0,0,0-4-4Z"/><path class="cls-4" d="M486,760.75a2.75,2.75,0,1,1-2.75,2.75,2.75,2.75,0,0,1,2.75-2.75m0-1.25a4,4,0,1,0,4,4,4,4,0,0,0-4-4Z"/><circle class="cls-8" cx="482" cy="1537" r="4"/></g><g id="horiz_lines" data-name="horiz lines"><line class="cls-12" x1="500" y1="46.5" y2="46.5"/><line class="cls-12" x1="500" y1="137.5" y2="137.5"/><line class="cls-12" x1="500" y1="183" y2="183"/><line class="cls-12" x1="500" y1="228.5" y2="228.5"/><line class="cls-12" x1="500" y1="274" y2="274"/><line class="cls-12" x1="500" y1="92" y2="92"/><line class="cls-12" x1="500" y1="319.5" y2="319.5"/><line class="cls-12" x1="500" y1="365" y2="365"/><line class="cls-12" x1="500" y1="410.5" y2="410.5"/><line class="cls-12" x1="500" y1="456" y2="456"/><line class="cls-12" x1="500" y1="501.5" y2="501.5"/><line class="cls-12" x1="500" y1="547" y2="547"/><line class="cls-12" x1="500" y1="592.5" y2="592.5"/><line class="cls-12" x1="500" y1="638" y2="638"/><line class="cls-12" x1="500" y1="683.5" y2="683.5"/><line class="cls-12" x1="500" y1="729" y2="729"/><line class="cls-12" x1="500" y1="774.5" y2="774.5"/><line class="cls-12" x1="500" y1="820" y2="820"/><line class="cls-12" x1="500" y1="865.5" y2="865.5"/><line class="cls-12" x1="500" y1="911" y2="911"/><line class="cls-12" x1="500" y1="956.5" y2="956.5"/><line class="cls-12" x1="500" y1="1002" y2="1002"/><line class="cls-12" x1="500" y1="1047.5" y2="1047.5"/><line class="cls-12" x1="500" y1="1093" y2="1093"/><line class="cls-12" x1="500" y1="1138.5" y2="1138.5"/><line class="cls-12" x1="500" y1="1184" y2="1184"/><line class="cls-12" x1="500" y1="1229.5" y2="1229.5"/><line class="cls-12" x1="500" y1="1275" y2="1275"/><line class="cls-12" x1="500" y1="1320.5" y2="1320.5"/><line class="cls-12" x1="500" y1="1366" y2="1366"/><line class="cls-12" x1="500" y1="1411.5" y2="1411.5"/><line class="cls-12" x1="500" y1="1457" y2="1457"/><line class="cls-12" x1="500" y1="1502.5" y2="1502.5"/><line class="cls-12" x1="500" y1="1548" y2="1548"/><line class="cls-12" x1="500" y1="1593.5" y2="1593.5"/><line class="cls-12" x1="500" y1="1639" y2="1639"/><line class="cls-12" x1="500" y1="1684.5" y2="1684.5"/><line class="cls-12" x1="500" y1="1730" y2="1730"/><line class="cls-12" x1="500" y1="1775.5" y2="1775.5"/><line class="cls-12" x1="500" y1="1821" y2="1821"/><line class="cls-12" x1="500" y1="1866.5" y2="1866.5"/><line class="cls-12" x1="500" y1="1912" y2="1912"/><line class="cls-12" x1="500" y1="1957.5" y2="1957.5"/><line class="cls-12" x1="500" y1="2003" y2="2003"/><line class="cls-12" x1="500" y1="2048.5" y2="2048.5"/><line class="cls-12" x1="500" y1="2094" y2="2094"/><line class="cls-12" x1="500" y1="2139.5" y2="2139.5"/><line class="cls-12" x1="500" y1="2185" y2="2185"/><line class="cls-12" x1="500" y1="2230.5" y2="2230.5"/></g><g id="vert_lines" data-name="vert lines"><line class="cls-13" x1="405" x2="405" y2="2276"/><line class="cls-13" x1="215" x2="215" y2="2276"/><line class="cls-13" x1="120" x2="120" y2="2276"/><polyline class="cls-13" points="310 34.77 310 0 310 2276"/></g><g id="state_names-2" data-name="state names"><text class="cls-14" transform="translate(10 289.04)">C<tspan class="cls-15" x="8.21" y="0">on</tspan><tspan class="cls-16" x="22.47" y="0">n</tspan><tspan class="cls-17" x="29.54" y="0">e</tspan><tspan class="cls-18" x="36.26" y="0">c</tspan><tspan class="cls-19" x="42.54" y="0">ti</tspan><tspan class="cls-20" x="50.52" y="0">c</tspan><tspan class="cls-21" x="56.55" y="0">u</tspan><tspan class="cls-22" x="63.56" y="0">t</tspan></text><text class="cls-23" transform="translate(10 198)">C<tspan class="cls-22" x="8.45" y="0">a</tspan><tspan class="cls-24" x="14.84" y="0">l</tspan><tspan class="cls-25" x="18.08" y="0">i</tspan><tspan class="cls-26" x="21.32" y="0">f</tspan><tspan class="cls-22" x="25.84" y="0">o</tspan><tspan class="cls-17" x="33.04" y="0">r</tspan><tspan class="cls-27" x="37.83" y="0">n</tspan><tspan class="cls-28" x="44.86" y="0">i</tspan><tspan class="cls-22" x="48.15" y="0">a</tspan></text><text class="cls-14" transform="translate(10 243.52)">C<tspan class="cls-15" x="8.21" y="0">olo</tspan><tspan class="cls-29" x="25.88" y="0">r</tspan><tspan class="cls-30" x="30.72" y="0">a</tspan><tspan class="cls-15" x="37.12" y="0">do</tspan></text><text class="cls-31" transform="translate(10 334.56)">D<tspan class="cls-32" x="9.46" y="0">e</tspan><tspan class="cls-22" x="16.18" y="0">l</tspan><tspan class="cls-33" x="19.47" y="0">a</tspan><tspan class="cls-34" x="25.68" y="0">w</tspan><tspan class="cls-35" x="35.57" y="0">a</tspan><tspan class="cls-24" x="41.96" y="0">r</tspan><tspan class="cls-15" x="46.7" y="0">e</tspan></text><text class="cls-36" transform="translate(10 15.92)">A<tspan class="cls-22" x="8.72" y="0">l</tspan><tspan class="cls-35" x="12" y="0">a</tspan><tspan class="cls-37" x="18.4" y="0">b</tspan><tspan class="cls-35" x="25.48" y="0">a</tspan><tspan class="cls-22" x="31.88" y="0">ma</tspan></text><text class="cls-38" transform="translate(10 152.48)">A<tspan class="cls-17" x="8.73" y="0">r</tspan><tspan class="cls-22" x="13.52" y="0">k</tspan><tspan class="cls-39" x="20.23" y="0">a</tspan><tspan class="cls-40" x="26.63" y="0">n</tspan><tspan class="cls-41" x="33.67" y="0">s</tspan><tspan class="cls-42" x="39.31" y="0">a</tspan><tspan class="cls-22" x="45.68" y="0">s</tspan></text><text class="cls-43" transform="translate(10 380.08)">F<tspan class="cls-22" x="6.97" y="0">lo</tspan><tspan class="cls-44" x="17.44" y="0">r</tspan><tspan class="cls-45" x="22.21" y="0">i</tspan><tspan class="cls-46" x="25.52" y="0">d</tspan><tspan class="cls-22" x="32.62" y="0">a</tspan></text><text class="cls-47" transform="translate(10 425.6)">G<tspan class="cls-17" x="9.11" y="0">e</tspan><tspan class="cls-22" x="15.84" y="0">o</tspan><tspan class="cls-48" x="23.03" y="0">r</tspan><tspan class="cls-49" x="27.84" y="0">g</tspan><tspan class="cls-28" x="34.4" y="0">i</tspan><tspan class="cls-22" x="37.69" y="0">a</tspan></text><text class="cls-50" transform="translate(10 653.2)">I<tspan class="cls-51" x="3.87" y="0">o</tspan><tspan class="cls-34" x="10.87" y="0">w</tspan><tspan class="cls-22" x="20.75" y="0">a</tspan></text><text class="cls-36" transform="translate(10 61.44)">A<tspan class="cls-22" x="8.72" y="0">l</tspan><tspan class="cls-42" x="12" y="0">a</tspan><tspan class="cls-35" x="18.37" y="0">s</tspan><tspan class="cls-22" x="23.95" y="0">ka</tspan></text><text class="cls-38" transform="translate(10 106.96)">A<tspan class="cls-52" x="8.73" y="0">r</tspan><tspan class="cls-53" x="13.49" y="0">i</tspan><tspan class="cls-54" x="16.7" y="0">z</tspan><tspan class="cls-22" x="22.28" y="0">ona</tspan></text><text class="cls-55" transform="translate(10 471.12)">H<tspan class="cls-33" x="9.54" y="0">a</tspan><tspan class="cls-34" x="15.76" y="0">w</tspan><tspan class="cls-45" x="25.64" y="0">a</tspan><tspan class="cls-56" x="31.99" y="0">i</tspan><tspan class="cls-22" x="35.29" y="0">i</tspan></text><text class="cls-57" transform="translate(10 516.64)">I<tspan class="cls-58" x="3.88" y="0">d</tspan><tspan class="cls-35" x="10.98" y="0">a</tspan><tspan class="cls-16" x="17.38" y="0">h</tspan><tspan class="cls-22" x="24.44" y="0">o</tspan></text><text class="cls-59" transform="translate(10 562.16)">I<tspan class="cls-60" x="3.83" y="0">l</tspan><tspan class="cls-61" x="7.08" y="0">l</tspan><tspan class="cls-60" x="10.32" y="0">i</tspan><tspan class="cls-16" x="13.64" y="0">n</tspan><tspan class="cls-62" x="20.7" y="0">o</tspan><tspan class="cls-63" x="27.83" y="0">i</tspan><tspan class="cls-15" x="31.15" y="0">s</tspan></text><text class="cls-64" transform="translate(10 607.68)">I<tspan class="cls-65" x="3.84" y="0">n</tspan><tspan class="cls-27" x="10.93" y="0">d</tspan><tspan class="cls-28" x="18.01" y="0">i</tspan><tspan class="cls-35" x="21.3" y="0">a</tspan><tspan class="cls-15" x="27.7" y="0">na</tspan></text><text class="cls-66" transform="translate(10 698.72)">K<tspan class="cls-35" x="8.6" y="0">a</tspan><tspan class="cls-67" x="14.99" y="0">n</tspan><tspan class="cls-41" x="22.04" y="0">s</tspan><tspan class="cls-42" x="27.68" y="0">a</tspan><tspan class="cls-22" x="34.05" y="0">s</tspan></text><text class="cls-68" transform="translate(10 744.24)">K<tspan class="cls-30" x="8.19" y="0">e</tspan><tspan class="cls-69" x="14.91" y="0">n</tspan><tspan class="cls-70" x="21.84" y="0">t</tspan><tspan class="cls-22" x="26.56" y="0">u</tspan><tspan class="cls-20" x="33.63" y="0">c</tspan><tspan class="cls-71" x="39.66" y="0">k</tspan><tspan class="cls-15" x="46.7" y="0">y</tspan></text><text class="cls-72" transform="translate(10 971.84)">M<tspan class="cls-73" x="11.6" y="0">ic</tspan><tspan x="20.93" y="0">h</tspan><tspan class="cls-28" x="27.96" y="0">i</tspan><tspan class="cls-74" x="31.25" y="0">ga</tspan><tspan class="cls-15" x="44.29" y="0">n</tspan></text><text class="cls-64" transform="translate(10 789.76)">L<tspan class="cls-22" x="6.51" y="0">o</tspan><tspan class="cls-75" x="13.71" y="0">u</tspan><tspan class="cls-63" x="20.74" y="0">i</tspan><tspan class="cls-76" x="24.06" y="0">si</tspan><tspan class="cls-35" x="32.88" y="0">a</tspan><tspan class="cls-22" x="39.28" y="0">na</tspan></text><text class="cls-77" transform="translate(10 835.28)">M<tspan class="cls-45" x="11.63" y="0">ai</tspan><tspan class="cls-78" x="21.3" y="0">n</tspan><tspan class="cls-22" x="28.36" y="0">e</tspan></text><text class="cls-77" transform="translate(10 880.8)">M<tspan class="cls-35" x="11.63" y="0">a</tspan><tspan class="cls-79" x="18.03" y="0">r</tspan><tspan class="cls-80" x="23.16" y="0">y</tspan><tspan class="cls-22" x="29.81" y="0">l</tspan><tspan class="cls-35" x="33.1" y="0">a</tspan><tspan class="cls-81" x="39.49" y="0">n</tspan><tspan class="cls-22" x="46.59" y="0">d</tspan></text><text class="cls-77" transform="translate(10 926.32)">M<tspan class="cls-42" x="11.63" y="0">a</tspan><tspan class="cls-28" x="18" y="0">s</tspan><tspan class="cls-41" x="23.52" y="0">s</tspan><tspan class="cls-22" x="29.16" y="0">a</tspan><tspan class="cls-20" x="35.55" y="0">c</tspan><tspan class="cls-44" x="41.57" y="0">h</tspan><tspan class="cls-15" x="48.63" y="0">u</tspan><tspan class="cls-82" x="55.7" y="0">s</tspan><tspan class="cls-83" x="61.25" y="0">e</tspan><tspan class="cls-84" x="67.91" y="0">tt</tspan><tspan class="cls-22" x="76.89" y="0">s</tspan></text><text class="cls-72" transform="translate(10 1017.37)">Mi<tspan class="cls-15" x="14.91" y="0">n</tspan><tspan class="cls-16" x="21.98" y="0">n</tspan><tspan class="cls-17" x="29.04" y="0">e</tspan><tspan class="cls-82" x="35.77" y="0">s</tspan><tspan class="cls-85" x="41.32" y="0">o</tspan><tspan class="cls-86" x="48.36" y="0">t</tspan><tspan class="cls-15" x="53.24" y="0">a</tspan></text><text class="cls-72" transform="translate(10 1062.89)">M<tspan class="cls-87" x="11.6" y="0">i</tspan><tspan class="cls-28" x="14.92" y="0">ss</tspan><tspan class="cls-87" x="25.96" y="0">i</tspan><tspan class="cls-28" x="29.28" y="0">ss</tspan><tspan class="cls-60" x="40.31" y="0">i</tspan><tspan class="cls-88" x="43.63" y="0">p</tspan><tspan class="cls-89" x="50.75" y="0">p</tspan><tspan class="cls-15" x="57.83" y="0">i</tspan></text><text class="cls-90" transform="translate(10 1290.49)">N<tspan class="cls-69" x="9.55" y="0">e</tspan><tspan x="16.12" y="0">w </tspan><tspan class="cls-16" x="29.26" y="0">H</tspan><tspan class="cls-35" x="38.8" y="0">am</tspan><tspan class="cls-19" x="55.56" y="0">p</tspan><tspan class="cls-35" x="62.64" y="0">s</tspan><tspan class="cls-27" x="68.22" y="0">hir</tspan><tspan x="83.3" y="0">e</tspan></text><text class="cls-72" transform="translate(10 1108.41)">M<tspan class="cls-87" x="11.6" y="0">i</tspan><tspan class="cls-28" x="14.92" y="0">s</tspan><tspan class="cls-82" x="20.44" y="0">s</tspan><tspan class="cls-22" x="26" y="0">o</tspan><tspan class="cls-52" x="33.19" y="0">ur</tspan><tspan class="cls-22" x="45.01" y="0">i</tspan></text><text class="cls-90" transform="translate(10 1153.93)">Mo<tspan class="cls-91" x="18.83" y="0">n</tspan><tspan class="cls-86" x="25.77" y="0">t</tspan><tspan class="cls-35" x="30.65" y="0">a</tspan><tspan class="cls-15" x="37.04" y="0">na</tspan></text><text class="cls-90" transform="translate(10 1199.45)">N<tspan class="cls-88" x="9.55" y="0">eb</tspan><tspan class="cls-92" x="23.39" y="0">r</tspan><tspan class="cls-93" x="28.22" y="0">a</tspan><tspan class="cls-35" x="34.59" y="0">s</tspan><tspan class="cls-15" x="40.17" y="0">ka</tspan></text><text class="cls-90" transform="translate(10 1244.97)">N<tspan class="cls-94" x="9.55" y="0">e</tspan><tspan class="cls-70" x="16.09" y="0">v</tspan><tspan class="cls-30" x="22.68" y="0">a</tspan><tspan class="cls-58" x="29.08" y="0">d</tspan><tspan class="cls-15" x="36.18" y="0">a</tspan></text><text class="cls-90" transform="translate(10 1336.01)">N<tspan class="cls-69" x="9.55" y="0">e</tspan><tspan x="16.12" y="0">w </tspan><tspan class="cls-95" x="29.26" y="0">J</tspan><tspan class="cls-88" x="34.69" y="0">e</tspan><tspan class="cls-96" x="41.41" y="0">r</tspan><tspan class="cls-97" x="46.26" y="0">s</tspan><tspan class="cls-98" x="51.82" y="0">e</tspan><tspan class="cls-15" x="58.35" y="0">y</tspan></text><text class="cls-90" transform="translate(10 1381.53)">N<tspan class="cls-69" x="9.55" y="0">e</tspan><tspan x="16.12" y="0">w M</tspan><tspan class="cls-99" x="40.9" y="0">e</tspan><tspan class="cls-15" x="47.54" y="0">x</tspan><tspan class="cls-100" x="54.11" y="0">i</tspan><tspan class="cls-101" x="57.4" y="0">c</tspan><tspan x="63.33" y="0">o</tspan></text><text class="cls-102" transform="translate(10 1609.13)">O<tspan class="cls-81" x="10.07" y="0">k</tspan><tspan class="cls-22" x="16.81" y="0">l</tspan><tspan class="cls-35" x="20.09" y="0">a</tspan><tspan class="cls-16" x="26.49" y="0">h</tspan><tspan class="cls-15" x="33.55" y="0">oma</tspan></text><text class="cls-90" transform="translate(10 1427.05)">N<tspan class="cls-69" x="9.55" y="0">e</tspan><tspan x="16.12" y="0">w </tspan><tspan class="cls-103" x="29.26" y="0">Y</tspan><tspan x="36.46" y="0">o</tspan><tspan class="cls-17" x="43.65" y="0">r</tspan><tspan x="48.44" y="0">k</tspan></text><text class="cls-90" transform="translate(10 1472.57)">No<tspan class="cls-104" x="16.74" y="0">r</tspan><tspan class="cls-15" x="21.79" y="0">th </tspan><tspan class="cls-105" x="36.84" y="0">C</tspan><tspan class="cls-35" x="45.29" y="0">a</tspan><tspan class="cls-70" x="51.69" y="0">r</tspan><tspan class="cls-15" x="56.42" y="0">o</tspan><tspan class="cls-24" x="63.61" y="0">l</tspan><tspan class="cls-75" x="66.85" y="0">i</tspan><tspan x="70.17" y="0">na</tspan></text><text class="cls-90" transform="translate(10 1518.09)">No<tspan class="cls-104" x="16.74" y="0">r</tspan><tspan class="cls-15" x="21.79" y="0">th </tspan><tspan class="cls-106" x="36.84" y="0">D</tspan><tspan class="cls-39" x="46.23" y="0">a</tspan><tspan class="cls-107" x="52.62" y="0">k</tspan><tspan class="cls-85" x="59.08" y="0">o</tspan><tspan class="cls-86" x="66.11" y="0">t</tspan><tspan x="71" y="0">a</tspan></text><text class="cls-102" transform="translate(10 1563.61)">O<tspan class="cls-108" x="10.07" y="0">h</tspan><tspan class="cls-100" x="17.1" y="0">i</tspan><tspan class="cls-15" x="20.39" y="0">o</tspan></text><text class="cls-102" transform="translate(10 1654.65)">O<tspan class="cls-61" x="10.07" y="0">r</tspan><tspan class="cls-83" x="14.8" y="0">e</tspan><tspan class="cls-109" x="21.46" y="0">g</tspan><tspan class="cls-22" x="27.94" y="0">on</tspan></text><text class="cls-110" transform="translate(10 1700.17)">P<tspan class="cls-88" x="7.59" y="0">e</tspan><tspan class="cls-22" x="14.31" y="0">n</tspan><tspan class="cls-67" x="21.38" y="0">n</tspan><tspan class="cls-111" x="28.42" y="0">s</tspan><tspan class="cls-80" x="34.06" y="0">y</tspan><tspan class="cls-22" x="40.71" y="0">l</tspan><tspan class="cls-70" x="43.99" y="0">v</tspan><tspan class="cls-35" x="50.58" y="0">a</tspan><tspan class="cls-108" x="56.98" y="0">n</tspan><tspan class="cls-112" x="64.01" y="0">i</tspan><tspan class="cls-15" x="67.3" y="0">a</tspan></text><text class="cls-113" transform="translate(10 1745.69)">R<tspan class="cls-16" x="8.09" y="0">h</tspan><tspan class="cls-114" x="15.15" y="0">o</tspan><tspan class="cls-22" x="22.37" y="0">de </tspan><tspan class="cls-115" x="39.4" y="0">I</tspan><tspan class="cls-15" x="43.24" y="0">sl</tspan><tspan class="cls-35" x="52.1" y="0">a</tspan><tspan class="cls-81" x="58.49" y="0">n</tspan><tspan class="cls-22" x="65.59" y="0">d</tspan></text><text class="cls-116" transform="translate(10 1973.29)">U<tspan class="cls-86" x="9.1" y="0">t</tspan><tspan class="cls-35" x="13.98" y="0">a</tspan><tspan class="cls-15" x="20.38" y="0">h</tspan></text><text class="cls-50" transform="translate(10 1791.21)">S<tspan class="cls-22" x="6.89" y="0">o</tspan><tspan class="cls-62" x="14.09" y="0">u</tspan><tspan class="cls-22" x="21.09" y="0">th </tspan><tspan class="cls-105" x="36.14" y="0">C</tspan><tspan class="cls-39" x="44.58" y="0">a</tspan><tspan class="cls-70" x="50.98" y="0">r</tspan><tspan class="cls-22" x="55.71" y="0">o</tspan><tspan class="cls-24" x="62.9" y="0">l</tspan><tspan class="cls-75" x="66.15" y="0">i</tspan><tspan class="cls-22" x="69.46" y="0">na</tspan></text><text class="cls-50" transform="translate(10 1836.73)">S<tspan class="cls-22" x="6.89" y="0">o</tspan><tspan class="cls-62" x="14.09" y="0">u</tspan><tspan class="cls-22" x="21.09" y="0">th </tspan><tspan class="cls-117" x="36.14" y="0">D</tspan><tspan class="cls-35" x="45.52" y="0">a</tspan><tspan class="cls-107" x="51.92" y="0">k</tspan><tspan class="cls-85" x="58.37" y="0">o</tspan><tspan class="cls-86" x="65.41" y="0">t</tspan><tspan class="cls-15" x="70.29" y="0">a</tspan></text><text class="cls-118" transform="translate(10 1882.25)">T<tspan class="cls-30" x="6.49" y="0">e</tspan><tspan class="cls-15" x="13.21" y="0">n</tspan><tspan class="cls-16" x="20.27" y="0">n</tspan><tspan class="cls-17" x="27.34" y="0">e</tspan><tspan class="cls-112" x="34.06" y="0">s</tspan><tspan class="cls-97" x="39.58" y="0">s</tspan><tspan class="cls-119" x="45.13" y="0">e</tspan><tspan class="cls-15" x="51.85" y="0">e</tspan></text><text class="cls-118" transform="translate(10 1927.77)">T<tspan class="cls-99" x="6.49" y="0">e</tspan><tspan class="cls-44" x="13.13" y="0">x</tspan><tspan class="cls-42" x="19.68" y="0">a</tspan><tspan class="cls-22" x="26.05" y="0">s</tspan></text><text class="cls-120" transform="translate(10 2018.81)">V<tspan class="cls-88" x="7.98" y="0">er</tspan><tspan class="cls-52" x="19.49" y="0">m</tspan><tspan class="cls-22" x="29.83" y="0">o</tspan><tspan class="cls-69" x="37.02" y="0">n</tspan><tspan class="cls-22" x="43.95" y="0">t</tspan></text><text class="cls-121" transform="translate(10 2064.33)">V<tspan class="cls-75" x="8.75" y="0">i</tspan><tspan class="cls-122" x="12.06" y="0">r</tspan><tspan class="cls-49" x="16.87" y="0">g</tspan><tspan class="cls-75" x="23.43" y="0">in</tspan><tspan class="cls-112" x="33.78" y="0">i</tspan><tspan class="cls-15" x="37.07" y="0">a</tspan></text><text class="cls-123" transform="translate(10 2109.86)">W<tspan class="cls-42" x="12.5" y="0">a</tspan><tspan class="cls-35" x="18.87" y="0">s</tspan><tspan class="cls-27" x="24.45" y="0">hi</tspan><tspan class="cls-56" x="34.79" y="0">n</tspan><tspan class="cls-124" x="41.81" y="0">g</tspan><tspan class="cls-125" x="48.65" y="0">t</tspan><tspan class="cls-22" x="53.27" y="0">on</tspan></text><text class="cls-126" transform="translate(10 2155.38)">W<tspan class="cls-17" x="12.44" y="0">e</tspan><tspan class="cls-127" x="19.16" y="0">s</tspan><tspan class="cls-15" x="24.81" y="0">t </tspan><tspan class="cls-128" x="32.79" y="0">V</tspan><tspan class="cls-75" x="41.53" y="0">i</tspan><tspan class="cls-122" x="44.85" y="0">r</tspan><tspan class="cls-129" x="49.65" y="0">g</tspan><tspan class="cls-60" x="56.22" y="0">in</tspan><tspan class="cls-28" x="66.56" y="0">i</tspan><tspan class="cls-22" x="69.86" y="0">a</tspan></text><text class="cls-130" transform="translate(10 2200.9)">W<tspan class="cls-63" x="12.95" y="0">i</tspan><tspan class="cls-97" x="16.27" y="0">s</tspan><tspan class="cls-131" x="21.82" y="0">c</tspan><tspan class="cls-22" x="27.76" y="0">o</tspan><tspan class="cls-67" x="34.95" y="0">n</tspan><tspan class="cls-76" x="42" y="0">s</tspan><tspan class="cls-60" x="47.52" y="0">i</tspan><tspan class="cls-15" x="50.83" y="0">n</tspan></text><text class="cls-132" transform="translate(10 2246.42)">W<tspan class="cls-133" x="12.89" y="0">y</tspan><tspan class="cls-22" x="19.29" y="0">o</tspan><tspan class="cls-134" x="26.48" y="0">m</tspan><tspan class="cls-75" x="36.79" y="0">i</tspan><tspan class="cls-56" x="40.11" y="0">n</tspan><tspan class="cls-22" x="47.13" y="0">g</tspan></text></g></g></svg>