<svg xmlns="http://www.w3.org/2000/svg" viewBox="0 0 500 2303.5"><defs><style>.cls-1{fill:#f0f0f0;}.cls-2{fill:#666;}.cls-13,.cls-3,.cls-4{fill:none;stroke-miterlimit:10;}.cls-3{stroke:#999;}.cls-3,.cls-4{stroke-width:0.75px;}.cls-4{stroke:#e6e6e6;}.cls-5{fill:#09bbec;}.cls-6{fill:#006814;}.cls-7{fill:#f7b614;}.cls-8{fill:#ccc;}.cls-9{fill:#748689;}.cls-10{fill:#f24333;}.cls-11{fill:#9e8180;}.cls-12{fill:#afa591;}.cls-13{stroke:#b3b3b3;stroke-width:0.5px;}.cls-109,.cls-117,.cls-120,.cls-123,.cls-125,.cls-127,.cls-128,.cls-130,.cls-133,.cls-137,.cls-139,.cls-14,.cls-23,.cls-31,.cls-36,.cls-38,.cls-43,.cls-47,.cls-50,.cls-55,.cls-62,.cls-64,.cls-66,.cls-71,.cls-73,.cls-75,.cls-79,.cls-84,.cls-97{font-size:12px;}.cls-109,.cls-117,.cls-120,.cls-123,.cls-125,.cls-127,.cls-128,.cls-130,.cls-133,.cls-137,.cls-139,.cls-14,.cls-23,.cls-31,.cls-36,.cls-38,.cls-43,.cls-47,.cls-50,.cls-62,.cls-64,.cls-66,.cls-71,.cls-73,.cls-75,.cls-79,.cls-84,.cls-97{fill:#1a1a1a;font-family:Lato-Bold, Lato;font-weight:700;}.cls-14{letter-spacing:0.02em;}.cls-15{letter-spacing:0.03em;}.cls-16,.cls-62{letter-spacing:0.02em;}.cls-17{letter-spacing:0.03em;}.cls-18{letter-spacing:0.04em;}.cls-19{letter-spacing:0.02em;}.cls-20{letter-spacing:0.02em;}.cls-21{letter-spacing:0.02em;}.cls-22,.cls-97{letter-spacing:0.02em;}.cls-23{letter-spacing:0.04em;}.cls-24{letter-spacing:0.02em;}.cls-25{letter-spacing:0.02em;}.cls-26{letter-spacing:0.02em;}.cls-27,.cls-79{letter-spacing:0.02em;}.cls-28{letter-spacing:0.02em;}.cls-29{letter-spacing:0.03em;}.cls-30{letter-spacing:0.03em;}.cls-31{letter-spacing:0.03em;}.cls-32{letter-spacing:0.03em;}.cls-33{letter-spacing:0.01em;}.cls-34{letter-spacing:0.02em;}.cls-35{letter-spacing:0.03em;}.cls-36{letter-spacing:0.03em;}.cls-37{letter-spacing:0.02em;}.cls-38{letter-spacing:0.03em;}.cls-39{letter-spacing:0.03em;}.cls-40{letter-spacing:0.02em;}.cls-41{letter-spacing:0.03em;}.cls-42,.cls-71{letter-spacing:0.02em;}.cls-43{letter-spacing:0.01em;}.cls-44{letter-spacing:0.02em;}.cls-45{letter-spacing:0.02em;}.cls-46{letter-spacing:0.02em;}.cls-47{letter-spacing:0.03em;}.cls-48{letter-spacing:0.03em;}.cls-49{letter-spacing:0.02em;}.cls-50{letter-spacing:0.03em;}.cls-51{letter-spacing:0.01em;}.cls-52{letter-spacing:0.02em;}.cls-53{letter-spacing:0.01em;}.cls-54{letter-spacing:0.01em;}.cls-55{fill:#e6e6e6;font-family:Lato-Black, Lato;font-weight:800;letter-spacing:0.03em;}.cls-56{letter-spacing:0.02em;}.cls-57{letter-spacing:0.03em;}.cls-58{letter-spacing:0em;}.cls-59{letter-spacing:0.01em;}.cls-60{letter-spacing:-0.01em;}.cls-61{letter-spacing:0em;}.cls-63{letter-spacing:0.02em;}.cls-64{letter-spacing:0.03em;}.cls-65,.cls-84{letter-spacing:0.02em;}.cls-66{letter-spacing:0.02em;}.cls-67{letter-spacing:0.02em;}.cls-68{letter-spacing:0.02em;}.cls-69{letter-spacing:0.02em;}.cls-70{letter-spacing:0.02em;}.cls-72{letter-spacing:0.03em;}.cls-73{letter-spacing:0.03em;}.cls-139,.cls-74{letter-spacing:0.02em;}.cls-75{letter-spacing:0em;}.cls-76{letter-spacing:0.01em;}.cls-77{letter-spacing:0.02em;}.cls-78{letter-spacing:0.05em;}.cls-80{letter-spacing:0.02em;}.cls-81{letter-spacing:0.03em;}.cls-82{letter-spacing:0.02em;}.cls-83{letter-spacing:0.02em;}.cls-85{letter-spacing:0.02em;}.cls-86{letter-spacing:0.05em;}.cls-87{letter-spacing:0.03em;}.cls-88{letter-spacing:0.03em;}.cls-89{letter-spacing:0.02em;}.cls-90{letter-spacing:0.02em;}.cls-91{letter-spacing:0.05em;}.cls-92{letter-spacing:0.01em;}.cls-93{letter-spacing:0.03em;}.cls-94{letter-spacing:0.02em;}.cls-95{letter-spacing:0.03em;}.cls-96{letter-spacing:0.02em;}.cls-98{letter-spacing:0.01em;}.cls-99{letter-spacing:0.03em;}.cls-100{letter-spacing:0.02em;}.cls-101{letter-spacing:0.01em;}.cls-102{letter-spacing:0.02em;}.cls-103{letter-spacing:0.03em;}.cls-104{letter-spacing:0.02em;}.cls-105{letter-spacing:0.01em;}.cls-106{letter-spacing:0.02em;}.cls-107{letter-spacing:0.02em;}.cls-108{letter-spacing:0.01em;}.cls-109,.cls-134{letter-spacing:0.03em;}.cls-110{letter-spacing:-0.05em;}.cls-111{letter-spacing:0.05em;}.cls-112{letter-spacing:0.04em;}.cls-113{letter-spacing:0.02em;}.cls-114{letter-spacing:0em;}.cls-115{letter-spacing:0.02em;}.cls-116{letter-spacing:0.01em;}.cls-117{letter-spacing:0.01em;}.cls-118{letter-spacing:0.03em;}.cls-119{letter-spacing:0.02em;}.cls-120{letter-spacing:0.03em;}.cls-121{letter-spacing:0.03em;}.cls-122{letter-spacing:0.02em;}.cls-123{letter-spacing:0.02em;}.cls-124{letter-spacing:0.02em;}.cls-125{letter-spacing:-0.06em;}.cls-126{letter-spacing:0.03em;}.cls-127{letter-spacing:-0.03em;}.cls-128,.cls-135{letter-spacing:0.03em;}.cls-129{letter-spacing:0.03em;}.cls-130{letter-spacing:-0.01em;}.cls-131{letter-spacing:0.04em;}.cls-132{letter-spacing:0.01em;}.cls-133{letter-spacing:-0.01em;}.cls-136{letter-spacing:0.02em;}.cls-137{letter-spacing:0.03em;}.cls-138{letter-spacing:0.01em;}.cls-140{letter-spacing:0.01em;}.cls-141{letter-spacing:0.02em;}</style></defs><title>ACLU_antitrans_billsovertime_1.3</title><g id="background"><rect class="cls-1" width="500" height="2303.5"/><rect class="cls-2" width="500" height="27.5"/></g><g id="state_grid-2" data-name="state grid"><g id="vert_lines" data-name="vert lines"><line class="cls-3" x1="405" x2="405" y2="2303.5"/><line class="cls-3" x1="215" x2="215" y2="2303.5"/><line class="cls-3" x1="120" x2="120" y2="2303.5"/><polyline class="cls-3" points="310 35.19 310 0 310 2303.5"/><line class="cls-4" x1="310" y1="27.5" x2="310"/><line class="cls-4" x1="405" y1="27.5" x2="405"/></g><g id="dots"><path class="cls-5" d="M419,173.25a2.75,2.75,0,1,1-2.75,2.75,2.75,2.75,0,0,1,2.75-2.75m0-1.25a4,4,0,1,0,4,4,4,4,0,0,0-4-4Z"/><path class="cls-5" d="M428.5,173.25a2.75,2.75,0,1,1-2.75,2.75,2.75,2.75,0,0,1,2.75-2.75m0-1.25a4,4,0,1,0,4,4,4,4,0,0,0-4-4Z"/><circle class="cls-6" cx="419" cy="199.47" r="4"/><path class="cls-6" d="M428.5,196.78a2.75,2.75,0,1,1-2.75,2.75,2.75,2.75,0,0,1,2.75-2.75m0-1.25a4,4,0,1,0,4,4,4,4,0,0,0-4-4Z"/><path class="cls-6" d="M419,187.25a2.75,2.75,0,1,1-2.75,2.75,2.75,2.75,0,0,1,2.75-2.75m0-1.25a4,4,0,1,0,4,4,4,4,0,0,0-4-4Z"/><path class="cls-5" d="M324,35.75a2.75,2.75,0,1,1-2.75,2.75A2.75,2.75,0,0,1,324,35.75m0-1.25a4,4,0,1,0,4,4,4,4,0,0,0-4-4Z"/><path class="cls-5" d="M334,35.75a2.75,2.75,0,1,1-2.75,2.75A2.75,2.75,0,0,1,334,35.75m0-1.25a4,4,0,1,0,4,4,4,4,0,0,0-4-4Z"/><path class="cls-6" d="M324,60.25A2.75,2.75,0,1,1,321.25,63,2.75,2.75,0,0,1,324,60.25M324,59a4,4,0,1,0,4,4,4,4,0,0,0-4-4Z"/><path class="cls-5" d="M419,35.75a2.75,2.75,0,1,1-2.75,2.75A2.75,2.75,0,0,1,419,35.75m0-1.25a4,4,0,1,0,4,4,4,4,0,0,0-4-4Z"/><path class="cls-5" d="M428.5,35.75a2.75,2.75,0,1,1-2.75,2.75,2.75,2.75,0,0,1,2.75-2.75m0-1.25a4,4,0,1,0,4,4,4,4,0,0,0-4-4Z"/><path class="cls-6" d="M419,60.25A2.75,2.75,0,1,1,416.25,63,2.75,2.75,0,0,1,419,60.25M419,59a4,4,0,1,0,4,4,4,4,0,0,0-4-4Z"/><path class="cls-6" d="M334,60.25A2.75,2.75,0,1,1,331.25,63,2.75,2.75,0,0,1,334,60.25M334,59a4,4,0,1,0,4,4,4,4,0,0,0-4-4Z"/><path class="cls-7" d="M486,196.72a2.75,2.75,0,1,1-2.75,2.75,2.75,2.75,0,0,1,2.75-2.75m0-1.25a4,4,0,1,0,4,4,4,4,0,0,0-4-4Z"/><circle class="cls-8" cx="419" cy="85" r="4"/><circle class="cls-8" cx="428.5" cy="85" r="4"/><circle class="cls-8" cx="419" cy="108.5" r="4"/><circle class="cls-8" cx="428.5" cy="108.5" r="4"/><circle class="cls-8" cx="419" cy="99" r="4"/><circle class="cls-8" cx="486" cy="108.5" r="4"/><circle class="cls-8" cx="428.5" cy="99" r="4"/><circle class="cls-8" cx="447.75" cy="108.5" r="4"/><circle class="cls-8" cx="476.5" cy="108.5" r="4"/><circle class="cls-8" cx="457.25" cy="108.5" r="4"/><circle class="cls-8" cx="447.75" cy="99" r="4"/><circle class="cls-8" cx="457.25" cy="99" r="4"/><circle class="cls-8" cx="476.5" cy="99" r="4"/><circle class="cls-8" cx="486" cy="99" r="4"/><circle class="cls-8" cx="419" cy="94.5" r="4"/><circle class="cls-8" cx="428.5" cy="94.5" r="4"/><circle class="cls-8" cx="486" cy="94.5" r="4"/><circle class="cls-8" cx="447.75" cy="94.5" r="4"/><circle class="cls-8" cx="476.5" cy="94.5" r="4"/><circle class="cls-8" cx="457.25" cy="94.5" r="4"/><circle class="cls-8" cx="447.75" cy="85" r="4"/><circle class="cls-8" cx="457.25" cy="85" r="4"/><circle class="cls-8" cx="476.5" cy="85" r="4"/><circle class="cls-8" cx="486" cy="85" r="4"/><path class="cls-7" d="M486,151.25a2.75,2.75,0,1,1-2.75,2.75,2.75,2.75,0,0,1,2.75-2.75m0-1.25a4,4,0,1,0,4,4,4,4,0,0,0-4-4Z"/><path class="cls-5" d="M418.25,400.75a2.75,2.75,0,1,1-2.75,2.75,2.75,2.75,0,0,1,2.75-2.75m0-1.25a4,4,0,1,0,4,4,4,4,0,0,0-4-4Z"/><path class="cls-6" d="M418.25,424.22A2.75,2.75,0,1,1,415.5,427a2.75,2.75,0,0,1,2.75-2.75m0-1.25a4,4,0,1,0,4,4,4,4,0,0,0-4-4Z"/><path class="cls-6" d="M427.75,424.28A2.75,2.75,0,1,1,425,427a2.75,2.75,0,0,1,2.75-2.75m0-1.25a4,4,0,1,0,4,4,4,4,0,0,0-4-4Z"/><path class="cls-6" d="M418.25,414.75a2.75,2.75,0,1,1-2.75,2.75,2.75,2.75,0,0,1,2.75-2.75m0-1.25a4,4,0,1,0,4,4,4,4,0,0,0-4-4Z"/><path class="cls-5" d="M417.5,446.28a2.75,2.75,0,1,1-2.75,2.75,2.75,2.75,0,0,1,2.75-2.75m0-1.25a4,4,0,1,0,4,4,4,4,0,0,0-4-4Z"/><path class="cls-6" d="M417.5,469.72a2.75,2.75,0,1,1-2.75,2.75,2.75,2.75,0,0,1,2.75-2.75m0-1.25a4,4,0,1,0,4,4,4,4,0,0,0-4-4Z"/><path class="cls-6" d="M427,469.78a2.75,2.75,0,1,1-2.75,2.75,2.75,2.75,0,0,1,2.75-2.75m0-1.25a4,4,0,1,0,4,4,4,4,0,0,0-4-4Z"/><path class="cls-6" d="M417.5,460.25a2.75,2.75,0,1,1-2.75,2.75,2.75,2.75,0,0,1,2.75-2.75m0-1.25a4,4,0,1,0,4,4,4,4,0,0,0-4-4Z"/><circle class="cls-9" cx="324" cy="270" r="4"/><circle class="cls-9" cx="324" cy="403.5" r="4"/><circle class="cls-9" cx="333.5" cy="403.5" r="4"/><path class="cls-5" d="M324,446.28a2.75,2.75,0,1,1-2.75,2.75,2.75,2.75,0,0,1,2.75-2.75m0-1.25a4,4,0,1,0,4,4,4,4,0,0,0-4-4Z"/><path class="cls-6" d="M324,469.78a2.75,2.75,0,1,1-2.75,2.75,2.75,2.75,0,0,1,2.75-2.75m0-1.25a4,4,0,1,0,4,4,4,4,0,0,0-4-4Z"/><path class="cls-5" d="M324,673.75a2.75,2.75,0,1,1-2.75,2.75,2.75,2.75,0,0,1,2.75-2.75m0-1.25a4,4,0,1,0,4,4,4,4,0,0,0-4-4Z"/><path class="cls-6" d="M324,697.25a2.75,2.75,0,1,1-2.75,2.75,2.75,2.75,0,0,1,2.75-2.75m0-1.25a4,4,0,1,0,4,4,4,4,0,0,0-4-4Z"/><path class="cls-7" d="M391,697.25a2.75,2.75,0,1,1-2.75,2.75,2.75,2.75,0,0,1,2.75-2.75m0-1.25a4,4,0,1,0,4,4,4,4,0,0,0-4-4Z"/><path class="cls-5" d="M324,764.75a2.75,2.75,0,1,1-2.75,2.75,2.75,2.75,0,0,1,2.75-2.75m0-1.25a4,4,0,1,0,4,4,4,4,0,0,0-4-4Z"/><path class="cls-6" d="M324,788.25a2.75,2.75,0,1,1-2.75,2.75,2.75,2.75,0,0,1,2.75-2.75m0-1.25a4,4,0,1,0,4,4,4,4,0,0,0-4-4Z"/><circle class="cls-8" cx="324" cy="85" r="4"/><circle class="cls-8" cx="333.5" cy="85" r="4"/><circle class="cls-8" cx="324" cy="108.5" r="4"/><circle class="cls-8" cx="333.5" cy="108.5" r="4"/><circle class="cls-8" cx="324" cy="99" r="4"/><circle class="cls-8" cx="391" cy="108.5" r="4"/><circle class="cls-8" cx="333.5" cy="99" r="4"/><circle class="cls-8" cx="352.75" cy="108.5" r="4"/><circle class="cls-8" cx="381.5" cy="108.5" r="4"/><circle class="cls-8" cx="362.25" cy="108.5" r="4"/><circle class="cls-8" cx="352.75" cy="99" r="4"/><circle class="cls-8" cx="362.25" cy="99" r="4"/><circle class="cls-8" cx="381.5" cy="99" r="4"/><circle class="cls-8" cx="391" cy="99" r="4"/><circle class="cls-8" cx="324" cy="94.5" r="4"/><circle class="cls-8" cx="333.5" cy="94.5" r="4"/><circle class="cls-8" cx="391" cy="94.5" r="4"/><circle class="cls-8" cx="352.75" cy="94.5" r="4"/><circle class="cls-8" cx="381.5" cy="94.5" r="4"/><circle class="cls-8" cx="362.25" cy="94.5" r="4"/><circle class="cls-8" cx="352.75" cy="85" r="4"/><circle class="cls-8" cx="362.25" cy="85" r="4"/><circle class="cls-8" cx="381.5" cy="85" r="4"/><circle class="cls-8" cx="391" cy="85" r="4"/><path class="cls-10" d="M352.75,764.75A2.75,2.75,0,1,1,350,767.5a2.75,2.75,0,0,1,2.75-2.75m0-1.25a4,4,0,1,0,4,4,4,4,0,0,0-4-4Z"/><path class="cls-5" d="M324,1128.75a2.75,2.75,0,1,1-2.75,2.75,2.75,2.75,0,0,1,2.75-2.75m0-1.25a4,4,0,1,0,4,4,4,4,0,0,0-4-4Z"/><path class="cls-6" d="M324,1152.25a2.75,2.75,0,1,1-2.75,2.75,2.75,2.75,0,0,1,2.75-2.75m0-1.25a4,4,0,1,0,4,4,4,4,0,0,0-4-4Z"/><path class="cls-6" d="M333.5,1152.32a2.75,2.75,0,1,1-2.75,2.75,2.75,2.75,0,0,1,2.75-2.75m0-1.25a4,4,0,1,0,4,4,4,4,0,0,0-4-4Z"/><path class="cls-7" d="M391,1152.25a2.75,2.75,0,1,1-2.75,2.75,2.75,2.75,0,0,1,2.75-2.75m0-1.25a4,4,0,1,0,4,4,4,4,0,0,0-4-4Z"/><path class="cls-5" d="M324,1583.75a2.75,2.75,0,1,1-2.75,2.75,2.75,2.75,0,0,1,2.75-2.75m0-1.25a4,4,0,1,0,4,4,4,4,0,0,0-4-4Z"/><path class="cls-5" d="M229,82.25A2.75,2.75,0,1,1,226.25,85,2.75,2.75,0,0,1,229,82.25M229,81a4,4,0,1,0,4,4,4,4,0,0,0-4-4Z"/><circle class="cls-11" cx="257.75" cy="631" r="4"/><circle class="cls-7" cx="296" cy="654.5" r="4"/><path class="cls-10" d="M257.75,946.75A2.75,2.75,0,1,1,255,949.5a2.75,2.75,0,0,1,2.75-2.75m0-1.25a4,4,0,1,0,4,4,4,4,0,0,0-4-4Z"/><path class="cls-10" d="M267.25,946.75a2.75,2.75,0,1,1-2.75,2.75,2.75,2.75,0,0,1,2.75-2.75m0-1.25a4,4,0,1,0,4,4,4,4,0,0,0-4-4Z"/><circle class="cls-12" cx="296" cy="1109.5" r="4"/><circle class="cls-10" cx="257" cy="1905" r="4"/><circle class="cls-10" cx="266.5" cy="1905" r="4"/><path class="cls-10" d="M257,2129.75a2.75,2.75,0,1,1-2.75,2.75,2.75,2.75,0,0,1,2.75-2.75m0-1.25a4,4,0,1,0,4,4,4,4,0,0,0-4-4Z"/><circle class="cls-12" cx="296" cy="1974" r="4"/><path class="cls-5" d="M229,582.75a2.75,2.75,0,1,1-2.75,2.75,2.75,2.75,0,0,1,2.75-2.75m0-1.25a4,4,0,1,0,4,4,4,4,0,0,0-4-4Z"/><circle class="cls-9" cx="229" cy="1268" r="4"/><circle class="cls-9" cx="229" cy="1950.5" r="4"/><path class="cls-7" d="M296,742.75a2.75,2.75,0,1,1-2.75,2.75,2.75,2.75,0,0,1,2.75-2.75m0-1.25a4,4,0,1,0,4,4,4,4,0,0,0-4-4Z"/><path class="cls-7" d="M296,1516.25a2.75,2.75,0,1,1-2.75,2.75,2.75,2.75,0,0,1,2.75-2.75m0-1.25a4,4,0,1,0,4,4,4,4,0,0,0-4-4Z"/><path class="cls-7" d="M296,1334.25a2.75,2.75,0,1,1-2.75,2.75,2.75,2.75,0,0,1,2.75-2.75m0-1.25a4,4,0,1,0,4,4,4,4,0,0,0-4-4Z"/><circle class="cls-12" cx="296" cy="1883" r="4"/><circle class="cls-12" cx="296" cy="1873.5" r="4"/><circle class="cls-12" cx="286.5" cy="1883" r="4"/><circle class="cls-12" cx="286.5" cy="1873.5" r="4"/><circle class="cls-12" cx="296" cy="1964.5" r="4"/><circle class="cls-12" cx="286.5" cy="1974" r="4"/><path class="cls-10" d="M162.75,673.75A2.75,2.75,0,1,1,160,676.5a2.75,2.75,0,0,1,2.75-2.75m0-1.25a4,4,0,1,0,4,4,4,4,0,0,0-4-4Z"/><path class="cls-10" d="M172.25,673.75a2.75,2.75,0,1,1-2.75,2.75,2.75,2.75,0,0,1,2.75-2.75m0-1.25a4,4,0,1,0,4,4,4,4,0,0,0-4-4Z"/><path class="cls-10" d="M162.75,764.75A2.75,2.75,0,1,1,160,767.5a2.75,2.75,0,0,1,2.75-2.75m0-1.25a4,4,0,1,0,4,4,4,4,0,0,0-4-4Z"/><path class="cls-10" d="M162.75,1128.75a2.75,2.75,0,1,1-2.75,2.75,2.75,2.75,0,0,1,2.75-2.75m0-1.25a4,4,0,1,0,4,4,4,4,0,0,0-4-4Z"/><path class="cls-10" d="M162.75,1629.25A2.75,2.75,0,1,1,160,1632a2.75,2.75,0,0,1,2.75-2.75m0-1.25a4,4,0,1,0,4,4,4,4,0,0,0-4-4Z"/><path class="cls-10" d="M162,1856.75a2.75,2.75,0,1,1-2.75,2.75,2.75,2.75,0,0,1,2.75-2.75m0-1.25a4,4,0,1,0,4,4,4,4,0,0,0-4-4Z"/><path class="cls-10" d="M171.5,1856.75a2.75,2.75,0,1,1-2.75,2.75,2.75,2.75,0,0,1,2.75-2.75m0-1.25a4,4,0,1,0,4,4,4,4,0,0,0-4-4Z"/><path class="cls-10" d="M162,1902.25a2.75,2.75,0,1,1-2.75,2.75,2.75,2.75,0,0,1,2.75-2.75m0-1.25a4,4,0,1,0,4,4,4,4,0,0,0-4-4Z"/><path class="cls-10" d="M171.5,1902.25a2.75,2.75,0,1,1-2.75,2.75,2.75,2.75,0,0,1,2.75-2.75m0-1.25a4,4,0,1,0,4,4,4,4,0,0,0-4-4Z"/><path class="cls-7" d="M201,1653.3a2.75,2.75,0,1,1-2.75,2.75,2.75,2.75,0,0,1,2.75-2.75m0-1.25a4,4,0,1,0,4,4,4,4,0,0,0-4-4Z"/><path class="cls-7" d="M201,788.25a2.75,2.75,0,1,1-2.75,2.75,2.75,2.75,0,0,1,2.75-2.75m0-1.25a4,4,0,1,0,4,4,4,4,0,0,0-4-4Z"/><path class="cls-7" d="M201,287.75a2.75,2.75,0,1,1-2.75,2.75,2.75,2.75,0,0,1,2.75-2.75m0-1.25a4,4,0,1,0,4,4,4,4,0,0,0-4-4Z"/><path class="cls-5" d="M134,1310.75a2.75,2.75,0,1,1-2.75,2.75,2.75,2.75,0,0,1,2.75-2.75m0-1.25a4,4,0,1,0,4,4,4,4,0,0,0-4-4Z"/><path class="cls-5" d="M143.5,1310.75a2.75,2.75,0,1,1-2.75,2.75,2.75,2.75,0,0,1,2.75-2.75m0-1.25a4,4,0,1,0,4,4,4,4,0,0,0-4-4Z"/><path class="cls-5" d="M134,1320.25a2.75,2.75,0,1,1-2.75,2.75,2.75,2.75,0,0,1,2.75-2.75m0-1.25a4,4,0,1,0,4,4,4,4,0,0,0-4-4Z"/><circle class="cls-9" cx="134" cy="1723" r="4"/><circle class="cls-7" cx="201" cy="654.5" r="4"/><path class="cls-7" d="M201,1880.25a2.75,2.75,0,1,1-2.75,2.75,2.75,2.75,0,0,1,2.75-2.75m0-1.25a4,4,0,1,0,4,4,4,4,0,0,0-4-4Z"/></g><g id="horiz_lines" data-name="horiz lines"><line class="cls-13" x1="500" y1="74" y2="74"/><line class="cls-13" x1="500" y1="165" y2="165"/><line class="cls-13" x1="500" y1="210.5" y2="210.5"/><line class="cls-13" x1="500" y1="256" y2="256"/><line class="cls-13" x1="500" y1="301.5" y2="301.5"/><line class="cls-13" x1="500" y1="119.5" y2="119.5"/><line class="cls-13" x1="500" y1="347" y2="347"/><line class="cls-13" x1="500" y1="392.5" y2="392.5"/><line class="cls-13" x1="500" y1="438" y2="438"/><line class="cls-13" x1="500" y1="483.5" y2="483.5"/><line class="cls-13" x1="500" y1="529" y2="529"/><line class="cls-13" x1="500" y1="574.5" y2="574.5"/><line class="cls-13" x1="500" y1="620" y2="620"/><line class="cls-13" x1="500" y1="665.5" y2="665.5"/><line class="cls-13" x1="500" y1="711" y2="711"/><line class="cls-13" x1="500" y1="756.5" y2="756.5"/><line class="cls-13" x1="500" y1="802" y2="802"/><line class="cls-13" x1="500" y1="847.5" y2="847.5"/><line class="cls-13" x1="500" y1="893" y2="893"/><line class="cls-13" x1="500" y1="938.5" y2="938.5"/><line class="cls-13" x1="500" y1="984" y2="984"/><line class="cls-13" x1="500" y1="1029.5" y2="1029.5"/><line class="cls-13" x1="500" y1="1075" y2="1075"/><line class="cls-13" x1="500" y1="1120.5" y2="1120.5"/><line class="cls-13" x1="500" y1="1166" y2="1166"/><line class="cls-13" x1="500" y1="1211.5" y2="1211.5"/><line class="cls-13" x1="500" y1="1257" y2="1257"/><line class="cls-13" x1="500" y1="1302.5" y2="1302.5"/><line class="cls-13" x1="500" y1="1348" y2="1348"/><line class="cls-13" x1="500" y1="1393.5" y2="1393.5"/><line class="cls-13" x1="500" y1="1439" y2="1439"/><line class="cls-13" x1="500" y1="1484.5" y2="1484.5"/><line class="cls-13" x1="500" y1="1530" y2="1530"/><line class="cls-13" x1="500" y1="1575.5" y2="1575.5"/><line class="cls-13" x1="500" y1="1621" y2="1621"/><line class="cls-13" x1="500" y1="1666.5" y2="1666.5"/></g><g id="state_names-2" data-name="state names"><text class="cls-14" transform="translate(10 317.41)">C<tspan class="cls-15" x="8.21" y="0">on</tspan><tspan class="cls-16" x="22.47" y="0">n</tspan><tspan class="cls-17" x="29.54" y="0">e</tspan><tspan class="cls-18" x="36.26" y="0">c</tspan><tspan class="cls-19" x="42.54" y="0">ti</tspan><tspan class="cls-20" x="50.52" y="0">c</tspan><tspan class="cls-21" x="56.55" y="0">u</tspan><tspan class="cls-22" x="63.56" y="0">t</tspan></text><text class="cls-23" transform="translate(10 226.41)">C<tspan class="cls-22" x="8.45" y="0">a</tspan><tspan class="cls-24" x="14.84" y="0">l</tspan><tspan class="cls-25" x="18.08" y="0">i</tspan><tspan class="cls-26" x="21.32" y="0">f</tspan><tspan class="cls-22" x="25.84" y="0">o</tspan><tspan class="cls-17" x="33.04" y="0">r</tspan><tspan class="cls-27" x="37.83" y="0">n</tspan><tspan class="cls-28" x="44.86" y="0">i</tspan><tspan class="cls-22" x="48.15" y="0">a</tspan></text><text class="cls-14" transform="translate(10 271.91)">C<tspan class="cls-15" x="8.21" y="0">olo</tspan><tspan class="cls-29" x="25.88" y="0">r</tspan><tspan class="cls-30" x="30.72" y="0">a</tspan><tspan class="cls-15" x="37.12" y="0">do</tspan></text><text class="cls-31" transform="translate(10 362.9)">D<tspan class="cls-32" x="9.46" y="0">e</tspan><tspan class="cls-22" x="16.18" y="0">l</tspan><tspan class="cls-33" x="19.47" y="0">a</tspan><tspan class="cls-34" x="25.68" y="0">w</tspan><tspan class="cls-35" x="35.57" y="0">a</tspan><tspan class="cls-24" x="41.96" y="0">r</tspan><tspan class="cls-15" x="46.7" y="0">e</tspan></text><text class="cls-36" transform="translate(10 43.42)">A<tspan class="cls-22" x="8.72" y="0">l</tspan><tspan class="cls-35" x="12" y="0">a</tspan><tspan class="cls-37" x="18.4" y="0">b</tspan><tspan class="cls-35" x="25.48" y="0">a</tspan><tspan class="cls-22" x="31.88" y="0">ma</tspan></text><text class="cls-38" transform="translate(10 180.91)">A<tspan class="cls-17" x="8.73" y="0">r</tspan><tspan class="cls-22" x="13.52" y="0">k</tspan><tspan class="cls-39" x="20.23" y="0">a</tspan><tspan class="cls-40" x="26.63" y="0">n</tspan><tspan class="cls-41" x="33.67" y="0">s</tspan><tspan class="cls-42" x="39.31" y="0">a</tspan><tspan class="cls-22" x="45.68" y="0">s</tspan></text><text class="cls-43" transform="translate(10 408.4)">F<tspan class="cls-22" x="6.97" y="0">lo</tspan><tspan class="cls-44" x="17.44" y="0">r</tspan><tspan class="cls-45" x="22.21" y="0">i</tspan><tspan class="cls-46" x="25.52" y="0">d</tspan><tspan class="cls-22" x="32.62" y="0">a</tspan></text><text class="cls-47" transform="translate(10 453.93)">G<tspan class="cls-17" x="9.11" y="0">e</tspan><tspan class="cls-22" x="15.84" y="0">o</tspan><tspan class="cls-48" x="23.03" y="0">r</tspan><tspan class="cls-49" x="27.84" y="0">g</tspan><tspan class="cls-28" x="34.4" y="0">i</tspan><tspan class="cls-22" x="37.69" y="0">a</tspan></text><text class="cls-50" transform="translate(10 685.25)">I<tspan class="cls-51" x="3.87" y="0">o</tspan><tspan class="cls-34" x="10.87" y="0">w</tspan><tspan class="cls-22" x="20.75" y="0">a</tspan></text><text class="cls-36" transform="translate(10 89.92)">A<tspan class="cls-22" x="8.72" y="0">l</tspan><tspan class="cls-42" x="12" y="0">a</tspan><tspan class="cls-35" x="18.37" y="0">s</tspan><tspan class="cls-22" x="23.95" y="0">ka</tspan></text><text class="cls-38" transform="translate(10 135.41)">A<tspan class="cls-52" x="8.73" y="0">r</tspan><tspan class="cls-53" x="13.49" y="0">i</tspan><tspan class="cls-54" x="16.7" y="0">z</tspan><tspan class="cls-22" x="22.28" y="0">ona</tspan></text><text class="cls-55" transform="translate(320 19.99)">2<tspan class="cls-56" x="7.32" y="0">0</tspan><tspan class="cls-57" x="14.51" y="0">2</tspan><tspan class="cls-15" x="21.83" y="0">0</tspan></text><text class="cls-55" transform="translate(415 19.99)">2<tspan class="cls-56" x="7.32" y="0">0</tspan><tspan class="cls-58" x="14.51" y="0">2</tspan><tspan class="cls-15" x="21.53" y="0">1</tspan></text><line class="cls-4" x1="215" y1="27.5" x2="215"/><text class="cls-55" transform="translate(225 19.99)">2<tspan class="cls-59" x="7.32" y="0">0</tspan><tspan class="cls-60" x="14.4" y="0">1</tspan><tspan class="cls-15" x="21.2" y="0">9</tspan></text><line class="cls-4" x1="120" y1="27.5" x2="120"/><text class="cls-55" transform="translate(130 19.99)">2<tspan class="cls-59" x="7.32" y="0">0</tspan><tspan class="cls-61" x="14.4" y="0">1</tspan><tspan class="cls-15" x="21.41" y="0">8</tspan></text><text class="cls-62" transform="translate(10 504.75)">H<tspan class="cls-33" x="9.54" y="0">a</tspan><tspan class="cls-34" x="15.76" y="0">w</tspan><tspan class="cls-45" x="25.64" y="0">a</tspan><tspan class="cls-63" x="31.99" y="0">i</tspan><tspan class="cls-22" x="35.29" y="0">i</tspan></text><text class="cls-64" transform="translate(10 550.22)">I<tspan class="cls-65" x="3.88" y="0">d</tspan><tspan class="cls-35" x="10.98" y="0">a</tspan><tspan class="cls-16" x="17.38" y="0">h</tspan><tspan class="cls-22" x="24.44" y="0">o</tspan></text><text class="cls-66" transform="translate(10 595.72)">I<tspan class="cls-67" x="3.83" y="0">l</tspan><tspan class="cls-68" x="7.08" y="0">l</tspan><tspan class="cls-67" x="10.32" y="0">i</tspan><tspan class="cls-16" x="13.64" y="0">n</tspan><tspan class="cls-69" x="20.7" y="0">o</tspan><tspan class="cls-70" x="27.83" y="0">i</tspan><tspan class="cls-15" x="31.15" y="0">s</tspan></text><text class="cls-71" transform="translate(10 641.22)">I<tspan class="cls-72" x="3.84" y="0">n</tspan><tspan class="cls-27" x="10.93" y="0">d</tspan><tspan class="cls-28" x="18.01" y="0">i</tspan><tspan class="cls-35" x="21.3" y="0">a</tspan><tspan class="cls-15" x="27.7" y="0">na</tspan></text><text class="cls-73" transform="translate(10 726.93)">K<tspan class="cls-35" x="8.6" y="0">a</tspan><tspan class="cls-74" x="14.99" y="0">n</tspan><tspan class="cls-41" x="22.04" y="0">s</tspan><tspan class="cls-42" x="27.68" y="0">a</tspan><tspan class="cls-22" x="34.05" y="0">s</tspan></text><text class="cls-75" transform="translate(10 772.47)">K<tspan class="cls-30" x="8.19" y="0">e</tspan><tspan class="cls-76" x="14.91" y="0">n</tspan><tspan class="cls-77" x="21.84" y="0">t</tspan><tspan class="cls-22" x="26.56" y="0">u</tspan><tspan class="cls-20" x="33.63" y="0">c</tspan><tspan class="cls-78" x="39.66" y="0">k</tspan><tspan class="cls-15" x="46.7" y="0">y</tspan></text><text class="cls-79" transform="translate(10 1003.78)">M<tspan class="cls-80" x="11.6" y="0">ic</tspan><tspan x="20.93" y="0">h</tspan><tspan class="cls-28" x="27.96" y="0">i</tspan><tspan class="cls-81" x="31.25" y="0">ga</tspan><tspan class="cls-15" x="44.29" y="0">n</tspan></text><text class="cls-71" transform="translate(10 823.29)">L<tspan class="cls-22" x="6.51" y="0">o</tspan><tspan class="cls-82" x="13.71" y="0">u</tspan><tspan class="cls-70" x="20.74" y="0">i</tspan><tspan class="cls-83" x="24.06" y="0">si</tspan><tspan class="cls-35" x="32.88" y="0">a</tspan><tspan class="cls-22" x="39.28" y="0">na</tspan></text><text class="cls-84" transform="translate(10 868.75)">M<tspan class="cls-45" x="11.63" y="0">ai</tspan><tspan class="cls-85" x="21.3" y="0">n</tspan><tspan class="cls-22" x="28.36" y="0">e</tspan></text><text class="cls-84" transform="translate(10 914.25)">M<tspan class="cls-35" x="11.63" y="0">a</tspan><tspan class="cls-86" x="18.03" y="0">r</tspan><tspan class="cls-87" x="23.16" y="0">y</tspan><tspan class="cls-22" x="29.81" y="0">l</tspan><tspan class="cls-35" x="33.1" y="0">a</tspan><tspan class="cls-88" x="39.49" y="0">n</tspan><tspan class="cls-22" x="46.59" y="0">d</tspan></text><text class="cls-84" transform="translate(10 959.75)">M<tspan class="cls-42" x="11.63" y="0">a</tspan><tspan class="cls-28" x="18" y="0">s</tspan><tspan class="cls-41" x="23.52" y="0">s</tspan><tspan class="cls-22" x="29.16" y="0">a</tspan><tspan class="cls-20" x="35.55" y="0">c</tspan><tspan class="cls-44" x="41.57" y="0">h</tspan><tspan class="cls-15" x="48.63" y="0">u</tspan><tspan class="cls-89" x="55.7" y="0">s</tspan><tspan class="cls-90" x="61.25" y="0">e</tspan><tspan class="cls-91" x="67.91" y="0">tt</tspan><tspan class="cls-22" x="76.89" y="0">s</tspan></text><text class="cls-79" transform="translate(10 1045.47)">Mi<tspan class="cls-15" x="14.91" y="0">n</tspan><tspan class="cls-16" x="21.98" y="0">n</tspan><tspan class="cls-17" x="29.04" y="0">e</tspan><tspan class="cls-89" x="35.77" y="0">s</tspan><tspan class="cls-92" x="41.32" y="0">o</tspan><tspan class="cls-93" x="48.36" y="0">t</tspan><tspan class="cls-15" x="53.24" y="0">a</tspan></text><text class="cls-79" transform="translate(10 1091)">M<tspan class="cls-94" x="11.6" y="0">i</tspan><tspan class="cls-28" x="14.92" y="0">ss</tspan><tspan class="cls-94" x="25.96" y="0">i</tspan><tspan class="cls-28" x="29.28" y="0">ss</tspan><tspan class="cls-67" x="40.31" y="0">i</tspan><tspan class="cls-95" x="43.63" y="0">p</tspan><tspan class="cls-96" x="50.75" y="0">p</tspan><tspan class="cls-15" x="57.83" y="0">i</tspan></text><text class="cls-97" transform="translate(10 1322.31)">N<tspan class="cls-76" x="9.55" y="0">e</tspan><tspan x="16.12" y="0">w </tspan><tspan class="cls-16" x="29.26" y="0">H</tspan><tspan class="cls-35" x="38.8" y="0">am</tspan><tspan class="cls-19" x="55.56" y="0">p</tspan><tspan class="cls-35" x="62.64" y="0">s</tspan><tspan class="cls-27" x="68.22" y="0">hir</tspan><tspan x="83.3" y="0">e</tspan></text><text class="cls-79" transform="translate(10 1141.82)">M<tspan class="cls-94" x="11.6" y="0">i</tspan><tspan class="cls-28" x="14.92" y="0">s</tspan><tspan class="cls-89" x="20.44" y="0">s</tspan><tspan class="cls-22" x="26" y="0">o</tspan><tspan class="cls-52" x="33.19" y="0">ur</tspan><tspan class="cls-22" x="45.01" y="0">i</tspan></text><text class="cls-97" transform="translate(10 1187.28)">Mo<tspan class="cls-98" x="18.83" y="0">n</tspan><tspan class="cls-93" x="25.77" y="0">t</tspan><tspan class="cls-35" x="30.65" y="0">a</tspan><tspan class="cls-15" x="37.04" y="0">na</tspan></text><text class="cls-97" transform="translate(10 1232.78)">N<tspan class="cls-95" x="9.55" y="0">eb</tspan><tspan class="cls-99" x="23.39" y="0">r</tspan><tspan class="cls-100" x="28.22" y="0">a</tspan><tspan class="cls-35" x="34.59" y="0">s</tspan><tspan class="cls-15" x="40.17" y="0">ka</tspan></text><text class="cls-97" transform="translate(10 1278.28)">N<tspan class="cls-101" x="9.55" y="0">e</tspan><tspan class="cls-77" x="16.09" y="0">v</tspan><tspan class="cls-30" x="22.68" y="0">a</tspan><tspan class="cls-65" x="29.08" y="0">d</tspan><tspan class="cls-15" x="36.18" y="0">a</tspan></text><text class="cls-97" transform="translate(10 1363.97)">N<tspan class="cls-76" x="9.55" y="0">e</tspan><tspan x="16.12" y="0">w </tspan><tspan class="cls-102" x="29.26" y="0">J</tspan><tspan class="cls-95" x="34.69" y="0">e</tspan><tspan class="cls-103" x="41.41" y="0">r</tspan><tspan class="cls-104" x="46.26" y="0">s</tspan><tspan class="cls-105" x="51.82" y="0">e</tspan><tspan class="cls-15" x="58.35" y="0">y</tspan></text><text class="cls-97" transform="translate(10 1409.5)">N<tspan class="cls-76" x="9.55" y="0">e</tspan><tspan x="16.12" y="0">w M</tspan><tspan class="cls-106" x="40.9" y="0">e</tspan><tspan class="cls-15" x="47.54" y="0">x</tspan><tspan class="cls-107" x="54.11" y="0">i</tspan><tspan class="cls-108" x="57.4" y="0">c</tspan><tspan x="63.33" y="0">o</tspan></text><text class="cls-109" transform="translate(10 1640.81)">O<tspan class="cls-88" x="10.07" y="0">k</tspan><tspan class="cls-22" x="16.81" y="0">l</tspan><tspan class="cls-35" x="20.09" y="0">a</tspan><tspan class="cls-16" x="26.49" y="0">h</tspan><tspan class="cls-15" x="33.55" y="0">oma</tspan></text><text class="cls-97" transform="translate(10 1460.32)">N<tspan class="cls-76" x="9.55" y="0">e</tspan><tspan x="16.12" y="0">w </tspan><tspan class="cls-110" x="29.26" y="0">Y</tspan><tspan x="36.46" y="0">o</tspan><tspan class="cls-17" x="43.65" y="0">r</tspan><tspan x="48.44" y="0">k</tspan></text><text class="cls-97" transform="translate(10 1505.78)">No<tspan class="cls-111" x="16.74" y="0">r</tspan><tspan class="cls-15" x="21.79" y="0">th </tspan><tspan class="cls-112" x="36.84" y="0">C</tspan><tspan class="cls-35" x="45.29" y="0">a</tspan><tspan class="cls-77" x="51.69" y="0">r</tspan><tspan class="cls-15" x="56.42" y="0">o</tspan><tspan class="cls-24" x="63.61" y="0">l</tspan><tspan class="cls-82" x="66.85" y="0">i</tspan><tspan x="70.17" y="0">na</tspan></text><text class="cls-97" transform="translate(10 1551.28)">No<tspan class="cls-111" x="16.74" y="0">r</tspan><tspan class="cls-15" x="21.79" y="0">th </tspan><tspan class="cls-113" x="36.84" y="0">D</tspan><tspan class="cls-39" x="46.23" y="0">a</tspan><tspan class="cls-114" x="52.62" y="0">k</tspan><tspan class="cls-92" x="59.08" y="0">o</tspan><tspan class="cls-93" x="66.11" y="0">t</tspan><tspan x="71" y="0">a</tspan></text><text class="cls-109" transform="translate(10 1596.78)">O<tspan class="cls-115" x="10.07" y="0">h</tspan><tspan class="cls-107" x="17.1" y="0">i</tspan><tspan class="cls-15" x="20.39" y="0">o</tspan></text><line class="cls-13" x1="500" y1="1712" y2="1712"/><line class="cls-13" x1="500" y1="1757.5" y2="1757.5"/><line class="cls-13" x1="500" y1="1803" y2="1803"/><line class="cls-13" x1="500" y1="1848.5" y2="1848.5"/><line class="cls-13" x1="500" y1="1894" y2="1894"/><line class="cls-13" x1="500" y1="1939.5" y2="1939.5"/><line class="cls-13" x1="500" y1="1985" y2="1985"/><line class="cls-13" x1="500" y1="2030.5" y2="2030.5"/><text class="cls-109" transform="translate(10 1686.31)">O<tspan class="cls-68" x="10.07" y="0">r</tspan><tspan class="cls-90" x="14.8" y="0">e</tspan><tspan class="cls-116" x="21.46" y="0">g</tspan><tspan class="cls-22" x="27.94" y="0">on</tspan></text><text class="cls-117" transform="translate(10 1727.97)">P<tspan class="cls-95" x="7.59" y="0">e</tspan><tspan class="cls-22" x="14.31" y="0">n</tspan><tspan class="cls-74" x="21.38" y="0">n</tspan><tspan class="cls-118" x="28.42" y="0">s</tspan><tspan class="cls-87" x="34.06" y="0">y</tspan><tspan class="cls-22" x="40.71" y="0">l</tspan><tspan class="cls-77" x="43.99" y="0">v</tspan><tspan class="cls-35" x="50.58" y="0">a</tspan><tspan class="cls-115" x="56.98" y="0">n</tspan><tspan class="cls-119" x="64.01" y="0">i</tspan><tspan class="cls-15" x="67.3" y="0">a</tspan></text><text class="cls-120" transform="translate(10 1773.5)">R<tspan class="cls-16" x="8.09" y="0">h</tspan><tspan class="cls-121" x="15.15" y="0">o</tspan><tspan class="cls-22" x="22.37" y="0">de </tspan><tspan class="cls-122" x="39.4" y="0">I</tspan><tspan class="cls-15" x="43.24" y="0">sl</tspan><tspan class="cls-35" x="52.1" y="0">a</tspan><tspan class="cls-88" x="58.49" y="0">n</tspan><tspan class="cls-22" x="65.59" y="0">d</tspan></text><text class="cls-123" transform="translate(10 2004.81)">U<tspan class="cls-93" x="9.1" y="0">t</tspan><tspan class="cls-35" x="13.98" y="0">a</tspan><tspan class="cls-15" x="20.38" y="0">h</tspan></text><text class="cls-50" transform="translate(10 1824.32)">S<tspan class="cls-22" x="6.89" y="0">o</tspan><tspan class="cls-69" x="14.09" y="0">u</tspan><tspan class="cls-22" x="21.09" y="0">th </tspan><tspan class="cls-112" x="36.14" y="0">C</tspan><tspan class="cls-39" x="44.58" y="0">a</tspan><tspan class="cls-77" x="50.98" y="0">r</tspan><tspan class="cls-22" x="55.71" y="0">o</tspan><tspan class="cls-24" x="62.9" y="0">l</tspan><tspan class="cls-82" x="66.15" y="0">i</tspan><tspan class="cls-22" x="69.46" y="0">na</tspan></text><text class="cls-50" transform="translate(10 1869.78)">S<tspan class="cls-22" x="6.89" y="0">o</tspan><tspan class="cls-69" x="14.09" y="0">u</tspan><tspan class="cls-22" x="21.09" y="0">th </tspan><tspan class="cls-124" x="36.14" y="0">D</tspan><tspan class="cls-35" x="45.52" y="0">a</tspan><tspan class="cls-114" x="51.92" y="0">k</tspan><tspan class="cls-92" x="58.37" y="0">o</tspan><tspan class="cls-93" x="65.41" y="0">t</tspan><tspan class="cls-15" x="70.29" y="0">a</tspan></text><text class="cls-125" transform="translate(10 1915.28)">T<tspan class="cls-30" x="6.49" y="0">e</tspan><tspan class="cls-15" x="13.21" y="0">n</tspan><tspan class="cls-16" x="20.27" y="0">n</tspan><tspan class="cls-17" x="27.34" y="0">e</tspan><tspan class="cls-119" x="34.06" y="0">s</tspan><tspan class="cls-104" x="39.58" y="0">s</tspan><tspan class="cls-126" x="45.13" y="0">e</tspan><tspan class="cls-15" x="51.85" y="0">e</tspan></text><text class="cls-125" transform="translate(10 1960.78)">T<tspan class="cls-106" x="6.49" y="0">e</tspan><tspan class="cls-44" x="13.13" y="0">x</tspan><tspan class="cls-42" x="19.68" y="0">a</tspan><tspan class="cls-22" x="26.05" y="0">s</tspan></text><line class="cls-13" x1="500" y1="2076" y2="2076"/><line class="cls-13" x1="500" y1="2121.5" y2="2121.5"/><line class="cls-13" x1="500" y1="2167" y2="2167"/><line class="cls-13" x1="500" y1="2212.5" y2="2212.5"/><line class="cls-13" x1="500" y1="2258" y2="2258"/><text class="cls-127" transform="translate(10 2050.31)">V<tspan class="cls-95" x="7.98" y="0">er</tspan><tspan class="cls-52" x="19.49" y="0">m</tspan><tspan class="cls-22" x="29.83" y="0">o</tspan><tspan class="cls-76" x="37.02" y="0">n</tspan><tspan class="cls-22" x="43.95" y="0">t</tspan></text><text class="cls-128" transform="translate(10 2091.97)">V<tspan class="cls-82" x="8.75" y="0">i</tspan><tspan class="cls-129" x="12.06" y="0">r</tspan><tspan class="cls-49" x="16.87" y="0">g</tspan><tspan class="cls-82" x="23.43" y="0">in</tspan><tspan class="cls-119" x="33.78" y="0">i</tspan><tspan class="cls-15" x="37.07" y="0">a</tspan></text><text class="cls-130" transform="translate(10 2137.5)">W<tspan class="cls-42" x="12.5" y="0">a</tspan><tspan class="cls-35" x="18.87" y="0">s</tspan><tspan class="cls-27" x="24.45" y="0">hi</tspan><tspan class="cls-63" x="34.79" y="0">n</tspan><tspan class="cls-131" x="41.81" y="0">g</tspan><tspan class="cls-132" x="48.65" y="0">t</tspan><tspan class="cls-22" x="53.27" y="0">on</tspan></text><text class="cls-133" transform="translate(10 2188.32)">W<tspan class="cls-17" x="12.44" y="0">e</tspan><tspan class="cls-134" x="19.16" y="0">s</tspan><tspan class="cls-15" x="24.81" y="0">t </tspan><tspan class="cls-135" x="32.79" y="0">V</tspan><tspan class="cls-82" x="41.53" y="0">i</tspan><tspan class="cls-129" x="44.85" y="0">r</tspan><tspan class="cls-136" x="49.65" y="0">g</tspan><tspan class="cls-67" x="56.22" y="0">in</tspan><tspan class="cls-28" x="66.56" y="0">i</tspan><tspan class="cls-22" x="69.86" y="0">a</tspan></text><text class="cls-137" transform="translate(10 2233.78)">W<tspan class="cls-70" x="12.95" y="0">i</tspan><tspan class="cls-104" x="16.27" y="0">s</tspan><tspan class="cls-138" x="21.82" y="0">c</tspan><tspan class="cls-22" x="27.76" y="0">o</tspan><tspan class="cls-74" x="34.95" y="0">n</tspan><tspan class="cls-83" x="42" y="0">s</tspan><tspan class="cls-67" x="47.52" y="0">i</tspan><tspan class="cls-15" x="50.83" y="0">n</tspan></text><text class="cls-139" transform="translate(10 2279.28)">W<tspan class="cls-140" x="12.89" y="0">y</tspan><tspan class="cls-22" x="19.29" y="0">o</tspan><tspan class="cls-141" x="26.48" y="0">m</tspan><tspan class="cls-82" x="36.79" y="0">i</tspan><tspan class="cls-63" x="40.11" y="0">n</tspan><tspan class="cls-22" x="47.13" y="0">g</tspan></text></g></g></svg>