<svg xmlns="http://www.w3.org/2000/svg" viewBox="0 0 500 1800"><defs><style>.cls-1{fill:#f0f0f0;}.cls-2,.cls-9{fill:none;stroke-miterlimit:10;}.cls-2{stroke:#999;stroke-width:0.53px;}.cls-3{fill:#09bbec;}.cls-4{fill:#006814;}.cls-5{fill:#8cc63f;}.cls-6{fill:#f7b614;}.cls-7{fill:#ccc;}.cls-8{fill:#748689;}.cls-9{stroke:#b3b3b3;stroke-width:0.5px;}.cls-10,.cls-19,.cls-27,.cls-32,.cls-34,.cls-39,.cls-43,.cls-46{font-size:12px;font-family:Lato-Bold, Lato;font-weight:700;}.cls-10{letter-spacing:0.02em;}.cls-11{letter-spacing:0.03em;}.cls-12{letter-spacing:0.02em;}.cls-13{letter-spacing:0.03em;}.cls-14{letter-spacing:0.04em;}.cls-15{letter-spacing:0.02em;}.cls-16{letter-spacing:0.02em;}.cls-17{letter-spacing:0.02em;}.cls-18{letter-spacing:0.02em;}.cls-19{letter-spacing:0.04em;}.cls-20{letter-spacing:0.02em;}.cls-21{letter-spacing:0.02em;}.cls-22{letter-spacing:0.02em;}.cls-23{letter-spacing:0.02em;}.cls-24{letter-spacing:0.02em;}.cls-25{letter-spacing:0.03em;}.cls-26{letter-spacing:0.03em;}.cls-27{letter-spacing:0.03em;}.cls-28{letter-spacing:0.03em;}.cls-29{letter-spacing:0.01em;}.cls-30{letter-spacing:0.02em;}.cls-31{letter-spacing:0.03em;}.cls-32{letter-spacing:0.03em;}.cls-33{letter-spacing:0.02em;}.cls-34{letter-spacing:0.03em;}.cls-35{letter-spacing:0.03em;}.cls-36{letter-spacing:0.02em;}.cls-37{letter-spacing:0.03em;}.cls-38{letter-spacing:0.02em;}.cls-39{letter-spacing:0.01em;}.cls-40{letter-spacing:0.02em;}.cls-41{letter-spacing:0.02em;}.cls-42{letter-spacing:0.02em;}.cls-43{letter-spacing:0.03em;}.cls-44{letter-spacing:0.03em;}.cls-45{letter-spacing:0.02em;}.cls-46{letter-spacing:0.03em;}.cls-47{letter-spacing:0.01em;}.cls-48{letter-spacing:0.02em;}.cls-49{letter-spacing:0.01em;}.cls-50{letter-spacing:0.01em;}</style></defs><title>ACLU_antitrans_billsovertime_0.2-04</title><g id="background"><rect class="cls-1" width="500" height="1800"/></g><g id="state_grid-2" data-name="state grid"><g id="vert_lines" data-name="vert lines"><line class="cls-2" x1="405" x2="405" y2="1800"/><line class="cls-2" x1="215" x2="215" y2="1800"/><line class="cls-2" x1="310" x2="310" y2="1800"/><line class="cls-2" x1="120" x2="120" y2="1800"/></g><g id="dots"><path class="cls-3" d="M419,187.25a2.75,2.75,0,1,1-2.75,2.75,2.75,2.75,0,0,1,2.75-2.75m0-1.25a4,4,0,1,0,4,4,4,4,0,0,0-4-4Z"/><path class="cls-3" d="M428.5,187.25a2.75,2.75,0,1,1-2.75,2.75,2.75,2.75,0,0,1,2.75-2.75m0-1.25a4,4,0,1,0,4,4,4,4,0,0,0-4-4Z"/><circle class="cls-4" cx="419" cy="222.97" r="4.38"/><path class="cls-5" d="M419,219a4,4,0,1,1-4,4,4,4,0,0,1,4-4m0-.75a4.75,4.75,0,1,0,4.75,4.75,4.75,4.75,0,0,0-4.75-4.75Z"/><path class="cls-4" d="M428.5,220.28a2.75,2.75,0,1,1-2.75,2.75,2.75,2.75,0,0,1,2.75-2.75m0-1.25a4,4,0,1,0,4,4,4,4,0,0,0-4-4Z"/><path class="cls-4" d="M419,210.75a2.75,2.75,0,1,1-2.75,2.75,2.75,2.75,0,0,1,2.75-2.75m0-1.25a4,4,0,1,0,4,4,4,4,0,0,0-4-4Z"/><path class="cls-3" d="M324,21.25A2.75,2.75,0,1,1,321.25,24,2.75,2.75,0,0,1,324,21.25M324,20a4,4,0,1,0,4,4,4,4,0,0,0-4-4Z"/><path class="cls-3" d="M334,21.25A2.75,2.75,0,1,1,331.25,24,2.75,2.75,0,0,1,334,21.25M334,20a4,4,0,1,0,4,4,4,4,0,0,0-4-4Z"/><path class="cls-4" d="M324,55.25A2.75,2.75,0,1,1,321.25,58,2.75,2.75,0,0,1,324,55.25M324,54a4,4,0,1,0,4,4,4,4,0,0,0-4-4Z"/><path class="cls-3" d="M419,21.25A2.75,2.75,0,1,1,416.25,24,2.75,2.75,0,0,1,419,21.25M419,20a4,4,0,1,0,4,4,4,4,0,0,0-4-4Z"/><path class="cls-3" d="M428.5,21.25A2.75,2.75,0,1,1,425.75,24a2.75,2.75,0,0,1,2.75-2.75m0-1.25a4,4,0,1,0,4,4,4,4,0,0,0-4-4Z"/><path class="cls-4" d="M419,55.25A2.75,2.75,0,1,1,416.25,58,2.75,2.75,0,0,1,419,55.25M419,54a4,4,0,1,0,4,4,4,4,0,0,0-4-4Z"/><path class="cls-4" d="M334,55.25A2.75,2.75,0,1,1,331.25,58,2.75,2.75,0,0,1,334,55.25M334,54a4,4,0,1,0,4,4,4,4,0,0,0-4-4Z"/><path class="cls-6" d="M486,220.22a2.75,2.75,0,1,1-2.75,2.75,2.75,2.75,0,0,1,2.75-2.75m0-1.25a4,4,0,1,0,4,4,4,4,0,0,0-4-4Z"/><circle class="cls-7" cx="419" cy="80" r="4"/><circle class="cls-7" cx="428.5" cy="80" r="4"/><circle class="cls-7" cx="419" cy="113" r="4"/><circle class="cls-7" cx="428.5" cy="113" r="4"/><circle class="cls-7" cx="419" cy="103.5" r="4"/><circle class="cls-7" cx="486" cy="113" r="4"/><circle class="cls-7" cx="428.5" cy="103.5" r="4"/><circle class="cls-7" cx="447.75" cy="113" r="4"/><circle class="cls-7" cx="476.5" cy="113" r="4"/><circle class="cls-7" cx="457.25" cy="113" r="4"/><circle class="cls-7" cx="447.75" cy="103.5" r="4"/><circle class="cls-7" cx="457.25" cy="103.5" r="4"/><circle class="cls-7" cx="476.5" cy="103.5" r="4"/><circle class="cls-7" cx="486" cy="103.5" r="4"/><circle class="cls-7" cx="419" cy="89.5" r="4"/><circle class="cls-7" cx="428.5" cy="89.5" r="4"/><circle class="cls-7" cx="486" cy="89.5" r="4"/><circle class="cls-7" cx="447.75" cy="89.5" r="4"/><circle class="cls-7" cx="476.5" cy="89.5" r="4"/><circle class="cls-7" cx="457.25" cy="89.5" r="4"/><circle class="cls-7" cx="447.75" cy="80" r="4"/><circle class="cls-7" cx="457.25" cy="80" r="4"/><circle class="cls-7" cx="476.5" cy="80" r="4"/><circle class="cls-7" cx="486" cy="80" r="4"/><path class="cls-6" d="M486,165.25a2.75,2.75,0,1,1-2.75,2.75,2.75,2.75,0,0,1,2.75-2.75m0-1.25a4,4,0,1,0,4,4,4,4,0,0,0-4-4Z"/><path class="cls-3" d="M418.25,462.23A2.75,2.75,0,1,1,415.5,465a2.75,2.75,0,0,1,2.75-2.75m0-1.25a4,4,0,1,0,4,4,4,4,0,0,0-4-4Z"/><path class="cls-4" d="M418.25,495.2A2.75,2.75,0,1,1,415.5,498a2.75,2.75,0,0,1,2.75-2.75m0-1.25a4,4,0,1,0,4,4,4,4,0,0,0-4-4Z"/><path class="cls-4" d="M427.75,495.27A2.75,2.75,0,1,1,425,498a2.75,2.75,0,0,1,2.75-2.75m0-1.25a4,4,0,1,0,4,4,4,4,0,0,0-4-4Z"/><path class="cls-4" d="M418.25,485.73a2.75,2.75,0,1,1-2.75,2.75,2.75,2.75,0,0,1,2.75-2.75m0-1.25a4,4,0,1,0,4,4,4,4,0,0,0-4-4Z"/><path class="cls-3" d="M417.5,517.23a2.75,2.75,0,1,1-2.75,2.75,2.75,2.75,0,0,1,2.75-2.75m0-1.25a4,4,0,1,0,4,4,4,4,0,0,0-4-4Z"/><path class="cls-4" d="M417.5,550.2a2.75,2.75,0,1,1-2.75,2.75,2.75,2.75,0,0,1,2.75-2.75m0-1.25a4,4,0,1,0,4,4,4,4,0,0,0-4-4Z"/><path class="cls-4" d="M427,550.27a2.75,2.75,0,1,1-2.75,2.75,2.75,2.75,0,0,1,2.75-2.75m0-1.25a4,4,0,1,0,4,4,4,4,0,0,0-4-4Z"/><path class="cls-4" d="M417.5,540.73a2.75,2.75,0,1,1-2.75,2.75,2.75,2.75,0,0,1,2.75-2.75m0-1.25a4,4,0,1,0,4,4,4,4,0,0,0-4-4Z"/><circle class="cls-8" cx="324" cy="303" r="4"/><circle class="cls-8" cx="325.25" cy="465" r="4"/><circle class="cls-8" cx="334.75" cy="465" r="4"/></g><g id="horiz_lines" data-name="horiz lines"><line class="cls-9" x1="500" y1="69" y2="69"/><line class="cls-9" x1="500" y1="179" y2="179"/><line class="cls-9" x1="500" y1="234" y2="234"/><line class="cls-9" x1="500" y1="289" y2="289"/><line class="cls-9" x1="500" y1="344" y2="344"/><line class="cls-9" x1="500" y1="124" y2="124"/><line class="cls-9" x1="500" y1="399" y2="399"/><line class="cls-9" x1="500" y1="454" y2="454"/><line class="cls-9" x1="500" y1="509" y2="509"/><line class="cls-9" x1="500" y1="564" y2="564"/><line class="cls-9" x1="500" y1="619" y2="619"/><line class="cls-9" x1="500" y1="674" y2="674"/><line class="cls-9" x1="500" y1="729" y2="729"/><line class="cls-9" x1="500" y1="784" y2="784"/><line class="cls-9" x1="500" y1="839" y2="839"/></g><g id="state_names-2" data-name="state names"><text class="cls-10" transform="translate(20 364.34)">C<tspan class="cls-11" x="8.21" y="0">on</tspan><tspan class="cls-12" x="22.47" y="0">n</tspan><tspan class="cls-13" x="29.54" y="0">e</tspan><tspan class="cls-14" x="36.26" y="0">c</tspan><tspan class="cls-15" x="42.54" y="0">ti</tspan><tspan class="cls-16" x="50.52" y="0">c</tspan><tspan class="cls-17" x="56.55" y="0">u</tspan><tspan class="cls-18" x="63.56" y="0">t</tspan></text><text class="cls-19" transform="translate(20 255.52)">C<tspan class="cls-18" x="8.45" y="0">a</tspan><tspan class="cls-20" x="14.84" y="0">l</tspan><tspan class="cls-21" x="18.08" y="0">i</tspan><tspan class="cls-22" x="21.32" y="0">f</tspan><tspan class="cls-18" x="25.84" y="0">o</tspan><tspan class="cls-13" x="33.04" y="0">r</tspan><tspan class="cls-23" x="37.83" y="0">n</tspan><tspan class="cls-24" x="44.86" y="0">i</tspan><tspan class="cls-18" x="48.15" y="0">a</tspan></text><text class="cls-10" transform="translate(20 309.93)">C<tspan class="cls-11" x="8.21" y="0">olo</tspan><tspan class="cls-25" x="25.88" y="0">r</tspan><tspan class="cls-26" x="30.72" y="0">a</tspan><tspan class="cls-11" x="37.12" y="0">do</tspan></text><text class="cls-27" transform="translate(20 422.3)">D<tspan class="cls-28" x="9.46" y="0">e</tspan><tspan class="cls-18" x="16.18" y="0">l</tspan><tspan class="cls-29" x="19.47" y="0">a</tspan><tspan class="cls-30" x="25.68" y="0">w</tspan><tspan class="cls-31" x="35.57" y="0">a</tspan><tspan class="cls-20" x="41.96" y="0">r</tspan><tspan class="cls-11" x="46.7" y="0">e</tspan></text><text class="cls-32" transform="translate(20 29.91)">A<tspan class="cls-18" x="8.72" y="0">l</tspan><tspan class="cls-31" x="12" y="0">a</tspan><tspan class="cls-33" x="18.4" y="0">b</tspan><tspan class="cls-31" x="25.48" y="0">a</tspan><tspan class="cls-18" x="31.88" y="0">ma</tspan></text><text class="cls-34" transform="translate(20 198.11)">A<tspan class="cls-13" x="8.73" y="0">r</tspan><tspan class="cls-18" x="13.52" y="0">k</tspan><tspan class="cls-35" x="20.23" y="0">a</tspan><tspan class="cls-36" x="26.63" y="0">n</tspan><tspan class="cls-37" x="33.67" y="0">s</tspan><tspan class="cls-38" x="39.31" y="0">a</tspan><tspan class="cls-18" x="45.68" y="0">s</tspan></text><text class="cls-39" transform="translate(20 470.74)">F<tspan class="cls-18" x="6.97" y="0">lo</tspan><tspan class="cls-40" x="17.44" y="0">r</tspan><tspan class="cls-41" x="22.21" y="0">i</tspan><tspan class="cls-42" x="25.52" y="0">d</tspan><tspan class="cls-18" x="32.62" y="0">a</tspan></text><text class="cls-43" transform="translate(20 525.74)">G<tspan class="cls-13" x="9.11" y="0">e</tspan><tspan class="cls-18" x="15.84" y="0">o</tspan><tspan class="cls-44" x="23.03" y="0">r</tspan><tspan class="cls-45" x="27.84" y="0">g</tspan><tspan class="cls-24" x="34.4" y="0">i</tspan><tspan class="cls-18" x="37.69" y="0">a</tspan></text><text class="cls-46" transform="translate(20 803.74)">I<tspan class="cls-47" x="3.87" y="0">o</tspan><tspan class="cls-30" x="10.87" y="0">w</tspan><tspan class="cls-18" x="20.75" y="0">a</tspan></text><text class="cls-32" transform="translate(20 92.86)">A<tspan class="cls-18" x="8.72" y="0">l</tspan><tspan class="cls-38" x="12" y="0">a</tspan><tspan class="cls-31" x="18.37" y="0">s</tspan><tspan class="cls-18" x="23.95" y="0">ka</tspan></text><text class="cls-34" transform="translate(20 148.48)">A<tspan class="cls-48" x="8.73" y="0">r</tspan><tspan class="cls-49" x="13.49" y="0">i</tspan><tspan class="cls-50" x="16.7" y="0">z</tspan><tspan class="cls-18" x="22.28" y="0">ona</tspan></text></g></g></svg>