<svg xmlns="http://www.w3.org/2000/svg" viewBox="0 0 500 82.5"><defs><style>.cls-1,.cls-32,.cls-41{font-size:9px;font-family:Lato-Regular, Lato;}.cls-1,.cls-48{letter-spacing:0.04em;}.cls-2{letter-spacing:0.04em;}.cls-3{letter-spacing:0.03em;}.cls-4{letter-spacing:0.03em;}.cls-5{letter-spacing:0.04em;}.cls-6{letter-spacing:0.04em;}.cls-7{letter-spacing:0.05em;}.cls-8{letter-spacing:0.04em;}.cls-9{letter-spacing:0.03em;}.cls-10{letter-spacing:0.03em;}.cls-11{letter-spacing:0.02em;}.cls-12{letter-spacing:0.03em;}.cls-13{letter-spacing:0.03em;}.cls-14{letter-spacing:0.05em;}.cls-15{letter-spacing:0.03em;}.cls-16{letter-spacing:0.03em;}.cls-17{letter-spacing:0.03em;}.cls-18{letter-spacing:0.03em;}.cls-19,.cls-41{letter-spacing:0.04em;}.cls-20{letter-spacing:0.03em;}.cls-21{letter-spacing:0.04em;}.cls-22{letter-spacing:0.03em;}.cls-23{letter-spacing:0.03em;}.cls-24{letter-spacing:0.03em;}.cls-25{letter-spacing:0.04em;}.cls-26{font-size:12px;font-family:Lato-Bold, Lato;font-weight:700;letter-spacing:0em;}.cls-27{letter-spacing:0.01em;}.cls-28{letter-spacing:0.03em;}.cls-29{fill:#09bbec;}.cls-30{fill:#006814;}.cls-31{fill:#f24333;}.cls-32{letter-spacing:0.04em;}.cls-33{letter-spacing:0.04em;}.cls-34{letter-spacing:0.03em;}.cls-35{letter-spacing:0.04em;}.cls-36{letter-spacing:0.04em;}.cls-37{letter-spacing:0.05em;}.cls-38{letter-spacing:0.04em;}.cls-39{fill:#591e4c;}.cls-40{fill:#f7b614;}.cls-42{letter-spacing:0.03em;}.cls-43{letter-spacing:0.04em;}.cls-44{letter-spacing:0.04em;}.cls-45{letter-spacing:0.03em;}.cls-46{letter-spacing:0.02em;}.cls-47{letter-spacing:0.03em;}.cls-49{letter-spacing:0.03em;}.cls-50{letter-spacing:0.03em;}.cls-51{letter-spacing:0.04em;}.cls-52{letter-spacing:0.04em;}.cls-53{fill:#748689;}</style></defs><title>ACLU_antitrans_billsovertime_1.4_key</title><g id="key"><text class="cls-1" transform="translate(20 37.64)">H<tspan class="cls-2" x="7.21" y="0">e</tspan><tspan class="cls-3" x="12.3" y="0">a</tspan><tspan class="cls-4" x="17.08" y="0">l</tspan><tspan class="cls-5" x="19.5" y="0">t</tspan><tspan class="cls-6" x="23.09" y="0">h</tspan><tspan class="cls-7" x="28.44" y="0">c</tspan><tspan class="cls-8" x="33.18" y="0">a</tspan><tspan class="cls-9" x="37.97" y="0">r</tspan><tspan class="cls-10" x="41.54" y="0">e</tspan><tspan class="cls-11"><tspan x="0" y="16.2">A</tspan><tspan class="cls-5" x="6.3" y="16.2">t</tspan><tspan class="cls-12" x="9.88" y="16.2">h</tspan><tspan class="cls-13" x="15.21" y="16.2">leti</tspan><tspan class="cls-14" x="28.58" y="16.2">c</tspan><tspan class="cls-10" x="33.32" y="16.2">s</tspan></tspan><tspan class="cls-15"><tspan x="0" y="32.4">Si</tspan><tspan class="cls-16" x="7.63" y="32.4">n</tspan><tspan class="cls-4" x="12.96" y="32.4">g</tspan><tspan class="cls-13" x="17.93" y="32.4">l</tspan><tspan class="cls-17" x="20.37" y="32.4">e</tspan><tspan class="cls-18" x="25.42" y="32.4">-</tspan><tspan class="cls-19" x="29.02" y="32.4">s</tspan><tspan class="cls-20" x="33.24" y="32.4">e</tspan><tspan class="cls-10" x="38.29" y="32.4">x </tspan><tspan class="cls-21" x="45.53" y="32.4">f</tspan><tspan class="cls-6" x="49.08" y="32.4">a</tspan><tspan class="cls-22" x="53.89" y="32.4">cil</tspan><tspan class="cls-23" x="63.28" y="32.4">i</tspan><tspan class="cls-24" x="65.75" y="32.4">ti</tspan><tspan class="cls-25" x="71.59" y="32.4">e</tspan><tspan class="cls-10" x="76.7" y="32.4">s</tspan></tspan></text><text class="cls-26" transform="translate(20 15.92)">K<tspan class="cls-27" x="8.19" y="0">e</tspan><tspan class="cls-28" x="14.72" y="0">y</tspan></text></g><g id="state_grid-2" data-name="state grid"><g id="dots"><circle class="cls-29" cx="119" cy="34.5" r="4"/><circle class="cls-30" cx="119" cy="50.73" r="4"/><circle class="cls-31" cx="119" cy="66.95" r="4"/><text class="cls-32" transform="translate(155 37.14)">I<tspan class="cls-33" x="2.86" y="0">de</tspan><tspan class="cls-34" x="13.32" y="0">n</tspan><tspan class="cls-35" x="18.6" y="0">tif</tspan><tspan class="cls-36" x="24.47" y="0">i</tspan><tspan class="cls-7" x="29.95" y="0">ca</tspan><tspan class="cls-34" x="34.69" y="0">t</tspan><tspan class="cls-13" x="39.43" y="0">io</tspan><tspan class="cls-10" x="50.7" y="0">n</tspan><tspan class="cls-37"><tspan x="0" y="16.2">O</tspan><tspan class="cls-5" x="7.61" y="16.2">t</tspan><tspan class="cls-38" x="11.2" y="16.2">he</tspan><tspan class="cls-10" x="21.62" y="16.2">r</tspan></tspan></text><circle class="cls-39" cx="254" cy="34" r="4"/><circle class="cls-40" cx="254" cy="50.23" r="4"/><text class="cls-41" transform="translate(290 37.14)">C<tspan class="cls-42" x="6.34" y="0">u</tspan><tspan class="cls-43" x="11.66" y="0">r</tspan><tspan class="cls-9" x="15.3" y="0">r</tspan><tspan class="cls-44" x="18.87" y="0">e</tspan><tspan class="cls-45" x="23.95" y="0">n</tspan><tspan class="cls-46" x="29.21" y="0">t </tspan><tspan class="cls-13" x="35.19" y="0">B</tspan><tspan class="cls-47" x="41.33" y="0">il</tspan><tspan class="cls-10" x="46.16" y="0">l</tspan><tspan class="cls-48"><tspan x="0" y="16.2">P</tspan><tspan class="cls-49" x="5.74" y="16.2">a</tspan><tspan class="cls-50" x="10.49" y="16.2">s</tspan><tspan class="cls-19" x="14.68" y="16.2">s</tspan><tspan class="cls-51" x="18.91" y="16.2">e</tspan><tspan class="cls-10" x="24.01" y="16.2">d</tspan></tspan><tspan class="cls-52"><tspan x="0" y="32.4">D</tspan><tspan class="cls-2" x="7.21" y="32.4">ea</tspan><tspan class="cls-10" x="17.13" y="32.4">d</tspan></tspan></text><path class="cls-29" d="M389,31.25A2.75,2.75,0,1,1,386.25,34,2.75,2.75,0,0,1,389,31.25M389,30a4,4,0,1,0,4,4,4,4,0,0,0-4-4Z"/><circle class="cls-29" cx="389" cy="50.23" r="4"/><circle class="cls-53" cx="389" cy="66.45" r="4"/></g></g></svg>