<svg viewBox="0 0 500 1800" xmlns="http://www.w3.org/2000/svg"><path d="m0 0h500v1800h-500z" fill="#f0f0f0"/><path d="m405 0v1800" fill="none" stroke="#999" stroke-miterlimit="10" stroke-width=".53"/><path d="m215 0v1800" fill="none" stroke="#999" stroke-miterlimit="10" stroke-width=".53"/><path d="m310 0v1800" fill="none" stroke="#999" stroke-miterlimit="10" stroke-width=".53"/><path d="m120 0v1800" fill="none" stroke="#999" stroke-miterlimit="10" stroke-width=".53"/><circle cx="419" cy="210" fill="#09bbec" r="4"/><circle cx="428.5" cy="210" fill="#09bbec" r="4"/><circle cx="419" cy="243.97" fill="#006814" r="4"/><circle cx="428.5" cy="244.03" fill="#006814" r="4"/><circle cx="419" cy="234.5" fill="#006814" r="4"/><circle cx="324" cy="24" fill="#09bbec" r="4"/><circle cx="334" cy="24" fill="#09bbec" r="4"/><circle cx="324" cy="58" fill="#006814" r="4"/><circle cx="419" cy="24" fill="#09bbec" r="4"/><circle cx="428.5" cy="24" fill="#09bbec" r="4"/><circle cx="419" cy="58" fill="#006814" r="4"/><circle cx="334" cy="58" fill="#006814" r="4"/><circle cx="486" cy="243.97" fill="#f7b614" r="4"/><g fill="#ccc"><circle cx="419" cy="86" r="4"/><circle cx="428.5" cy="86" r="4"/><circle cx="419" cy="120" r="4"/><circle cx="428.5" cy="120" r="4"/><circle cx="419" cy="110.5" r="4"/><circle cx="486" cy="120" r="4"/><circle cx="428.5" cy="110.5" r="4"/><circle cx="447.75" cy="120" r="4"/><circle cx="476.5" cy="120" r="4"/><circle cx="457.25" cy="120" r="4"/><circle cx="447.75" cy="110.5" r="4"/><circle cx="457.25" cy="110.5" r="4"/><circle cx="476.5" cy="110.5" r="4"/><circle cx="486" cy="110.5" r="4"/><circle cx="419" cy="95.5" r="4"/><circle cx="428.5" cy="95.5" r="4"/><circle cx="486" cy="95.5" r="4"/><circle cx="447.75" cy="95.5" r="4"/><circle cx="476.5" cy="95.5" r="4"/><circle cx="457.25" cy="95.5" r="4"/><circle cx="447.75" cy="86" r="4"/><circle cx="457.25" cy="86" r="4"/><circle cx="476.5" cy="86" r="4"/><circle cx="486" cy="86" r="4"/></g><path d="m500 72h-500" fill="none" stroke="#b3b3b3" stroke-miterlimit="10" stroke-width=".5"/><path d="m500 196h-500" fill="none" stroke="#b3b3b3" stroke-miterlimit="10" stroke-width=".5"/><path d="m500 258h-500" fill="none" stroke="#b3b3b3" stroke-miterlimit="10" stroke-width=".5"/><path d="m500 320h-500" fill="none" stroke="#b3b3b3" stroke-miterlimit="10" stroke-width=".5"/><path d="m500 382h-500" fill="none" stroke="#b3b3b3" stroke-miterlimit="10" stroke-width=".5"/><path d="m500 134h-500" fill="none" stroke="#b3b3b3" stroke-miterlimit="10" stroke-width=".5"/><path d="m500 444h-500" fill="none" stroke="#b3b3b3" stroke-miterlimit="10" stroke-width=".5"/><path d="m500 506h-500" fill="none" stroke="#b3b3b3" stroke-miterlimit="10" stroke-width=".5"/><path d="m500 568h-500" fill="none" stroke="#b3b3b3" stroke-miterlimit="10" stroke-width=".5"/><path d="m500 630h-500" fill="none" stroke="#b3b3b3" stroke-miterlimit="10" stroke-width=".5"/><path d="m500 692h-500" fill="none" stroke="#b3b3b3" stroke-miterlimit="10" stroke-width=".5"/><path d="m500 754h-500" fill="none" stroke="#b3b3b3" stroke-miterlimit="10" stroke-width=".5"/><path d="m500 816h-500" fill="none" stroke="#b3b3b3" stroke-miterlimit="10" stroke-width=".5"/><path d="m500 878h-500" fill="none" stroke="#b3b3b3" stroke-miterlimit="10" stroke-width=".5"/><path d="m500 940h-500" fill="none" stroke="#b3b3b3" stroke-miterlimit="10" stroke-width=".5"/><text font-family="Lato-Bold, Lato" font-size="12" font-weight="700" letter-spacing=".02em" transform="translate(20 402.34)">C<tspan letter-spacing=".03em" x="8.21" y="0">on</tspan><tspan letter-spacing=".02em" x="22.47" y="0">n</tspan><tspan letter-spacing=".03em" x="29.54" y="0">e</tspan><tspan letter-spacing=".04em" x="36.26" y="0">c</tspan><tspan letter-spacing=".02em" x="42.54" y="0">ti</tspan><tspan letter-spacing=".02em" x="50.52" y="0">c</tspan><tspan letter-spacing=".02em" x="56.55" y="0">u</tspan><tspan letter-spacing=".02em" x="63.56" y="0">t</tspan></text><text font-family="Lato-Bold, Lato" font-size="12" font-weight="700" letter-spacing=".04em" transform="translate(20 279.52)">C<tspan letter-spacing=".02em" x="8.45" y="0">a</tspan><tspan letter-spacing=".02em" x="14.84" y="0">l</tspan><tspan letter-spacing=".02em" x="18.08" y="0">i</tspan><tspan letter-spacing=".02em" x="21.32" y="0">f</tspan><tspan letter-spacing=".02em" x="25.84" y="0">o</tspan><tspan letter-spacing=".03em" x="33.04" y="0">r</tspan><tspan letter-spacing=".02em" x="37.83" y="0">n</tspan><tspan letter-spacing=".02em" x="44.86" y="0">i</tspan><tspan letter-spacing=".02em" x="48.15" y="0">a</tspan></text><text font-family="Lato-Bold, Lato" font-size="12" font-weight="700" letter-spacing=".02em" transform="translate(20 340.93)">C<tspan letter-spacing=".03em" x="8.21" y="0">olo</tspan><tspan letter-spacing=".03em" x="25.88" y="0">r</tspan><tspan letter-spacing=".03em" x="30.72" y="0">a</tspan><tspan letter-spacing=".03em" x="37.12" y="0">do</tspan></text><text font-family="Lato-Bold, Lato" font-size="12" font-weight="700" letter-spacing=".03em" transform="translate(20 467.3)">D<tspan letter-spacing=".03em" x="9.46" y="0">e</tspan><tspan letter-spacing=".02em" x="16.18" y="0">l</tspan><tspan letter-spacing=".01em" x="19.47" y="0">a</tspan><tspan letter-spacing=".02em" x="25.68" y="0">w</tspan><tspan letter-spacing=".03em" x="35.57" y="0">a</tspan><tspan letter-spacing=".02em" x="41.96" y="0">r</tspan><tspan letter-spacing=".03em" x="46.7" y="0">e</tspan></text><text font-family="Lato-Bold, Lato" font-size="12" font-weight="700" letter-spacing=".03em" transform="translate(20 29.91)">A<tspan letter-spacing=".02em" x="8.72" y="0">l</tspan><tspan letter-spacing=".03em" x="12" y="0">a</tspan><tspan letter-spacing=".02em" x="18.4" y="0">b</tspan><tspan letter-spacing=".03em" x="25.48" y="0">a</tspan><tspan letter-spacing=".02em" x="31.88" y="0">ma</tspan></text><text font-family="Lato-Bold, Lato" font-size="12" font-weight="700" letter-spacing=".03em" transform="translate(20 218.11)">A<tspan letter-spacing=".03em" x="8.73" y="0">r</tspan><tspan letter-spacing=".02em" x="13.52" y="0">k</tspan><tspan letter-spacing=".03em" x="20.23" y="0">a</tspan><tspan letter-spacing=".02em" x="26.63" y="0">n</tspan><tspan letter-spacing=".03em" x="33.67" y="0">s</tspan><tspan letter-spacing=".02em" x="39.31" y="0">a</tspan><tspan letter-spacing=".02em" x="45.68" y="0">s</tspan></text><text font-family="Lato-Bold, Lato" font-size="12" font-weight="700" letter-spacing=".01em" transform="translate(20 525.74)">F<tspan letter-spacing=".02em" x="6.97" y="0">lo</tspan><tspan letter-spacing=".02em" x="17.44" y="0">r</tspan><tspan letter-spacing=".02em" x="22.21" y="0">i</tspan><tspan letter-spacing=".02em" x="25.52" y="0">d</tspan><tspan letter-spacing=".02em" x="32.62" y="0">a</tspan></text><text font-family="Lato-Bold, Lato" font-size="12" font-weight="700" letter-spacing=".03em" transform="translate(20 587.74)">G<tspan letter-spacing=".03em" x="9.11" y="0">e</tspan><tspan letter-spacing=".02em" x="15.84" y="0">o</tspan><tspan letter-spacing=".03em" x="23.03" y="0">r</tspan><tspan letter-spacing=".02em" x="27.84" y="0">g</tspan><tspan letter-spacing=".02em" x="34.4" y="0">i</tspan><tspan letter-spacing=".02em" x="37.69" y="0">a</tspan></text><text font-family="Lato-Bold, Lato" font-size="12" font-weight="700" letter-spacing=".03em" transform="translate(20 897.74)">I<tspan letter-spacing=".01em" x="3.87" y="0">o</tspan><tspan letter-spacing=".02em" x="10.87" y="0">w</tspan><tspan letter-spacing=".02em" x="20.75" y="0">a</tspan></text><text font-family="Lato-Bold, Lato" font-size="12" font-weight="700" letter-spacing=".03em" transform="translate(20 98.86)">A<tspan letter-spacing=".02em" x="8.72" y="0">l</tspan><tspan letter-spacing=".02em" x="12" y="0">a</tspan><tspan letter-spacing=".03em" x="18.37" y="0">s</tspan><tspan letter-spacing=".02em" x="23.95" y="0">ka</tspan></text><text font-family="Lato-Bold, Lato" font-size="12" font-weight="700" letter-spacing=".03em" transform="translate(20 158.48)">A<tspan letter-spacing=".02em" x="8.73" y="0">r</tspan><tspan letter-spacing=".01em" x="13.49" y="0">i</tspan><tspan letter-spacing=".01em" x="16.7" y="0">z</tspan><tspan letter-spacing=".02em" x="22.28" y="0">ona</tspan></text></svg>