<?xml version="1.0" encoding="utf-8"?>
<!-- Generator: Adobe Illustrator 23.0.6, SVG Export Plug-In . SVG Version: 6.00 Build 0)  -->
<svg version="1.1" xmlns="http://www.w3.org/2000/svg" xmlns:xlink="http://www.w3.org/1999/xlink" x="0px" y="0px"
	 viewBox="0 0 413 82.5" style="enable-background:new 0 0 413 82.5;" xml:space="preserve">
<style type="text/css">
	.st0{fill:#F0F0F0;}
	.st1{fill:none;stroke:#CCCCCC;stroke-width:0.5;stroke-miterlimit:10;}
	.st2{fill:none;stroke:#CCCCCC;stroke-width:0.5;stroke-miterlimit:10;stroke-dasharray:8.0269,5.0168;}
	.st3{fill:none;stroke:#CCCCCC;stroke-width:1.2762;stroke-miterlimit:10;}
	.st4{fill:none;stroke:#CCCCCC;stroke-width:1.2762;stroke-miterlimit:10;stroke-dasharray:20.5139,12.8212;}
	.st5{fill:none;stroke:#999999;stroke-width:0.5;stroke-miterlimit:10;}
	.st6{fill:none;stroke:#999999;stroke-width:1.2762;stroke-miterlimit:10;}
	.st7{fill:none;stroke:#999999;stroke-width:1.0395;stroke-miterlimit:10;}
	.st8{fill:#57A773;}
	.st9{fill:#FF1654;}
	.st10{fill:#F7B614;}
	.st11{fill:#591E4C;}
	.st12{fill:#10A0C1;}
	.st13{fill:none;stroke:#FF1654;stroke-width:1.6442;stroke-miterlimit:10;}
	.st14{clip-path:url(#SVGID_2_);fill:#FF1654;}
	.st15{clip-path:url(#SVGID_4_);fill:#FF1654;}
	.st16{clip-path:url(#SVGID_6_);fill:#FF1654;}
	.st17{clip-path:url(#SVGID_8_);fill:#FF1654;}
	.st18{fill:#9ACAAB;}
	.st19{fill:#FFA2BB;}
	.st20{fill:#F9DB98;}
	.st21{fill:#9B7894;}
	.st22{fill:#84D9F1;}
	.st23{fill:#9EADA4;}
	.st24{fill:#CC9FAD;}
	.st25{fill:#CCB479;}
	.st26{fill:#60495C;}
	.st27{fill:#7DA8B2;}
	.st28{fill:#006814;}
	.st29{fill:#F24333;}
	.st30{fill:#7234AD;}
	.st31{fill:#09BBEC;}
	.st32{fill:#778478;}
	.st33{fill:#9E8180;}
	.st34{fill:#AFA591;}
	.st35{fill:#7C7487;}
	.st36{fill:#748689;}
	.st37{fill:none;stroke:#B3B3B3;stroke-width:0.5;stroke-miterlimit:10;}
	.st38{fill:#3E9358;}
	.st39{fill:#CCCCCC;}
	.st40{fill:#5F7061;}
	.st41{fill:none;stroke:#B3B3B3;stroke-width:0.75;stroke-miterlimit:10;}
	.st42{fill:none;stroke:#666666;stroke-width:0.75;stroke-miterlimit:10;}
	.st43{fill:#666666;}
	.st44{fill:none;stroke:#E6E6E6;stroke-width:0.75;stroke-miterlimit:10;}
	.st45{fill:#333333;}
</style>
<g id="background">
	<rect y="0" class="st0" width="413" height="82.5"/>
</g>
<g id="time_vertical">
	<g id="bimonths">
	</g>
	<g id="sixmonths">
	</g>
</g>
<g id="key">
	<g id="pattern">
	</g>
	<g>
		<path d="M26.05,34.19v6.45h-0.87V37.7H21.7v2.93h-0.87v-6.45h0.87v2.88h3.48v-2.88H26.05z"/>
		<path d="M31.54,40c-0.1,0.12-0.22,0.22-0.36,0.31c-0.14,0.09-0.29,0.16-0.44,0.22s-0.32,0.1-0.49,0.13
			c-0.17,0.03-0.33,0.04-0.5,0.04c-0.31,0-0.6-0.05-0.87-0.16s-0.5-0.26-0.69-0.47c-0.19-0.21-0.34-0.46-0.45-0.76
			c-0.11-0.3-0.16-0.65-0.16-1.04c0-0.32,0.05-0.61,0.15-0.89c0.1-0.28,0.24-0.52,0.42-0.72c0.18-0.2,0.41-0.36,0.67-0.48
			c0.26-0.12,0.56-0.17,0.89-0.17c0.27,0,0.53,0.05,0.76,0.14c0.23,0.09,0.43,0.22,0.6,0.4c0.17,0.17,0.3,0.39,0.4,0.64
			c0.1,0.25,0.14,0.54,0.14,0.87c0,0.13-0.01,0.21-0.04,0.25s-0.08,0.06-0.15,0.06h-3.05c0.01,0.29,0.05,0.54,0.12,0.75
			s0.17,0.39,0.29,0.53s0.28,0.25,0.45,0.32c0.17,0.07,0.37,0.11,0.58,0.11c0.2,0,0.38-0.02,0.52-0.07s0.27-0.1,0.38-0.15
			c0.11-0.05,0.19-0.1,0.26-0.15c0.07-0.05,0.13-0.07,0.18-0.07c0.07,0,0.12,0.03,0.15,0.08L31.54,40z M30.89,37.86
			c0-0.19-0.03-0.36-0.08-0.51c-0.05-0.15-0.13-0.29-0.23-0.4c-0.1-0.11-0.22-0.2-0.37-0.26s-0.31-0.09-0.49-0.09
			c-0.38,0-0.69,0.11-0.91,0.34c-0.22,0.22-0.36,0.53-0.42,0.93H30.89z"/>
		<path d="M32.82,36.72c0.25-0.24,0.52-0.42,0.81-0.54S34.25,36,34.6,36c0.25,0,0.48,0.04,0.68,0.13c0.2,0.08,0.36,0.2,0.5,0.35
			s0.24,0.33,0.31,0.54c0.07,0.21,0.1,0.45,0.1,0.7v2.92h-0.36c-0.08,0-0.14-0.01-0.18-0.04s-0.08-0.08-0.1-0.15l-0.09-0.43
			c-0.12,0.11-0.24,0.21-0.35,0.29s-0.23,0.16-0.36,0.22s-0.26,0.1-0.4,0.14c-0.14,0.03-0.3,0.05-0.47,0.05
			c-0.18,0-0.34-0.02-0.5-0.07c-0.16-0.05-0.29-0.12-0.41-0.22c-0.12-0.1-0.21-0.22-0.28-0.38c-0.07-0.15-0.1-0.33-0.1-0.54
			c0-0.18,0.05-0.35,0.15-0.52c0.1-0.17,0.26-0.31,0.48-0.44s0.51-0.23,0.87-0.32c0.36-0.08,0.79-0.13,1.31-0.14v-0.36
			c0-0.35-0.08-0.62-0.23-0.8c-0.15-0.18-0.38-0.27-0.67-0.27c-0.2,0-0.36,0.02-0.5,0.07c-0.13,0.05-0.25,0.11-0.35,0.17
			c-0.1,0.06-0.18,0.12-0.25,0.17c-0.07,0.05-0.14,0.07-0.21,0.07c-0.05,0-0.1-0.01-0.14-0.04s-0.07-0.06-0.1-0.11L32.82,36.72z
			 M35.41,38.58c-0.37,0.01-0.68,0.04-0.94,0.09c-0.26,0.05-0.47,0.11-0.63,0.18c-0.16,0.08-0.28,0.16-0.36,0.27
			c-0.07,0.1-0.11,0.22-0.11,0.34c0,0.12,0.02,0.22,0.06,0.31c0.04,0.09,0.09,0.16,0.16,0.21c0.07,0.06,0.15,0.1,0.24,0.12
			c0.09,0.03,0.19,0.04,0.29,0.04c0.14,0,0.27-0.01,0.39-0.04c0.12-0.03,0.23-0.07,0.33-0.12c0.1-0.05,0.2-0.12,0.3-0.19
			c0.09-0.07,0.19-0.16,0.28-0.26V38.58z"/>
		<path d="M38.55,34.01v6.63h-0.8v-6.63H38.55z"/>
		<path d="M41.54,40.71c-0.36,0-0.64-0.1-0.83-0.3s-0.29-0.49-0.29-0.87v-2.79h-0.55c-0.05,0-0.09-0.01-0.12-0.04
			s-0.05-0.07-0.05-0.13v-0.32l0.75-0.09l0.18-1.41c0.01-0.04,0.03-0.08,0.06-0.11c0.03-0.03,0.07-0.04,0.12-0.04h0.41v1.57h1.32
			v0.58h-1.32v2.74c0,0.19,0.05,0.33,0.14,0.43c0.09,0.09,0.21,0.14,0.36,0.14c0.08,0,0.16-0.01,0.22-0.03s0.11-0.05,0.16-0.07
			c0.05-0.03,0.08-0.05,0.12-0.07s0.06-0.03,0.08-0.03c0.04,0,0.08,0.03,0.11,0.08l0.23,0.38c-0.14,0.13-0.3,0.23-0.5,0.3
			C41.94,40.67,41.74,40.71,41.54,40.71z"/>
		<path d="M44.53,36.69c0.19-0.21,0.41-0.37,0.65-0.49c0.24-0.12,0.51-0.18,0.82-0.18c0.25,0,0.47,0.04,0.66,0.12
			s0.35,0.2,0.48,0.35c0.13,0.15,0.22,0.33,0.29,0.55c0.07,0.21,0.1,0.45,0.1,0.71v2.9h-0.81v-2.9c0-0.35-0.08-0.61-0.24-0.8
			c-0.16-0.19-0.4-0.29-0.72-0.29c-0.24,0-0.46,0.06-0.66,0.17c-0.21,0.11-0.4,0.27-0.57,0.46v3.36h-0.81v-6.63h0.81V36.69z"/>
		<path d="M52.25,36.89c-0.02,0.03-0.05,0.06-0.07,0.08c-0.02,0.02-0.06,0.03-0.1,0.03c-0.05,0-0.09-0.02-0.15-0.06
			c-0.05-0.04-0.12-0.08-0.2-0.12c-0.08-0.04-0.18-0.09-0.29-0.12s-0.26-0.06-0.43-0.06c-0.22,0-0.42,0.04-0.59,0.12
			s-0.31,0.19-0.43,0.34s-0.2,0.33-0.26,0.54s-0.09,0.45-0.09,0.72c0,0.28,0.03,0.52,0.09,0.74c0.06,0.21,0.15,0.39,0.27,0.54
			s0.25,0.26,0.42,0.33c0.16,0.08,0.35,0.11,0.55,0.11c0.2,0,0.36-0.02,0.48-0.07c0.13-0.05,0.23-0.1,0.31-0.16
			c0.08-0.06,0.15-0.11,0.21-0.16c0.06-0.05,0.11-0.07,0.16-0.07c0.07,0,0.12,0.03,0.15,0.08L52.51,40
			c-0.1,0.12-0.21,0.23-0.34,0.31c-0.13,0.09-0.26,0.16-0.41,0.22c-0.15,0.06-0.3,0.1-0.46,0.13s-0.32,0.04-0.49,0.04
			c-0.28,0-0.55-0.05-0.79-0.16c-0.24-0.1-0.46-0.26-0.64-0.46c-0.18-0.2-0.32-0.44-0.42-0.74s-0.15-0.62-0.15-0.99
			c0-0.34,0.05-0.65,0.14-0.94c0.09-0.29,0.23-0.54,0.41-0.74c0.18-0.21,0.41-0.37,0.67-0.49c0.27-0.12,0.57-0.18,0.92-0.18
			c0.32,0,0.6,0.05,0.85,0.16c0.25,0.1,0.46,0.25,0.65,0.44L52.25,36.89z"/>
		<path d="M53.7,36.72c0.25-0.24,0.52-0.42,0.81-0.54S55.12,36,55.48,36c0.26,0,0.48,0.04,0.68,0.13s0.36,0.2,0.5,0.35
			c0.13,0.15,0.24,0.33,0.31,0.54c0.07,0.21,0.1,0.45,0.1,0.7v2.92h-0.36c-0.08,0-0.14-0.01-0.18-0.04s-0.08-0.08-0.1-0.15
			l-0.09-0.43c-0.12,0.11-0.24,0.21-0.35,0.29c-0.11,0.09-0.23,0.16-0.36,0.22s-0.26,0.1-0.4,0.14c-0.14,0.03-0.3,0.05-0.47,0.05
			c-0.18,0-0.34-0.02-0.5-0.07c-0.16-0.05-0.29-0.12-0.41-0.22s-0.21-0.22-0.27-0.38c-0.07-0.15-0.1-0.33-0.1-0.54
			c0-0.18,0.05-0.35,0.15-0.52c0.1-0.17,0.26-0.31,0.48-0.44c0.22-0.13,0.51-0.23,0.87-0.32c0.36-0.08,0.79-0.13,1.31-0.14v-0.36
			c0-0.35-0.08-0.62-0.23-0.8c-0.15-0.18-0.38-0.27-0.67-0.27c-0.2,0-0.36,0.02-0.5,0.07c-0.13,0.05-0.25,0.11-0.35,0.17
			c-0.1,0.06-0.18,0.12-0.25,0.17c-0.07,0.05-0.14,0.07-0.21,0.07c-0.05,0-0.1-0.01-0.14-0.04c-0.04-0.03-0.07-0.06-0.1-0.11
			L53.7,36.72z M56.28,38.58c-0.37,0.01-0.68,0.04-0.94,0.09c-0.26,0.05-0.47,0.11-0.63,0.18c-0.16,0.08-0.28,0.16-0.36,0.27
			s-0.11,0.22-0.11,0.34c0,0.12,0.02,0.22,0.06,0.31c0.04,0.09,0.09,0.16,0.16,0.21c0.07,0.06,0.15,0.1,0.24,0.12
			s0.19,0.04,0.29,0.04c0.14,0,0.27-0.01,0.39-0.04s0.23-0.07,0.33-0.12c0.1-0.05,0.2-0.12,0.3-0.19c0.09-0.07,0.19-0.16,0.28-0.26
			V38.58z"/>
		<path d="M59.36,36.99c0.14-0.31,0.32-0.56,0.53-0.73C60.1,36.08,60.36,36,60.66,36c0.1,0,0.19,0.01,0.28,0.03
			c0.09,0.02,0.17,0.05,0.24,0.1l-0.06,0.6c-0.02,0.08-0.06,0.11-0.13,0.11c-0.04,0-0.1-0.01-0.18-0.03
			c-0.08-0.02-0.17-0.03-0.27-0.03c-0.14,0-0.27,0.02-0.38,0.06c-0.11,0.04-0.21,0.1-0.3,0.19c-0.09,0.08-0.17,0.18-0.24,0.31
			c-0.07,0.12-0.13,0.26-0.19,0.42v2.88H58.6v-4.56h0.46c0.09,0,0.15,0.02,0.18,0.05c0.03,0.03,0.06,0.09,0.07,0.17L59.36,36.99z"/>
		<path d="M65.87,40c-0.1,0.12-0.22,0.22-0.36,0.31s-0.29,0.16-0.44,0.22c-0.16,0.06-0.32,0.1-0.49,0.13
			c-0.17,0.03-0.33,0.04-0.5,0.04c-0.32,0-0.61-0.05-0.87-0.16s-0.5-0.26-0.69-0.47c-0.19-0.21-0.34-0.46-0.45-0.76
			c-0.11-0.3-0.16-0.65-0.16-1.04c0-0.32,0.05-0.61,0.15-0.89c0.1-0.28,0.24-0.52,0.42-0.72c0.18-0.2,0.41-0.36,0.67-0.48
			c0.26-0.12,0.56-0.17,0.89-0.17c0.27,0,0.53,0.05,0.76,0.14c0.23,0.09,0.43,0.22,0.6,0.4c0.17,0.17,0.3,0.39,0.4,0.64
			c0.1,0.25,0.14,0.54,0.14,0.87c0,0.13-0.01,0.21-0.04,0.25c-0.03,0.04-0.08,0.06-0.15,0.06H62.7c0.01,0.29,0.05,0.54,0.12,0.75
			s0.17,0.39,0.29,0.53s0.28,0.25,0.45,0.32c0.17,0.07,0.37,0.11,0.58,0.11c0.2,0,0.37-0.02,0.52-0.07s0.27-0.1,0.38-0.15
			c0.1-0.05,0.19-0.1,0.26-0.15c0.07-0.05,0.13-0.07,0.18-0.07c0.07,0,0.12,0.03,0.15,0.08L65.87,40z M65.22,37.86
			c0-0.19-0.03-0.36-0.08-0.51c-0.05-0.15-0.13-0.29-0.23-0.4c-0.1-0.11-0.22-0.2-0.37-0.26c-0.14-0.06-0.31-0.09-0.49-0.09
			c-0.38,0-0.69,0.11-0.91,0.34c-0.22,0.22-0.36,0.53-0.42,0.93H65.22z"/>
		<path d="M26.07,56.84h-0.67c-0.08,0-0.14-0.02-0.19-0.06c-0.05-0.04-0.08-0.09-0.11-0.15l-0.6-1.56H21.6l-0.6,1.56
			c-0.02,0.05-0.05,0.1-0.1,0.14s-0.11,0.06-0.19,0.06h-0.68l2.58-6.45h0.88L26.07,56.84z M24.25,54.44l-1.01-2.62
			c-0.03-0.08-0.06-0.17-0.09-0.27s-0.06-0.21-0.09-0.33c-0.06,0.24-0.13,0.45-0.19,0.61l-1.01,2.62H24.25z"/>
		<path d="M28.33,56.91c-0.36,0-0.64-0.1-0.83-0.3c-0.19-0.2-0.29-0.49-0.29-0.87v-2.79h-0.55c-0.05,0-0.09-0.01-0.12-0.04
			c-0.03-0.03-0.05-0.07-0.05-0.13v-0.32l0.75-0.09l0.18-1.41c0.01-0.04,0.03-0.08,0.06-0.11c0.03-0.03,0.07-0.04,0.12-0.04h0.4
			v1.57h1.32v0.58h-1.32v2.74c0,0.19,0.05,0.33,0.14,0.43c0.09,0.09,0.21,0.14,0.36,0.14c0.08,0,0.16-0.01,0.22-0.03
			s0.12-0.05,0.16-0.07c0.04-0.03,0.08-0.05,0.11-0.07c0.03-0.02,0.06-0.03,0.08-0.03c0.04,0,0.08,0.03,0.11,0.08l0.23,0.38
			c-0.14,0.13-0.3,0.23-0.5,0.3C28.74,56.87,28.54,56.91,28.33,56.91z"/>
		<path d="M31.32,52.89c0.2-0.21,0.41-0.37,0.65-0.49s0.51-0.18,0.82-0.18c0.25,0,0.47,0.04,0.66,0.12c0.19,0.08,0.35,0.2,0.48,0.35
			s0.22,0.33,0.29,0.55c0.07,0.21,0.1,0.45,0.1,0.71v2.9h-0.81v-2.9c0-0.35-0.08-0.61-0.24-0.8s-0.4-0.29-0.72-0.29
			c-0.24,0-0.46,0.06-0.66,0.17c-0.21,0.11-0.4,0.27-0.57,0.46v3.36h-0.81v-6.63h0.81V52.89z"/>
		<path d="M36.67,50.21v6.63h-0.8v-6.63H36.67z"/>
		<path d="M41.98,56.2c-0.1,0.12-0.22,0.22-0.36,0.31c-0.14,0.09-0.29,0.16-0.44,0.22s-0.32,0.1-0.49,0.13
			c-0.17,0.03-0.33,0.04-0.5,0.04c-0.31,0-0.6-0.05-0.87-0.16s-0.5-0.26-0.69-0.47c-0.19-0.21-0.34-0.46-0.45-0.76
			c-0.11-0.3-0.16-0.65-0.16-1.04c0-0.32,0.05-0.61,0.15-0.89c0.1-0.28,0.24-0.52,0.42-0.72c0.18-0.2,0.41-0.36,0.67-0.48
			c0.26-0.12,0.56-0.17,0.89-0.17c0.27,0,0.53,0.05,0.76,0.14c0.23,0.09,0.43,0.22,0.6,0.4c0.17,0.17,0.3,0.39,0.4,0.64
			c0.1,0.25,0.14,0.54,0.14,0.87c0,0.13-0.01,0.21-0.04,0.25s-0.08,0.06-0.15,0.06h-3.05c0.01,0.29,0.05,0.54,0.12,0.75
			s0.17,0.39,0.29,0.53s0.28,0.25,0.45,0.32c0.17,0.07,0.37,0.11,0.58,0.11c0.2,0,0.38-0.02,0.52-0.07s0.27-0.1,0.38-0.15
			c0.11-0.05,0.19-0.1,0.26-0.15c0.07-0.05,0.13-0.07,0.18-0.07c0.07,0,0.12,0.03,0.15,0.08L41.98,56.2z M41.33,54.06
			c0-0.19-0.03-0.36-0.08-0.51c-0.05-0.15-0.13-0.29-0.23-0.4c-0.1-0.11-0.22-0.2-0.37-0.26s-0.31-0.09-0.49-0.09
			c-0.38,0-0.69,0.11-0.91,0.34c-0.22,0.22-0.36,0.53-0.42,0.93H41.33z"/>
		<path d="M47.58,56.84h-0.8v-3.89h-2.35v2.74c0,0.19,0.05,0.33,0.14,0.43c0.09,0.09,0.21,0.14,0.36,0.14
			c0.08,0,0.16-0.01,0.22-0.03s0.12-0.05,0.16-0.07c0.04-0.03,0.08-0.05,0.11-0.07c0.03-0.02,0.06-0.03,0.08-0.03
			c0.04,0,0.08,0.03,0.11,0.08l0.23,0.38c-0.14,0.13-0.3,0.23-0.5,0.3c-0.2,0.07-0.4,0.11-0.6,0.11c-0.36,0-0.64-0.1-0.83-0.3
			c-0.19-0.2-0.29-0.49-0.29-0.87v-2.79h-0.55c-0.05,0-0.09-0.01-0.12-0.04c-0.03-0.03-0.05-0.07-0.05-0.13v-0.32l0.75-0.1l0.18-1.4
			c0.01-0.04,0.03-0.08,0.06-0.11c0.03-0.03,0.07-0.04,0.12-0.04h0.4v1.57h3.15V56.84z M47.78,50.82c0,0.08-0.02,0.15-0.05,0.22
			c-0.03,0.07-0.07,0.13-0.13,0.18c-0.05,0.05-0.11,0.09-0.18,0.12c-0.07,0.03-0.14,0.04-0.22,0.04s-0.15-0.02-0.22-0.04
			c-0.07-0.03-0.13-0.07-0.18-0.12c-0.05-0.05-0.09-0.11-0.12-0.18s-0.04-0.14-0.04-0.22s0.01-0.15,0.04-0.22s0.07-0.13,0.12-0.18
			c0.05-0.05,0.11-0.09,0.18-0.12c0.07-0.03,0.14-0.05,0.22-0.05s0.15,0.02,0.22,0.05c0.07,0.03,0.13,0.07,0.18,0.12
			c0.05,0.05,0.09,0.11,0.13,0.18C47.76,50.66,47.78,50.74,47.78,50.82z"/>
		<path d="M52.38,53.09c-0.02,0.03-0.05,0.06-0.07,0.08c-0.02,0.02-0.06,0.03-0.1,0.03c-0.05,0-0.09-0.02-0.15-0.06
			c-0.05-0.04-0.12-0.08-0.2-0.12c-0.08-0.04-0.18-0.09-0.29-0.12s-0.26-0.06-0.43-0.06c-0.22,0-0.42,0.04-0.59,0.12
			s-0.31,0.19-0.43,0.34s-0.2,0.33-0.26,0.54s-0.09,0.45-0.09,0.72c0,0.28,0.03,0.52,0.09,0.74c0.06,0.21,0.15,0.39,0.27,0.54
			s0.25,0.26,0.42,0.33c0.16,0.08,0.35,0.11,0.55,0.11c0.2,0,0.36-0.02,0.48-0.07c0.13-0.05,0.23-0.1,0.31-0.16
			c0.08-0.06,0.15-0.11,0.21-0.16c0.06-0.05,0.11-0.07,0.16-0.07c0.07,0,0.12,0.03,0.15,0.08l0.22,0.29
			c-0.1,0.12-0.21,0.23-0.34,0.31c-0.13,0.09-0.26,0.16-0.41,0.22c-0.15,0.06-0.3,0.1-0.46,0.13s-0.32,0.04-0.49,0.04
			c-0.28,0-0.55-0.05-0.79-0.16c-0.24-0.1-0.46-0.26-0.64-0.46c-0.18-0.2-0.32-0.44-0.42-0.74s-0.15-0.62-0.15-0.99
			c0-0.34,0.05-0.65,0.14-0.94c0.09-0.29,0.23-0.54,0.41-0.74c0.18-0.21,0.41-0.37,0.67-0.49c0.27-0.12,0.57-0.18,0.92-0.18
			c0.32,0,0.6,0.05,0.85,0.16c0.25,0.1,0.46,0.25,0.65,0.44L52.38,53.09z"/>
		<path d="M56.61,53.03c-0.04,0.07-0.09,0.1-0.17,0.1c-0.04,0-0.1-0.02-0.15-0.05c-0.06-0.03-0.13-0.07-0.21-0.11
			c-0.08-0.04-0.18-0.08-0.29-0.11c-0.11-0.03-0.25-0.05-0.41-0.05c-0.13,0-0.26,0.02-0.36,0.05c-0.11,0.03-0.2,0.08-0.28,0.14
			c-0.08,0.06-0.14,0.13-0.18,0.21c-0.04,0.08-0.06,0.17-0.06,0.26c0,0.12,0.03,0.21,0.1,0.29c0.07,0.08,0.16,0.15,0.27,0.2
			c0.11,0.06,0.24,0.11,0.38,0.15c0.14,0.04,0.29,0.09,0.43,0.14c0.15,0.05,0.29,0.1,0.43,0.16c0.14,0.06,0.27,0.13,0.38,0.23
			c0.11,0.09,0.2,0.2,0.27,0.33s0.1,0.29,0.1,0.47c0,0.21-0.04,0.4-0.11,0.58c-0.08,0.18-0.19,0.33-0.33,0.46
			c-0.15,0.13-0.33,0.23-0.54,0.31c-0.21,0.08-0.46,0.11-0.74,0.11c-0.32,0-0.61-0.05-0.86-0.15c-0.26-0.1-0.48-0.24-0.66-0.4
			l0.19-0.31c0.02-0.04,0.05-0.07,0.09-0.09c0.03-0.02,0.07-0.03,0.13-0.03c0.05,0,0.11,0.02,0.17,0.06
			c0.06,0.04,0.13,0.09,0.22,0.14c0.09,0.05,0.19,0.1,0.31,0.14s0.28,0.06,0.46,0.06c0.16,0,0.29-0.02,0.41-0.06s0.21-0.1,0.29-0.16
			s0.14-0.15,0.17-0.24c0.04-0.09,0.06-0.19,0.06-0.29c0-0.13-0.03-0.23-0.1-0.31s-0.16-0.15-0.27-0.21
			c-0.11-0.06-0.24-0.11-0.38-0.15s-0.29-0.09-0.44-0.14c-0.15-0.05-0.29-0.1-0.44-0.16s-0.27-0.14-0.38-0.23
			c-0.11-0.09-0.2-0.21-0.27-0.34c-0.07-0.14-0.1-0.3-0.1-0.5c0-0.17,0.04-0.34,0.11-0.5c0.07-0.16,0.18-0.3,0.32-0.42
			c0.14-0.12,0.31-0.22,0.51-0.29c0.2-0.07,0.43-0.11,0.69-0.11c0.3,0,0.57,0.05,0.81,0.14c0.24,0.09,0.44,0.22,0.62,0.39
			L56.61,53.03z"/>
		<path d="M24.12,67.6c-0.03,0.04-0.06,0.08-0.09,0.1s-0.07,0.03-0.12,0.03c-0.05,0-0.11-0.03-0.18-0.08
			c-0.07-0.05-0.16-0.11-0.26-0.17s-0.23-0.12-0.37-0.17c-0.15-0.05-0.32-0.08-0.53-0.08c-0.2,0-0.37,0.03-0.51,0.08
			c-0.15,0.05-0.27,0.12-0.37,0.21s-0.18,0.2-0.23,0.32c-0.05,0.12-0.08,0.25-0.08,0.39c0,0.18,0.04,0.33,0.13,0.45
			s0.21,0.22,0.35,0.3s0.31,0.16,0.5,0.22s0.37,0.13,0.57,0.19s0.38,0.14,0.57,0.22c0.18,0.08,0.35,0.19,0.5,0.31
			s0.26,0.28,0.35,0.46c0.09,0.18,0.13,0.41,0.13,0.67c0,0.28-0.05,0.55-0.14,0.79c-0.1,0.25-0.24,0.46-0.42,0.65
			s-0.41,0.33-0.68,0.43c-0.27,0.1-0.57,0.16-0.92,0.16c-0.42,0-0.8-0.08-1.14-0.23c-0.34-0.15-0.63-0.36-0.88-0.61l0.25-0.41
			c0.02-0.03,0.05-0.06,0.09-0.08c0.03-0.02,0.07-0.03,0.11-0.03c0.04,0,0.08,0.02,0.13,0.05c0.05,0.03,0.11,0.07,0.17,0.12
			c0.06,0.05,0.13,0.1,0.22,0.16s0.17,0.11,0.28,0.16c0.1,0.05,0.22,0.09,0.35,0.12c0.13,0.03,0.28,0.05,0.45,0.05
			c0.21,0,0.39-0.03,0.55-0.09c0.16-0.06,0.3-0.14,0.41-0.24c0.11-0.1,0.2-0.23,0.26-0.37c0.06-0.14,0.09-0.3,0.09-0.48
			c0-0.19-0.04-0.35-0.13-0.48s-0.21-0.23-0.35-0.31s-0.31-0.16-0.5-0.21c-0.19-0.06-0.38-0.12-0.57-0.18
			c-0.19-0.06-0.38-0.13-0.57-0.21c-0.19-0.08-0.35-0.19-0.5-0.31s-0.26-0.29-0.35-0.48c-0.09-0.19-0.13-0.43-0.13-0.72
			c0-0.23,0.04-0.45,0.13-0.66c0.09-0.21,0.22-0.4,0.39-0.57c0.17-0.17,0.38-0.3,0.63-0.4c0.25-0.1,0.53-0.15,0.85-0.15
			c0.36,0,0.69,0.06,0.98,0.17c0.29,0.11,0.56,0.28,0.78,0.5L24.12,67.6z"/>
		<path d="M26.83,67.05c0,0.08-0.02,0.15-0.05,0.22c-0.03,0.07-0.07,0.13-0.13,0.18c-0.05,0.05-0.11,0.09-0.18,0.12
			c-0.07,0.03-0.15,0.04-0.22,0.04c-0.08,0-0.15-0.02-0.22-0.04c-0.07-0.03-0.13-0.07-0.18-0.12c-0.05-0.05-0.09-0.11-0.12-0.18
			c-0.03-0.07-0.05-0.14-0.05-0.22c0-0.08,0.02-0.15,0.05-0.22c0.03-0.07,0.07-0.13,0.12-0.18c0.05-0.05,0.11-0.09,0.18-0.12
			c0.07-0.03,0.14-0.04,0.22-0.04c0.08,0,0.15,0.02,0.22,0.04c0.07,0.03,0.13,0.07,0.18,0.12c0.05,0.05,0.09,0.11,0.13,0.18
			C26.81,66.9,26.83,66.97,26.83,67.05z M26.66,68.48v4.56h-0.8v-4.56H26.66z"/>
		<path d="M29.02,69.14c0.1-0.11,0.2-0.21,0.32-0.3c0.11-0.09,0.23-0.17,0.35-0.23c0.12-0.06,0.26-0.11,0.4-0.15
			c0.14-0.03,0.29-0.05,0.45-0.05c0.25,0,0.47,0.04,0.66,0.12s0.35,0.2,0.48,0.35c0.13,0.15,0.22,0.33,0.29,0.55
			c0.07,0.21,0.1,0.45,0.1,0.71v2.9h-0.81v-2.9c0-0.35-0.08-0.61-0.24-0.8c-0.16-0.19-0.4-0.29-0.72-0.29
			c-0.24,0-0.46,0.06-0.66,0.17c-0.21,0.11-0.4,0.27-0.57,0.46v3.36h-0.81v-4.56h0.48c0.11,0,0.18,0.06,0.21,0.17L29.02,69.14z"/>
		<path d="M37.44,68.66v0.3c0,0.1-0.06,0.16-0.19,0.19l-0.52,0.07c0.1,0.2,0.15,0.42,0.15,0.66c0,0.22-0.04,0.42-0.13,0.6
			c-0.09,0.18-0.2,0.34-0.35,0.47c-0.15,0.13-0.33,0.23-0.54,0.3c-0.21,0.07-0.44,0.1-0.68,0.1c-0.21,0-0.41-0.03-0.6-0.08
			c-0.1,0.06-0.17,0.12-0.22,0.19c-0.05,0.07-0.08,0.14-0.08,0.2c0,0.11,0.04,0.19,0.13,0.25c0.09,0.06,0.21,0.1,0.35,0.12
			c0.14,0.02,0.31,0.04,0.49,0.05c0.18,0.01,0.37,0.02,0.57,0.03c0.19,0.01,0.38,0.04,0.57,0.07c0.18,0.03,0.35,0.09,0.49,0.16
			c0.14,0.08,0.26,0.18,0.35,0.31c0.09,0.13,0.13,0.3,0.13,0.51c0,0.19-0.05,0.38-0.15,0.57s-0.24,0.35-0.42,0.49
			c-0.18,0.14-0.41,0.26-0.67,0.34s-0.56,0.13-0.9,0.13s-0.62-0.03-0.87-0.1s-0.46-0.15-0.62-0.27c-0.17-0.11-0.29-0.24-0.37-0.38
			c-0.08-0.15-0.12-0.3-0.12-0.46c0-0.23,0.07-0.42,0.21-0.57c0.14-0.16,0.33-0.28,0.58-0.37c-0.13-0.06-0.24-0.14-0.32-0.24
			c-0.08-0.1-0.12-0.24-0.12-0.41c0-0.07,0.01-0.13,0.04-0.2c0.02-0.07,0.06-0.14,0.11-0.21s0.11-0.14,0.18-0.2
			c0.07-0.06,0.16-0.12,0.25-0.17c-0.23-0.13-0.4-0.29-0.53-0.5s-0.19-0.45-0.19-0.73c0-0.22,0.04-0.42,0.13-0.61
			c0.09-0.18,0.21-0.34,0.36-0.46c0.15-0.13,0.33-0.23,0.55-0.29c0.21-0.07,0.44-0.1,0.7-0.1c0.2,0,0.38,0.02,0.55,0.06
			s0.33,0.11,0.47,0.19H37.44z M36.62,73.28c0-0.11-0.03-0.2-0.09-0.27s-0.15-0.12-0.25-0.16s-0.23-0.07-0.37-0.08
			c-0.14-0.02-0.29-0.03-0.45-0.04c-0.16-0.01-0.32-0.02-0.48-0.03s-0.32-0.02-0.47-0.04c-0.17,0.08-0.31,0.18-0.41,0.29
			c-0.11,0.12-0.16,0.26-0.16,0.42c0,0.1,0.03,0.2,0.08,0.29c0.05,0.09,0.13,0.17,0.24,0.23s0.24,0.12,0.41,0.15
			c0.16,0.04,0.36,0.06,0.58,0.06c0.22,0,0.41-0.02,0.58-0.06c0.17-0.04,0.32-0.09,0.43-0.17c0.12-0.07,0.21-0.16,0.27-0.26
			C36.59,73.51,36.62,73.4,36.62,73.28z M35.18,70.81c0.16,0,0.3-0.02,0.43-0.07s0.23-0.11,0.31-0.19s0.15-0.18,0.19-0.29
			c0.04-0.11,0.06-0.24,0.06-0.37c0-0.28-0.08-0.5-0.25-0.67s-0.42-0.25-0.74-0.25c-0.32,0-0.57,0.08-0.74,0.25
			c-0.17,0.17-0.25,0.39-0.25,0.67c0,0.13,0.02,0.26,0.07,0.37c0.04,0.11,0.11,0.21,0.19,0.29s0.19,0.14,0.31,0.19
			S35.02,70.81,35.18,70.81z"/>
		<path d="M39.39,66.41v6.63h-0.8v-6.63H39.39z"/>
		<path d="M44.7,72.4c-0.1,0.12-0.22,0.22-0.36,0.31c-0.14,0.09-0.29,0.16-0.44,0.22s-0.32,0.1-0.49,0.13
			c-0.17,0.03-0.33,0.04-0.5,0.04c-0.31,0-0.6-0.05-0.87-0.16s-0.5-0.26-0.69-0.47c-0.19-0.21-0.34-0.46-0.45-0.76
			c-0.11-0.3-0.16-0.65-0.16-1.04c0-0.32,0.05-0.61,0.15-0.89c0.1-0.28,0.24-0.52,0.42-0.72c0.18-0.2,0.41-0.36,0.67-0.48
			c0.26-0.12,0.56-0.17,0.89-0.17c0.27,0,0.53,0.05,0.76,0.14c0.23,0.09,0.43,0.22,0.6,0.4c0.17,0.17,0.3,0.39,0.4,0.64
			c0.1,0.25,0.14,0.54,0.14,0.87c0,0.13-0.01,0.21-0.04,0.25s-0.08,0.06-0.15,0.06h-3.05c0.01,0.29,0.05,0.54,0.12,0.75
			s0.17,0.39,0.29,0.53s0.28,0.25,0.45,0.32c0.17,0.07,0.37,0.11,0.58,0.11c0.2,0,0.38-0.02,0.52-0.07s0.27-0.1,0.38-0.15
			c0.11-0.05,0.19-0.1,0.26-0.15c0.07-0.05,0.13-0.07,0.18-0.07c0.07,0,0.12,0.03,0.15,0.08L44.7,72.4z M44.06,70.26
			c0-0.19-0.03-0.36-0.08-0.51c-0.05-0.15-0.13-0.29-0.23-0.4c-0.1-0.11-0.22-0.2-0.37-0.26S43.07,69,42.89,69
			c-0.38,0-0.69,0.11-0.91,0.34c-0.22,0.22-0.36,0.53-0.42,0.93H44.06z"/>
		<path d="M45.98,70h2.22v0.68h-2.22V70z"/>
		<path d="M52.31,69.23c-0.04,0.07-0.09,0.1-0.17,0.1c-0.04,0-0.1-0.02-0.15-0.05c-0.06-0.03-0.13-0.07-0.21-0.11
			c-0.08-0.04-0.18-0.08-0.29-0.11C51.37,69.02,51.23,69,51.08,69c-0.13,0-0.26,0.02-0.36,0.05c-0.11,0.03-0.2,0.08-0.28,0.14
			c-0.08,0.06-0.14,0.13-0.18,0.21c-0.04,0.08-0.06,0.17-0.06,0.26c0,0.12,0.03,0.21,0.1,0.29c0.07,0.08,0.16,0.15,0.27,0.2
			c0.11,0.06,0.24,0.11,0.38,0.15c0.14,0.04,0.29,0.09,0.43,0.14c0.15,0.05,0.29,0.1,0.43,0.16c0.14,0.06,0.27,0.13,0.38,0.23
			c0.11,0.09,0.2,0.2,0.27,0.33s0.1,0.29,0.1,0.47c0,0.21-0.04,0.4-0.11,0.58c-0.08,0.18-0.19,0.33-0.33,0.46
			c-0.15,0.13-0.33,0.23-0.54,0.31c-0.21,0.08-0.46,0.11-0.74,0.11c-0.32,0-0.61-0.05-0.86-0.15c-0.26-0.1-0.48-0.24-0.66-0.4
			l0.19-0.31c0.02-0.04,0.05-0.07,0.09-0.09c0.03-0.02,0.07-0.03,0.13-0.03c0.05,0,0.11,0.02,0.17,0.06
			c0.06,0.04,0.13,0.09,0.22,0.14c0.09,0.05,0.19,0.1,0.31,0.14s0.28,0.06,0.46,0.06c0.16,0,0.29-0.02,0.41-0.06s0.21-0.1,0.29-0.16
			s0.14-0.15,0.17-0.24c0.04-0.09,0.06-0.19,0.06-0.29c0-0.13-0.03-0.23-0.1-0.31s-0.16-0.15-0.27-0.21
			c-0.11-0.06-0.24-0.11-0.38-0.15s-0.29-0.09-0.44-0.14c-0.15-0.05-0.29-0.1-0.44-0.16s-0.27-0.14-0.38-0.23
			c-0.11-0.09-0.2-0.21-0.27-0.34c-0.07-0.14-0.1-0.3-0.1-0.5c0-0.17,0.04-0.34,0.11-0.5c0.07-0.16,0.18-0.3,0.32-0.42
			c0.14-0.12,0.31-0.22,0.51-0.29c0.2-0.07,0.43-0.11,0.69-0.11c0.3,0,0.57,0.05,0.81,0.14c0.24,0.09,0.44,0.22,0.62,0.39
			L52.31,69.23z"/>
		<path d="M57.57,72.4c-0.1,0.12-0.22,0.22-0.36,0.31c-0.14,0.09-0.29,0.16-0.44,0.22s-0.32,0.1-0.49,0.13
			c-0.17,0.03-0.33,0.04-0.5,0.04c-0.31,0-0.6-0.05-0.87-0.16s-0.5-0.26-0.69-0.47c-0.19-0.21-0.34-0.46-0.45-0.76
			c-0.11-0.3-0.16-0.65-0.16-1.04c0-0.32,0.05-0.61,0.15-0.89c0.1-0.28,0.24-0.52,0.42-0.72c0.18-0.2,0.41-0.36,0.67-0.48
			c0.26-0.12,0.56-0.17,0.89-0.17c0.27,0,0.53,0.05,0.76,0.14c0.23,0.09,0.43,0.22,0.6,0.4c0.17,0.17,0.3,0.39,0.4,0.64
			c0.1,0.25,0.14,0.54,0.14,0.87c0,0.13-0.01,0.21-0.04,0.25s-0.08,0.06-0.15,0.06H54.4c0.01,0.29,0.05,0.54,0.12,0.75
			s0.17,0.39,0.29,0.53s0.28,0.25,0.45,0.32c0.17,0.07,0.37,0.11,0.58,0.11c0.2,0,0.38-0.02,0.52-0.07s0.27-0.1,0.38-0.15
			c0.11-0.05,0.19-0.1,0.26-0.15c0.07-0.05,0.13-0.07,0.18-0.07c0.07,0,0.12,0.03,0.15,0.08L57.57,72.4z M56.92,70.26
			c0-0.19-0.03-0.36-0.08-0.51c-0.05-0.15-0.13-0.29-0.23-0.4c-0.1-0.11-0.22-0.2-0.37-0.26S55.94,69,55.76,69
			c-0.38,0-0.69,0.11-0.91,0.34c-0.22,0.22-0.36,0.53-0.42,0.93H56.92z"/>
		<path d="M62.67,73.04H61.9c-0.07,0-0.12-0.02-0.16-0.05c-0.04-0.03-0.07-0.07-0.09-0.11l-1.15-1.79
			c-0.01,0.04-0.02,0.08-0.04,0.12s-0.03,0.08-0.06,0.11l-1.06,1.55c-0.03,0.04-0.06,0.08-0.1,0.11c-0.04,0.03-0.08,0.05-0.14,0.05
			H58.4l1.6-2.34l-1.54-2.22h0.77c0.07,0,0.11,0.01,0.14,0.03c0.03,0.02,0.06,0.05,0.08,0.09l1.12,1.71
			c0.02-0.09,0.06-0.17,0.11-0.25l0.98-1.44c0.03-0.04,0.06-0.08,0.09-0.1c0.03-0.03,0.07-0.04,0.11-0.04h0.74l-1.54,2.18
			L62.67,73.04z"/>
		<path d="M66.46,73.04v-3.87l-0.5-0.06c-0.06-0.01-0.12-0.04-0.16-0.07c-0.04-0.03-0.06-0.08-0.06-0.14v-0.33h0.72v-0.44
			c0-0.26,0.04-0.49,0.11-0.7c0.07-0.2,0.18-0.37,0.31-0.51s0.3-0.25,0.49-0.32c0.19-0.07,0.41-0.11,0.65-0.11
			c0.2,0,0.39,0.03,0.56,0.09l-0.02,0.4c-0.01,0.07-0.05,0.11-0.12,0.12c-0.07,0.01-0.17,0.01-0.29,0.01
			c-0.14,0-0.26,0.02-0.38,0.05s-0.21,0.09-0.29,0.18c-0.08,0.08-0.14,0.19-0.19,0.32c-0.04,0.13-0.07,0.3-0.07,0.49v0.42h1.31v0.58
			h-1.29v3.89H66.46z"/>
		<path d="M69.59,69.12c0.25-0.24,0.52-0.42,0.81-0.54s0.61-0.18,0.97-0.18c0.25,0,0.48,0.04,0.68,0.13c0.2,0.08,0.36,0.2,0.5,0.35
			s0.24,0.33,0.31,0.54c0.07,0.21,0.1,0.45,0.1,0.7v2.92h-0.36c-0.08,0-0.14-0.01-0.18-0.04s-0.08-0.08-0.1-0.15l-0.09-0.43
			c-0.12,0.11-0.24,0.21-0.35,0.29s-0.23,0.16-0.36,0.22s-0.26,0.1-0.4,0.14c-0.14,0.03-0.3,0.05-0.47,0.05
			c-0.18,0-0.34-0.02-0.5-0.07c-0.16-0.05-0.29-0.12-0.41-0.22c-0.12-0.1-0.21-0.22-0.28-0.38c-0.07-0.15-0.1-0.33-0.1-0.54
			c0-0.18,0.05-0.35,0.15-0.52c0.1-0.17,0.26-0.31,0.48-0.44s0.51-0.23,0.87-0.32c0.36-0.08,0.79-0.13,1.31-0.14v-0.36
			c0-0.35-0.08-0.62-0.23-0.8c-0.15-0.18-0.38-0.27-0.67-0.27c-0.2,0-0.36,0.02-0.5,0.07c-0.13,0.05-0.25,0.11-0.35,0.17
			c-0.1,0.06-0.18,0.12-0.25,0.17c-0.07,0.05-0.14,0.07-0.21,0.07c-0.05,0-0.1-0.01-0.14-0.04s-0.07-0.06-0.1-0.11L69.59,69.12z
			 M72.18,70.99c-0.37,0.01-0.68,0.04-0.94,0.09c-0.26,0.05-0.47,0.11-0.63,0.18c-0.16,0.08-0.28,0.16-0.36,0.27
			c-0.07,0.1-0.11,0.22-0.11,0.34c0,0.12,0.02,0.22,0.06,0.31c0.04,0.09,0.09,0.16,0.16,0.21c0.07,0.06,0.15,0.1,0.24,0.12
			c0.09,0.03,0.19,0.04,0.29,0.04c0.14,0,0.27-0.01,0.39-0.04c0.12-0.03,0.23-0.07,0.33-0.12c0.1-0.05,0.2-0.12,0.3-0.19
			c0.09-0.07,0.19-0.16,0.28-0.26V70.99z"/>
		<path d="M77.69,69.29c-0.02,0.03-0.05,0.06-0.07,0.08c-0.02,0.02-0.06,0.03-0.1,0.03c-0.05,0-0.09-0.02-0.15-0.06
			c-0.05-0.04-0.12-0.08-0.2-0.12c-0.08-0.04-0.18-0.09-0.29-0.12s-0.26-0.06-0.43-0.06c-0.22,0-0.42,0.04-0.59,0.12
			s-0.31,0.19-0.43,0.34s-0.2,0.33-0.26,0.54s-0.09,0.45-0.09,0.72c0,0.28,0.03,0.52,0.09,0.74c0.06,0.21,0.15,0.39,0.27,0.54
			s0.25,0.26,0.42,0.33c0.16,0.08,0.35,0.11,0.55,0.11c0.2,0,0.36-0.02,0.48-0.07c0.13-0.05,0.23-0.1,0.31-0.16
			c0.08-0.06,0.15-0.11,0.21-0.16c0.06-0.05,0.11-0.07,0.16-0.07c0.07,0,0.12,0.03,0.15,0.08l0.22,0.29
			c-0.1,0.12-0.21,0.23-0.34,0.31c-0.13,0.09-0.26,0.16-0.41,0.22c-0.15,0.06-0.3,0.1-0.46,0.13s-0.32,0.04-0.49,0.04
			c-0.28,0-0.55-0.05-0.79-0.16c-0.24-0.1-0.46-0.26-0.64-0.46c-0.18-0.2-0.32-0.44-0.42-0.74s-0.15-0.62-0.15-0.99
			c0-0.34,0.05-0.65,0.14-0.94c0.09-0.29,0.23-0.54,0.41-0.74c0.18-0.21,0.41-0.37,0.67-0.49c0.27-0.12,0.57-0.18,0.92-0.18
			c0.32,0,0.6,0.05,0.85,0.16c0.25,0.1,0.46,0.25,0.65,0.44L77.69,69.29z"/>
		<path d="M80.1,67.05c0,0.08-0.02,0.15-0.05,0.22c-0.03,0.07-0.07,0.13-0.13,0.18c-0.05,0.05-0.11,0.09-0.18,0.12
			c-0.07,0.03-0.14,0.04-0.22,0.04s-0.15-0.02-0.22-0.04c-0.07-0.03-0.13-0.07-0.18-0.12c-0.05-0.05-0.09-0.11-0.12-0.18
			c-0.03-0.07-0.04-0.14-0.04-0.22c0-0.08,0.01-0.15,0.04-0.22c0.03-0.07,0.07-0.13,0.12-0.18c0.05-0.05,0.11-0.09,0.18-0.12
			c0.07-0.03,0.14-0.04,0.22-0.04s0.15,0.02,0.22,0.04c0.07,0.03,0.13,0.07,0.18,0.12c0.05,0.05,0.09,0.11,0.13,0.18
			C80.09,66.9,80.1,66.97,80.1,67.05z M79.93,68.48v4.56h-0.8v-4.56H79.93z"/>
		<path d="M82.35,66.41v6.63h-0.8v-6.63H82.35z"/>
		<path d="M84.93,67.05c0,0.08-0.02,0.15-0.05,0.22c-0.03,0.07-0.07,0.13-0.13,0.18c-0.05,0.05-0.11,0.09-0.18,0.12
			c-0.07,0.03-0.15,0.04-0.22,0.04c-0.08,0-0.15-0.02-0.22-0.04c-0.07-0.03-0.13-0.07-0.18-0.12c-0.05-0.05-0.09-0.11-0.12-0.18
			c-0.03-0.07-0.05-0.14-0.05-0.22c0-0.08,0.02-0.15,0.05-0.22c0.03-0.07,0.07-0.13,0.12-0.18c0.05-0.05,0.11-0.09,0.18-0.12
			c0.07-0.03,0.14-0.04,0.22-0.04c0.08,0,0.15,0.02,0.22,0.04c0.07,0.03,0.13,0.07,0.18,0.12c0.05,0.05,0.09,0.11,0.13,0.18
			C84.92,66.9,84.93,66.97,84.93,67.05z M84.76,68.48v4.56h-0.8v-4.56H84.76z"/>
		<path d="M90.61,73.04h-0.8v-3.89h-2.35v2.74c0,0.19,0.05,0.33,0.14,0.43c0.09,0.09,0.21,0.14,0.36,0.14
			c0.08,0,0.16-0.01,0.22-0.03s0.12-0.05,0.16-0.07c0.04-0.03,0.08-0.05,0.11-0.07c0.03-0.02,0.06-0.03,0.08-0.03
			c0.04,0,0.08,0.03,0.11,0.08l0.23,0.38c-0.14,0.13-0.3,0.23-0.5,0.3c-0.2,0.07-0.4,0.11-0.6,0.11c-0.36,0-0.64-0.1-0.83-0.3
			c-0.19-0.2-0.29-0.49-0.29-0.87v-2.79h-0.55c-0.05,0-0.09-0.01-0.12-0.04c-0.03-0.03-0.05-0.07-0.05-0.13v-0.32l0.75-0.1l0.18-1.4
			c0.01-0.04,0.03-0.08,0.06-0.11c0.03-0.03,0.07-0.04,0.12-0.04h0.4v1.57h3.15V73.04z M90.81,67.02c0,0.08-0.02,0.15-0.05,0.22
			c-0.03,0.07-0.07,0.13-0.13,0.18c-0.05,0.05-0.11,0.09-0.18,0.12c-0.07,0.03-0.14,0.04-0.22,0.04s-0.15-0.02-0.22-0.04
			c-0.07-0.03-0.13-0.07-0.18-0.12c-0.05-0.05-0.09-0.11-0.12-0.18s-0.04-0.14-0.04-0.22s0.01-0.15,0.04-0.22s0.07-0.13,0.12-0.18
			c0.05-0.05,0.11-0.09,0.18-0.12c0.07-0.03,0.14-0.05,0.22-0.05s0.15,0.02,0.22,0.05c0.07,0.03,0.13,0.07,0.18,0.12
			c0.05,0.05,0.09,0.11,0.13,0.18C90.8,66.86,90.81,66.94,90.81,67.02z"/>
		<path d="M95.93,72.4c-0.1,0.12-0.22,0.22-0.36,0.31s-0.29,0.16-0.44,0.22c-0.16,0.06-0.32,0.1-0.49,0.13
			c-0.17,0.03-0.33,0.04-0.5,0.04c-0.32,0-0.61-0.05-0.87-0.16s-0.5-0.26-0.69-0.47c-0.19-0.21-0.34-0.46-0.45-0.76
			c-0.11-0.3-0.16-0.65-0.16-1.04c0-0.32,0.05-0.61,0.15-0.89c0.1-0.28,0.24-0.52,0.42-0.72c0.18-0.2,0.41-0.36,0.67-0.48
			c0.26-0.12,0.56-0.17,0.89-0.17c0.27,0,0.53,0.05,0.76,0.14c0.23,0.09,0.43,0.22,0.6,0.4c0.17,0.17,0.3,0.39,0.4,0.64
			c0.1,0.25,0.14,0.54,0.14,0.87c0,0.13-0.01,0.21-0.04,0.25c-0.03,0.04-0.08,0.06-0.15,0.06h-3.05c0.01,0.29,0.05,0.54,0.12,0.75
			s0.17,0.39,0.29,0.53s0.28,0.25,0.45,0.32c0.17,0.07,0.37,0.11,0.58,0.11c0.2,0,0.37-0.02,0.52-0.07s0.27-0.1,0.38-0.15
			c0.1-0.05,0.19-0.1,0.26-0.15c0.07-0.05,0.13-0.07,0.18-0.07c0.07,0,0.12,0.03,0.15,0.08L95.93,72.4z M95.28,70.26
			c0-0.19-0.03-0.36-0.08-0.51c-0.05-0.15-0.13-0.29-0.23-0.4c-0.1-0.11-0.22-0.2-0.37-0.26C94.46,69.03,94.3,69,94.11,69
			c-0.38,0-0.69,0.11-0.91,0.34c-0.22,0.22-0.36,0.53-0.42,0.93H95.28z"/>
		<path d="M99.99,69.23c-0.04,0.07-0.09,0.1-0.17,0.1c-0.04,0-0.1-0.02-0.15-0.05c-0.06-0.03-0.13-0.07-0.21-0.11
			c-0.08-0.04-0.18-0.08-0.29-0.11C99.05,69.02,98.92,69,98.76,69c-0.13,0-0.26,0.02-0.36,0.05c-0.11,0.03-0.2,0.08-0.28,0.14
			c-0.08,0.06-0.14,0.13-0.18,0.21c-0.04,0.08-0.06,0.17-0.06,0.26c0,0.12,0.03,0.21,0.1,0.29c0.07,0.08,0.16,0.15,0.27,0.2
			c0.11,0.06,0.24,0.11,0.38,0.15c0.14,0.04,0.29,0.09,0.43,0.14c0.15,0.05,0.29,0.1,0.43,0.16c0.14,0.06,0.27,0.13,0.38,0.23
			c0.11,0.09,0.2,0.2,0.27,0.33s0.1,0.29,0.1,0.47c0,0.21-0.04,0.4-0.11,0.58c-0.08,0.18-0.19,0.33-0.33,0.46
			c-0.15,0.13-0.33,0.23-0.54,0.31c-0.21,0.08-0.46,0.11-0.74,0.11c-0.32,0-0.61-0.05-0.86-0.15c-0.26-0.1-0.48-0.24-0.66-0.4
			l0.19-0.31c0.02-0.04,0.05-0.07,0.09-0.09c0.03-0.02,0.07-0.03,0.13-0.03c0.05,0,0.11,0.02,0.17,0.06
			c0.06,0.04,0.13,0.09,0.22,0.14c0.09,0.05,0.19,0.1,0.31,0.14s0.28,0.06,0.46,0.06c0.16,0,0.29-0.02,0.41-0.06s0.21-0.1,0.29-0.16
			s0.14-0.15,0.17-0.24c0.04-0.09,0.06-0.19,0.06-0.29c0-0.13-0.03-0.23-0.1-0.31s-0.16-0.15-0.27-0.21
			c-0.11-0.06-0.24-0.11-0.38-0.15s-0.29-0.09-0.44-0.14c-0.15-0.05-0.29-0.1-0.44-0.16s-0.27-0.14-0.38-0.23
			c-0.11-0.09-0.2-0.21-0.27-0.34c-0.07-0.14-0.1-0.3-0.1-0.5c0-0.17,0.04-0.34,0.11-0.5c0.07-0.16,0.18-0.3,0.32-0.42
			c0.14-0.12,0.31-0.22,0.51-0.29c0.2-0.07,0.43-0.11,0.69-0.11c0.3,0,0.57,0.05,0.81,0.14c0.24,0.09,0.44,0.22,0.62,0.39
			L99.99,69.23z"/>
	</g>
	<g>
		<path d="M22.58,13.88h0.38c0.15,0,0.28-0.02,0.38-0.06s0.19-0.11,0.26-0.2l2.39-3.03c0.1-0.13,0.21-0.22,0.31-0.27
			c0.11-0.05,0.25-0.07,0.42-0.07h1.39l-2.92,3.61c-0.17,0.22-0.35,0.38-0.53,0.47c0.13,0.05,0.25,0.12,0.36,0.2
			c0.11,0.09,0.21,0.2,0.3,0.34l3.01,4.06h-1.42c-0.19,0-0.34-0.03-0.43-0.08c-0.09-0.05-0.17-0.13-0.24-0.24l-2.45-3.2
			c-0.08-0.11-0.16-0.18-0.26-0.23c-0.1-0.04-0.24-0.07-0.43-0.07h-0.51v3.82h-1.61v-8.68h1.61V13.88z"/>
		<path d="M30.07,16.02c0.02,0.32,0.08,0.59,0.17,0.82c0.09,0.23,0.2,0.42,0.35,0.57c0.14,0.15,0.31,0.26,0.51,0.34
			c0.2,0.07,0.42,0.11,0.66,0.11c0.24,0,0.45-0.03,0.62-0.08c0.17-0.06,0.33-0.12,0.46-0.19c0.13-0.07,0.24-0.13,0.34-0.19
			c0.1-0.06,0.19-0.08,0.29-0.08c0.12,0,0.22,0.05,0.28,0.14L34.16,18c-0.16,0.19-0.35,0.35-0.55,0.48s-0.42,0.23-0.64,0.31
			c-0.22,0.08-0.45,0.13-0.68,0.17c-0.23,0.03-0.45,0.05-0.67,0.05c-0.43,0-0.83-0.07-1.19-0.21c-0.37-0.14-0.69-0.35-0.96-0.63
			c-0.27-0.28-0.49-0.62-0.64-1.03c-0.16-0.41-0.23-0.88-0.23-1.42c0-0.42,0.07-0.81,0.2-1.19c0.14-0.37,0.33-0.69,0.59-0.97
			s0.56-0.49,0.93-0.65c0.37-0.16,0.78-0.24,1.24-0.24c0.39,0,0.75,0.06,1.07,0.19s0.61,0.31,0.85,0.54
			c0.24,0.24,0.42,0.53,0.56,0.88s0.2,0.74,0.2,1.19c0,0.22-0.02,0.38-0.07,0.45c-0.05,0.08-0.14,0.12-0.28,0.12H30.07z
			 M32.89,15.13c0-0.19-0.03-0.37-0.08-0.54c-0.05-0.17-0.13-0.32-0.24-0.45s-0.25-0.23-0.41-0.3c-0.17-0.07-0.36-0.11-0.58-0.11
			c-0.43,0-0.76,0.12-1.01,0.37c-0.25,0.24-0.4,0.59-0.47,1.04H32.89z"/>
		<path d="M41.05,12.76l-3.35,7.85c-0.04,0.1-0.1,0.18-0.17,0.24c-0.07,0.05-0.18,0.08-0.32,0.08h-1.1l1.15-2.47l-2.49-5.69h1.3
			c0.12,0,0.21,0.03,0.27,0.08c0.07,0.06,0.12,0.12,0.15,0.19l1.31,3.19c0.04,0.11,0.08,0.22,0.11,0.32
			c0.03,0.11,0.06,0.22,0.09,0.33c0.04-0.11,0.07-0.22,0.11-0.33c0.04-0.11,0.08-0.22,0.12-0.33l1.24-3.19
			c0.03-0.08,0.09-0.15,0.16-0.2c0.07-0.05,0.16-0.08,0.25-0.08H41.05z"/>
	</g>
</g>
<g id="state_grid">
</g>
<g id="bills">
	<g id="healthcare">
		<g id="future">
		</g>
		<g id="passed">
		</g>
		<g id="regular">
		</g>
	</g>
	<g id="athletics">
		<g id="regular_1_">
		</g>
		<g id="passed_1_">
		</g>
		<g id="future_1_">
		</g>
	</g>
	<g id="facilities">
	</g>
	<g id="identification">
	</g>
	<g id="other">
	</g>
</g>
<g id="state_names">
</g>
<g id="state_grid_1_">
	<g id="dots">
		<g>
			<circle class="st31" cx="119" cy="37.5" r="4"/>
		</g>
		<circle class="st28" cx="119" cy="53.73" r="4"/>
		<circle class="st29" cx="119" cy="69.95" r="4"/>
		<g>
			<path d="M156.7,40.14h-0.87v-6.45h0.87V40.14z"/>
			<path d="M162.27,33.51v6.63h-0.48c-0.11,0-0.19-0.06-0.22-0.17l-0.07-0.55c-0.2,0.23-0.42,0.42-0.67,0.57s-0.54,0.22-0.86,0.22
				c-0.26,0-0.5-0.05-0.71-0.15c-0.21-0.1-0.39-0.25-0.54-0.44c-0.15-0.2-0.27-0.44-0.35-0.73s-0.12-0.63-0.12-1
				c0-0.34,0.04-0.65,0.13-0.94s0.22-0.54,0.39-0.75s0.37-0.38,0.62-0.5c0.24-0.12,0.52-0.18,0.83-0.18c0.28,0,0.52,0.05,0.72,0.14
				c0.2,0.09,0.38,0.23,0.53,0.39v-2.52H162.27z M161.47,36.66c-0.15-0.2-0.31-0.34-0.49-0.42c-0.17-0.08-0.37-0.12-0.58-0.12
				c-0.42,0-0.75,0.15-0.98,0.45c-0.23,0.3-0.34,0.74-0.34,1.3c0,0.3,0.03,0.55,0.08,0.76c0.05,0.21,0.13,0.39,0.22,0.52
				c0.1,0.14,0.22,0.24,0.36,0.3c0.14,0.06,0.31,0.09,0.49,0.09c0.26,0,0.49-0.06,0.69-0.18c0.2-0.12,0.38-0.29,0.54-0.51V36.66z"/>
			<path d="M167.57,39.5c-0.1,0.12-0.22,0.22-0.36,0.31c-0.14,0.09-0.29,0.16-0.44,0.22s-0.32,0.1-0.49,0.13
				c-0.17,0.03-0.33,0.04-0.5,0.04c-0.31,0-0.6-0.05-0.87-0.16s-0.5-0.26-0.69-0.47c-0.19-0.21-0.34-0.46-0.45-0.76
				c-0.11-0.3-0.16-0.65-0.16-1.04c0-0.32,0.05-0.61,0.15-0.89c0.1-0.28,0.24-0.52,0.42-0.72c0.18-0.2,0.41-0.36,0.67-0.48
				c0.26-0.12,0.56-0.17,0.89-0.17c0.27,0,0.53,0.05,0.76,0.14c0.23,0.09,0.43,0.22,0.6,0.4c0.17,0.17,0.3,0.39,0.4,0.64
				c0.1,0.25,0.14,0.54,0.14,0.87c0,0.13-0.01,0.21-0.04,0.25s-0.08,0.06-0.15,0.06h-3.05c0.01,0.29,0.05,0.54,0.12,0.75
				s0.17,0.39,0.29,0.53s0.28,0.25,0.45,0.32c0.17,0.07,0.37,0.11,0.58,0.11c0.2,0,0.38-0.02,0.52-0.07s0.27-0.1,0.38-0.15
				c0.11-0.05,0.19-0.1,0.26-0.15c0.07-0.05,0.13-0.07,0.18-0.07c0.07,0,0.12,0.03,0.15,0.08L167.57,39.5z M166.92,37.36
				c0-0.19-0.03-0.36-0.08-0.51c-0.05-0.15-0.13-0.29-0.23-0.4c-0.1-0.11-0.22-0.2-0.37-0.26s-0.31-0.09-0.49-0.09
				c-0.38,0-0.69,0.11-0.91,0.34c-0.22,0.22-0.36,0.53-0.42,0.93H166.92z"/>
			<path d="M169.71,36.24c0.1-0.11,0.2-0.21,0.31-0.3c0.11-0.09,0.23-0.17,0.35-0.23c0.12-0.06,0.26-0.11,0.4-0.15
				c0.14-0.03,0.29-0.05,0.45-0.05c0.25,0,0.47,0.04,0.66,0.12c0.19,0.08,0.35,0.2,0.48,0.35s0.22,0.33,0.29,0.55
				c0.07,0.21,0.1,0.45,0.1,0.71v2.9h-0.81v-2.9c0-0.35-0.08-0.61-0.24-0.8s-0.4-0.29-0.72-0.29c-0.24,0-0.46,0.06-0.66,0.17
				c-0.21,0.11-0.4,0.27-0.57,0.46v3.36h-0.81v-4.56h0.48c0.11,0,0.18,0.06,0.21,0.17L169.71,36.24z"/>
			<path d="M178.47,40.14h-0.8v-3.89h-2.35v2.74c0,0.19,0.05,0.33,0.14,0.43c0.09,0.09,0.21,0.14,0.36,0.14
				c0.08,0,0.16-0.01,0.22-0.03s0.11-0.05,0.16-0.07c0.05-0.03,0.08-0.05,0.12-0.07s0.06-0.03,0.08-0.03c0.04,0,0.08,0.03,0.11,0.08
				l0.23,0.38c-0.14,0.13-0.3,0.23-0.5,0.3c-0.2,0.07-0.4,0.11-0.6,0.11c-0.36,0-0.64-0.1-0.83-0.3s-0.29-0.49-0.29-0.87v-2.79
				h-0.55c-0.05,0-0.09-0.01-0.12-0.04s-0.05-0.07-0.05-0.13v-0.32l0.75-0.1l0.18-1.4c0.01-0.04,0.03-0.08,0.06-0.11
				c0.03-0.03,0.07-0.04,0.12-0.04h0.41v1.57h3.15V40.14z M178.67,34.12c0,0.08-0.02,0.15-0.05,0.22s-0.07,0.13-0.13,0.18
				c-0.05,0.05-0.11,0.09-0.18,0.12c-0.07,0.03-0.14,0.04-0.22,0.04c-0.08,0-0.15-0.02-0.22-0.04c-0.07-0.03-0.13-0.07-0.18-0.12
				c-0.05-0.05-0.09-0.11-0.12-0.18c-0.03-0.07-0.05-0.14-0.05-0.22s0.02-0.15,0.05-0.22c0.03-0.07,0.07-0.13,0.12-0.18
				c0.05-0.05,0.11-0.09,0.18-0.12c0.07-0.03,0.14-0.05,0.22-0.05c0.08,0,0.15,0.02,0.22,0.05c0.07,0.03,0.13,0.07,0.18,0.12
				c0.05,0.05,0.09,0.11,0.13,0.18S178.67,34.04,178.67,34.12z"/>
			<path d="M180.41,40.14v-3.87l-0.5-0.06c-0.07-0.01-0.12-0.04-0.16-0.07c-0.04-0.03-0.06-0.08-0.06-0.14v-0.33h0.72v-0.25
				c0-0.28,0.04-0.53,0.13-0.77c0.09-0.23,0.22-0.43,0.39-0.6s0.39-0.3,0.65-0.39s0.56-0.14,0.9-0.14c0.11,0,0.23,0.01,0.35,0.02
				c0.12,0.02,0.22,0.04,0.31,0.07l-0.03,0.42c0,0.03-0.01,0.05-0.03,0.06c-0.02,0.01-0.05,0.02-0.08,0.02s-0.07,0-0.12,0
				c-0.05,0-0.11,0-0.17,0c-0.53,0-0.92,0.11-1.16,0.33c-0.24,0.22-0.36,0.55-0.36,1v0.23h2.75v4.47h-0.81v-3.89h-1.93v3.89H180.41z
				"/>
			<path d="M188.76,36.39c-0.02,0.03-0.05,0.06-0.07,0.08c-0.02,0.02-0.06,0.03-0.1,0.03c-0.05,0-0.09-0.02-0.15-0.06
				c-0.05-0.04-0.12-0.08-0.2-0.12c-0.08-0.04-0.18-0.09-0.29-0.12s-0.26-0.06-0.43-0.06c-0.22,0-0.42,0.04-0.59,0.12
				s-0.31,0.19-0.43,0.34s-0.2,0.33-0.26,0.54s-0.09,0.45-0.09,0.72c0,0.28,0.03,0.52,0.09,0.74c0.06,0.21,0.15,0.39,0.27,0.54
				s0.25,0.26,0.42,0.33c0.16,0.08,0.35,0.11,0.55,0.11c0.2,0,0.36-0.02,0.48-0.07c0.13-0.05,0.23-0.1,0.31-0.16
				c0.08-0.06,0.15-0.11,0.21-0.16c0.06-0.05,0.11-0.07,0.16-0.07c0.07,0,0.12,0.03,0.15,0.08l0.22,0.29
				c-0.1,0.12-0.21,0.23-0.34,0.31c-0.13,0.09-0.26,0.16-0.41,0.22c-0.15,0.06-0.3,0.1-0.46,0.13s-0.32,0.04-0.49,0.04
				c-0.28,0-0.55-0.05-0.79-0.16c-0.24-0.1-0.46-0.26-0.64-0.46c-0.18-0.2-0.32-0.44-0.42-0.74s-0.15-0.62-0.15-0.99
				c0-0.34,0.05-0.65,0.14-0.94c0.09-0.29,0.23-0.54,0.41-0.74c0.18-0.21,0.41-0.37,0.67-0.49c0.27-0.12,0.57-0.18,0.92-0.18
				c0.32,0,0.6,0.05,0.85,0.16c0.25,0.1,0.46,0.25,0.65,0.44L188.76,36.39z"/>
			<path d="M190.21,36.22c0.25-0.24,0.52-0.42,0.81-0.54s0.61-0.18,0.97-0.18c0.26,0,0.48,0.04,0.68,0.13s0.36,0.2,0.5,0.35
				c0.13,0.15,0.24,0.33,0.31,0.54c0.07,0.21,0.1,0.45,0.1,0.7v2.92h-0.36c-0.08,0-0.14-0.01-0.18-0.04s-0.08-0.08-0.1-0.15
				l-0.09-0.43c-0.12,0.11-0.24,0.21-0.35,0.29c-0.11,0.09-0.23,0.16-0.36,0.22s-0.26,0.1-0.4,0.14c-0.14,0.03-0.3,0.05-0.47,0.05
				c-0.18,0-0.34-0.02-0.5-0.07c-0.16-0.05-0.29-0.12-0.41-0.22s-0.21-0.22-0.27-0.38c-0.07-0.15-0.1-0.33-0.1-0.54
				c0-0.18,0.05-0.35,0.15-0.52c0.1-0.17,0.26-0.31,0.48-0.44c0.22-0.13,0.51-0.23,0.87-0.32c0.36-0.08,0.79-0.13,1.31-0.14v-0.36
				c0-0.35-0.08-0.62-0.23-0.8c-0.15-0.18-0.38-0.27-0.67-0.27c-0.2,0-0.36,0.02-0.5,0.07c-0.13,0.05-0.25,0.11-0.35,0.17
				c-0.1,0.06-0.18,0.12-0.25,0.17c-0.07,0.05-0.14,0.07-0.21,0.07c-0.05,0-0.1-0.01-0.14-0.04c-0.04-0.03-0.07-0.06-0.1-0.11
				L190.21,36.22z M192.79,38.08c-0.37,0.01-0.68,0.04-0.94,0.09c-0.26,0.05-0.47,0.11-0.63,0.18c-0.16,0.08-0.28,0.16-0.36,0.27
				s-0.11,0.22-0.11,0.34c0,0.12,0.02,0.22,0.06,0.31c0.04,0.09,0.09,0.16,0.16,0.21c0.07,0.06,0.15,0.1,0.24,0.12
				s0.19,0.04,0.29,0.04c0.14,0,0.27-0.01,0.39-0.04s0.23-0.07,0.33-0.12c0.1-0.05,0.2-0.12,0.3-0.19c0.09-0.07,0.19-0.16,0.28-0.26
				V38.08z"/>
			<path d="M199.29,40.14h-0.8v-3.89h-2.35v2.74c0,0.19,0.05,0.33,0.14,0.43c0.09,0.09,0.21,0.14,0.36,0.14
				c0.08,0,0.16-0.01,0.22-0.03s0.11-0.05,0.16-0.07c0.05-0.03,0.08-0.05,0.12-0.07s0.06-0.03,0.08-0.03c0.04,0,0.08,0.03,0.11,0.08
				l0.23,0.38c-0.14,0.13-0.3,0.23-0.5,0.3c-0.2,0.07-0.4,0.11-0.6,0.11c-0.36,0-0.64-0.1-0.83-0.3s-0.29-0.49-0.29-0.87v-2.79
				h-0.55c-0.05,0-0.09-0.01-0.12-0.04s-0.05-0.07-0.05-0.13v-0.32l0.75-0.1l0.18-1.4c0.01-0.04,0.03-0.08,0.06-0.11
				c0.03-0.03,0.07-0.04,0.12-0.04h0.41v1.57h3.15V40.14z M199.49,34.12c0,0.08-0.02,0.15-0.05,0.22s-0.07,0.13-0.13,0.18
				c-0.05,0.05-0.11,0.09-0.18,0.12c-0.07,0.03-0.14,0.04-0.22,0.04c-0.08,0-0.15-0.02-0.22-0.04c-0.07-0.03-0.13-0.07-0.18-0.12
				c-0.05-0.05-0.09-0.11-0.12-0.18c-0.03-0.07-0.05-0.14-0.05-0.22s0.02-0.15,0.05-0.22c0.03-0.07,0.07-0.13,0.12-0.18
				c0.05-0.05,0.11-0.09,0.18-0.12c0.07-0.03,0.14-0.05,0.22-0.05c0.08,0,0.15,0.02,0.22,0.05c0.07,0.03,0.13,0.07,0.18,0.12
				c0.05,0.05,0.09,0.11,0.13,0.18S199.49,34.04,199.49,34.12z"/>
			<path d="M202.84,35.51c0.33,0,0.63,0.06,0.9,0.17c0.27,0.11,0.5,0.27,0.68,0.47c0.19,0.2,0.33,0.45,0.43,0.74
				c0.1,0.29,0.15,0.61,0.15,0.97c0,0.36-0.05,0.68-0.15,0.97s-0.25,0.53-0.43,0.74c-0.19,0.2-0.42,0.36-0.68,0.47
				c-0.27,0.11-0.57,0.16-0.9,0.16c-0.34,0-0.64-0.05-0.91-0.16c-0.27-0.11-0.5-0.27-0.69-0.47c-0.19-0.2-0.33-0.45-0.43-0.74
				s-0.15-0.61-0.15-0.97c0-0.36,0.05-0.68,0.15-0.97c0.1-0.29,0.25-0.54,0.43-0.74c0.19-0.2,0.42-0.36,0.69-0.47
				C202.2,35.56,202.5,35.51,202.84,35.51z M202.84,39.57c0.45,0,0.79-0.15,1.01-0.45c0.22-0.3,0.33-0.72,0.33-1.26
				c0-0.54-0.11-0.97-0.33-1.27c-0.22-0.3-0.56-0.45-1.01-0.45c-0.23,0-0.43,0.04-0.6,0.12c-0.17,0.08-0.31,0.19-0.42,0.34
				c-0.11,0.15-0.2,0.33-0.25,0.54c-0.06,0.21-0.08,0.46-0.08,0.73c0,0.54,0.11,0.96,0.33,1.26
				C202.04,39.42,202.38,39.57,202.84,39.57z"/>
			<path d="M207.09,36.24c0.1-0.11,0.2-0.21,0.31-0.3c0.11-0.09,0.23-0.17,0.35-0.23c0.12-0.06,0.26-0.11,0.4-0.15
				c0.14-0.03,0.29-0.05,0.45-0.05c0.25,0,0.47,0.04,0.66,0.12c0.19,0.08,0.35,0.2,0.48,0.35s0.22,0.33,0.29,0.55
				c0.07,0.21,0.1,0.45,0.1,0.71v2.9h-0.81v-2.9c0-0.35-0.08-0.61-0.24-0.8s-0.4-0.29-0.72-0.29c-0.24,0-0.46,0.06-0.66,0.17
				c-0.21,0.11-0.4,0.27-0.57,0.46v3.36h-0.81v-4.56h0.48c0.11,0,0.18,0.06,0.21,0.17L207.09,36.24z"/>
			<path d="M161.78,53.11c0,0.48-0.08,0.93-0.23,1.33c-0.15,0.4-0.37,0.75-0.65,1.04c-0.28,0.29-0.61,0.52-1,0.68
				c-0.39,0.16-0.82,0.24-1.3,0.24c-0.47,0-0.91-0.08-1.3-0.24c-0.39-0.16-0.72-0.39-1-0.68c-0.28-0.29-0.49-0.64-0.65-1.04
				c-0.15-0.4-0.23-0.85-0.23-1.33c0-0.48,0.08-0.93,0.23-1.33s0.37-0.75,0.65-1.04c0.28-0.29,0.61-0.52,1-0.68
				c0.39-0.16,0.82-0.24,1.3-0.24c0.47,0,0.91,0.08,1.3,0.24c0.39,0.16,0.73,0.39,1,0.68c0.28,0.29,0.5,0.64,0.65,1.04
				S161.78,52.63,161.78,53.11z M160.89,53.11c0-0.4-0.05-0.75-0.16-1.07c-0.11-0.31-0.26-0.58-0.46-0.8
				c-0.2-0.22-0.44-0.38-0.72-0.5c-0.28-0.12-0.6-0.18-0.95-0.18c-0.34,0-0.66,0.06-0.94,0.18c-0.28,0.12-0.52,0.28-0.72,0.5
				c-0.2,0.22-0.35,0.48-0.46,0.8c-0.11,0.31-0.16,0.67-0.16,1.07s0.05,0.75,0.16,1.06c0.11,0.31,0.26,0.58,0.46,0.8
				c0.2,0.22,0.44,0.38,0.72,0.5c0.28,0.12,0.6,0.17,0.94,0.17c0.35,0,0.66-0.06,0.95-0.17c0.28-0.12,0.52-0.28,0.72-0.5
				c0.2-0.22,0.35-0.48,0.46-0.8C160.83,53.87,160.89,53.51,160.89,53.11z"/>
			<path d="M164.65,56.41c-0.36,0-0.64-0.1-0.83-0.3c-0.19-0.2-0.29-0.49-0.29-0.87v-2.79h-0.55c-0.05,0-0.09-0.01-0.12-0.04
				c-0.03-0.03-0.05-0.07-0.05-0.13v-0.32l0.75-0.09l0.18-1.41c0.01-0.04,0.03-0.08,0.06-0.11c0.03-0.03,0.07-0.04,0.12-0.04h0.4
				v1.57h1.32v0.58h-1.32v2.74c0,0.19,0.05,0.33,0.14,0.43c0.09,0.09,0.21,0.14,0.36,0.14c0.08,0,0.16-0.01,0.22-0.03
				s0.12-0.05,0.16-0.07c0.04-0.03,0.08-0.05,0.11-0.07c0.03-0.02,0.06-0.03,0.08-0.03c0.04,0,0.08,0.03,0.11,0.08l0.23,0.38
				c-0.14,0.13-0.3,0.23-0.5,0.3C165.05,56.37,164.85,56.41,164.65,56.41z"/>
			<path d="M167.63,52.39c0.2-0.21,0.41-0.37,0.65-0.49s0.51-0.18,0.82-0.18c0.25,0,0.47,0.04,0.66,0.12
				c0.19,0.08,0.35,0.2,0.48,0.35s0.22,0.33,0.29,0.55c0.07,0.21,0.1,0.45,0.1,0.71v2.9h-0.81v-2.9c0-0.35-0.08-0.61-0.24-0.8
				s-0.4-0.29-0.72-0.29c-0.24,0-0.46,0.06-0.66,0.17c-0.21,0.11-0.4,0.27-0.57,0.46v3.36h-0.81v-6.63h0.81V52.39z"/>
			<path d="M175.88,55.7c-0.1,0.12-0.22,0.22-0.36,0.31s-0.29,0.16-0.44,0.22c-0.16,0.06-0.32,0.1-0.49,0.13
				c-0.17,0.03-0.33,0.04-0.5,0.04c-0.32,0-0.61-0.05-0.87-0.16s-0.5-0.26-0.69-0.47c-0.19-0.21-0.34-0.46-0.45-0.76
				c-0.11-0.3-0.16-0.65-0.16-1.04c0-0.32,0.05-0.61,0.15-0.89c0.1-0.28,0.24-0.52,0.42-0.72c0.18-0.2,0.41-0.36,0.67-0.48
				c0.26-0.12,0.56-0.17,0.89-0.17c0.27,0,0.53,0.05,0.76,0.14c0.23,0.09,0.43,0.22,0.6,0.4c0.17,0.17,0.3,0.39,0.4,0.64
				c0.1,0.25,0.14,0.54,0.14,0.87c0,0.13-0.01,0.21-0.04,0.25c-0.03,0.04-0.08,0.06-0.15,0.06h-3.05c0.01,0.29,0.05,0.54,0.12,0.75
				s0.17,0.39,0.29,0.53s0.28,0.25,0.45,0.32c0.17,0.07,0.37,0.11,0.58,0.11c0.2,0,0.37-0.02,0.52-0.07s0.27-0.1,0.38-0.15
				c0.1-0.05,0.19-0.1,0.26-0.15c0.07-0.05,0.13-0.07,0.18-0.07c0.07,0,0.12,0.03,0.15,0.08L175.88,55.7z M175.23,53.56
				c0-0.19-0.03-0.36-0.08-0.51c-0.05-0.15-0.13-0.29-0.23-0.4c-0.1-0.11-0.22-0.2-0.37-0.26c-0.14-0.06-0.31-0.09-0.49-0.09
				c-0.38,0-0.69,0.11-0.91,0.34c-0.22,0.22-0.36,0.53-0.42,0.93H175.23z"/>
			<path d="M178.02,52.69c0.14-0.31,0.32-0.56,0.53-0.73c0.21-0.18,0.47-0.26,0.77-0.26c0.1,0,0.19,0.01,0.28,0.03
				c0.09,0.02,0.17,0.05,0.24,0.1l-0.06,0.6c-0.02,0.08-0.06,0.11-0.13,0.11c-0.04,0-0.1-0.01-0.18-0.03
				c-0.08-0.02-0.17-0.03-0.27-0.03c-0.14,0-0.27,0.02-0.38,0.06c-0.11,0.04-0.21,0.1-0.3,0.19c-0.09,0.08-0.17,0.18-0.24,0.31
				c-0.07,0.12-0.13,0.26-0.19,0.42v2.88h-0.81v-4.56h0.46c0.09,0,0.15,0.02,0.18,0.05c0.03,0.03,0.06,0.09,0.07,0.17L178.02,52.69z
				"/>
		</g>
		<circle class="st11" cx="254" cy="37" r="4"/>
		<circle class="st10" cx="254" cy="53.23" r="4"/>
		<g>
			<path d="M295.35,38.8c0.05,0,0.09,0.02,0.13,0.06l0.35,0.37c-0.26,0.31-0.58,0.54-0.96,0.72c-0.38,0.17-0.83,0.26-1.37,0.26
				c-0.46,0-0.88-0.08-1.26-0.24c-0.38-0.16-0.7-0.39-0.97-0.67c-0.27-0.29-0.47-0.64-0.62-1.04c-0.15-0.4-0.22-0.85-0.22-1.34
				c0-0.49,0.08-0.93,0.23-1.34c0.15-0.4,0.37-0.75,0.65-1.04s0.61-0.52,1-0.68c0.39-0.16,0.81-0.24,1.28-0.24
				c0.46,0,0.86,0.07,1.21,0.22c0.35,0.15,0.66,0.35,0.93,0.6l-0.29,0.4c-0.02,0.03-0.04,0.05-0.07,0.07s-0.07,0.03-0.12,0.03
				c-0.05,0-0.12-0.03-0.2-0.09c-0.08-0.06-0.18-0.12-0.31-0.2c-0.13-0.07-0.28-0.14-0.47-0.2c-0.19-0.06-0.42-0.09-0.7-0.09
				c-0.33,0-0.64,0.06-0.91,0.17c-0.28,0.12-0.51,0.28-0.71,0.5c-0.2,0.22-0.35,0.49-0.47,0.8c-0.11,0.31-0.17,0.67-0.17,1.07
				c0,0.4,0.06,0.76,0.17,1.08c0.12,0.31,0.27,0.58,0.47,0.8c0.2,0.22,0.44,0.38,0.71,0.5c0.27,0.11,0.56,0.17,0.88,0.17
				c0.19,0,0.37-0.01,0.52-0.03c0.15-0.02,0.3-0.06,0.43-0.11c0.13-0.05,0.25-0.11,0.37-0.18c0.11-0.07,0.22-0.16,0.33-0.26
				C295.25,38.83,295.3,38.8,295.35,38.8z"/>
			<path d="M300.72,35.58v4.56h-0.48c-0.11,0-0.19-0.06-0.22-0.17l-0.06-0.49c-0.2,0.22-0.42,0.4-0.67,0.53
				c-0.25,0.13-0.53,0.2-0.85,0.2c-0.25,0-0.47-0.04-0.66-0.12s-0.35-0.2-0.48-0.35s-0.23-0.33-0.29-0.54
				c-0.06-0.21-0.1-0.45-0.1-0.71v-2.91h0.8v2.91c0,0.34,0.08,0.61,0.24,0.8s0.4,0.28,0.72,0.28c0.24,0,0.46-0.06,0.66-0.17
				c0.21-0.11,0.4-0.27,0.57-0.47v-3.36H300.72z"/>
			<path d="M303.06,36.49c0.14-0.31,0.32-0.56,0.53-0.73c0.21-0.18,0.47-0.26,0.77-0.26c0.1,0,0.19,0.01,0.28,0.03
				c0.09,0.02,0.17,0.05,0.24,0.1l-0.06,0.6c-0.02,0.08-0.06,0.11-0.13,0.11c-0.04,0-0.1-0.01-0.18-0.03
				c-0.08-0.02-0.17-0.03-0.27-0.03c-0.14,0-0.27,0.02-0.38,0.06c-0.11,0.04-0.21,0.1-0.3,0.19c-0.09,0.08-0.17,0.18-0.24,0.31
				c-0.07,0.12-0.13,0.26-0.19,0.42v2.88h-0.81v-4.56h0.46c0.09,0,0.15,0.02,0.18,0.05c0.03,0.03,0.06,0.09,0.07,0.17L303.06,36.49z
				"/>
			<path d="M306.7,36.49c0.14-0.31,0.32-0.56,0.53-0.73c0.21-0.18,0.47-0.26,0.77-0.26c0.1,0,0.19,0.01,0.28,0.03
				c0.09,0.02,0.17,0.05,0.24,0.1l-0.06,0.6c-0.02,0.08-0.06,0.11-0.13,0.11c-0.04,0-0.1-0.01-0.18-0.03
				c-0.08-0.02-0.17-0.03-0.27-0.03c-0.14,0-0.27,0.02-0.38,0.06s-0.21,0.1-0.3,0.19c-0.09,0.08-0.17,0.18-0.24,0.31
				s-0.13,0.26-0.19,0.42v2.88h-0.81v-4.56h0.46c0.09,0,0.15,0.02,0.18,0.05c0.03,0.03,0.06,0.09,0.07,0.17L306.7,36.49z"/>
			<path d="M313.2,39.5c-0.1,0.12-0.22,0.22-0.36,0.31c-0.14,0.09-0.29,0.16-0.44,0.22s-0.32,0.1-0.49,0.13
				c-0.17,0.03-0.33,0.04-0.5,0.04c-0.31,0-0.6-0.05-0.87-0.16s-0.5-0.26-0.69-0.47c-0.19-0.21-0.34-0.46-0.45-0.76
				c-0.11-0.3-0.16-0.65-0.16-1.04c0-0.32,0.05-0.61,0.15-0.89c0.1-0.28,0.24-0.52,0.42-0.72c0.18-0.2,0.41-0.36,0.67-0.48
				c0.26-0.12,0.56-0.17,0.89-0.17c0.27,0,0.53,0.05,0.76,0.14c0.23,0.09,0.43,0.22,0.6,0.4c0.17,0.17,0.3,0.39,0.4,0.64
				c0.1,0.25,0.14,0.54,0.14,0.87c0,0.13-0.01,0.21-0.04,0.25s-0.08,0.06-0.15,0.06h-3.05c0.01,0.29,0.05,0.54,0.12,0.75
				s0.17,0.39,0.29,0.53s0.28,0.25,0.45,0.32c0.17,0.07,0.37,0.11,0.58,0.11c0.2,0,0.38-0.02,0.52-0.07s0.27-0.1,0.38-0.15
				c0.11-0.05,0.19-0.1,0.26-0.15c0.07-0.05,0.13-0.07,0.18-0.07c0.07,0,0.12,0.03,0.15,0.08L313.2,39.5z M312.55,37.36
				c0-0.19-0.03-0.36-0.08-0.51c-0.05-0.15-0.13-0.29-0.23-0.4c-0.1-0.11-0.22-0.2-0.37-0.26s-0.31-0.09-0.49-0.09
				c-0.38,0-0.69,0.11-0.91,0.34c-0.22,0.22-0.36,0.53-0.42,0.93H312.55z"/>
			<path d="M315.34,36.24c0.1-0.11,0.2-0.21,0.32-0.3c0.11-0.09,0.23-0.17,0.35-0.23c0.12-0.06,0.26-0.11,0.4-0.15
				c0.14-0.03,0.29-0.05,0.45-0.05c0.25,0,0.47,0.04,0.66,0.12s0.35,0.2,0.48,0.35c0.13,0.15,0.22,0.33,0.29,0.55
				c0.07,0.21,0.1,0.45,0.1,0.71v2.9h-0.81v-2.9c0-0.35-0.08-0.61-0.24-0.8c-0.16-0.19-0.4-0.29-0.72-0.29
				c-0.24,0-0.46,0.06-0.66,0.17c-0.21,0.11-0.4,0.27-0.57,0.46v3.36h-0.81v-4.56h0.48c0.11,0,0.18,0.06,0.21,0.17L315.34,36.24z"/>
			<path d="M321.25,40.21c-0.36,0-0.64-0.1-0.83-0.3s-0.29-0.49-0.29-0.87v-2.79h-0.55c-0.05,0-0.09-0.01-0.12-0.04
				s-0.05-0.07-0.05-0.13v-0.32l0.75-0.09l0.18-1.41c0.01-0.04,0.03-0.08,0.06-0.11c0.03-0.03,0.07-0.04,0.12-0.04h0.41v1.57h1.32
				v0.58h-1.32v2.74c0,0.19,0.05,0.33,0.14,0.43c0.09,0.09,0.21,0.14,0.36,0.14c0.08,0,0.16-0.01,0.22-0.03s0.11-0.05,0.16-0.07
				c0.05-0.03,0.08-0.05,0.12-0.07s0.06-0.03,0.08-0.03c0.04,0,0.08,0.03,0.11,0.08l0.23,0.38c-0.14,0.13-0.3,0.23-0.5,0.3
				C321.65,40.17,321.45,40.21,321.25,40.21z"/>
			<path d="M328.07,33.69c0.4,0,0.74,0.04,1.02,0.12c0.29,0.08,0.52,0.19,0.71,0.33s0.32,0.32,0.41,0.53s0.13,0.44,0.13,0.7
				c0,0.16-0.03,0.31-0.07,0.46c-0.05,0.15-0.12,0.28-0.22,0.41c-0.1,0.13-0.22,0.24-0.38,0.34c-0.15,0.1-0.33,0.18-0.53,0.25
				c0.47,0.09,0.83,0.26,1.07,0.51c0.24,0.25,0.36,0.57,0.36,0.97c0,0.27-0.05,0.52-0.15,0.75s-0.25,0.42-0.44,0.58
				c-0.19,0.16-0.43,0.29-0.71,0.38s-0.6,0.13-0.96,0.13h-2.28v-6.45H328.07z M326.88,34.38v2.2h1.15c0.25,0,0.46-0.03,0.64-0.08
				c0.18-0.05,0.33-0.13,0.45-0.23c0.12-0.1,0.21-0.21,0.26-0.35c0.06-0.14,0.08-0.29,0.08-0.45c0-0.38-0.11-0.66-0.34-0.83
				c-0.23-0.18-0.58-0.26-1.06-0.26H326.88z M328.28,39.44c0.25,0,0.46-0.03,0.64-0.09c0.18-0.06,0.33-0.14,0.44-0.24
				s0.2-0.23,0.25-0.37c0.05-0.14,0.08-0.3,0.08-0.47c0-0.33-0.12-0.6-0.36-0.79c-0.24-0.19-0.59-0.29-1.07-0.29h-1.39v2.25H328.28z
				"/>
			<path d="M332.98,34.15c0,0.08-0.02,0.15-0.05,0.22c-0.03,0.07-0.07,0.13-0.13,0.18c-0.05,0.05-0.11,0.09-0.18,0.12
				c-0.07,0.03-0.15,0.04-0.22,0.04c-0.08,0-0.15-0.02-0.22-0.04c-0.07-0.03-0.13-0.07-0.18-0.12c-0.05-0.05-0.09-0.11-0.12-0.18
				c-0.03-0.07-0.05-0.14-0.05-0.22c0-0.08,0.02-0.15,0.05-0.22c0.03-0.07,0.07-0.13,0.12-0.18c0.05-0.05,0.11-0.09,0.18-0.12
				c0.07-0.03,0.14-0.04,0.22-0.04c0.08,0,0.15,0.02,0.22,0.04c0.07,0.03,0.13,0.07,0.18,0.12c0.05,0.05,0.09,0.11,0.13,0.18
				C332.96,34,332.98,34.07,332.98,34.15z M332.81,35.58v4.56h-0.8v-4.56H332.81z"/>
			<path d="M335.22,33.51v6.63h-0.8v-6.63H335.22z"/>
			<path d="M337.62,33.51v6.63h-0.8v-6.63H337.62z"/>
			<path d="M292.73,49.89c0.41,0,0.76,0.05,1.06,0.14c0.3,0.09,0.55,0.23,0.75,0.4c0.2,0.17,0.35,0.38,0.44,0.63
				s0.15,0.52,0.15,0.82c0,0.3-0.05,0.57-0.16,0.82c-0.11,0.25-0.26,0.46-0.46,0.64c-0.2,0.18-0.45,0.32-0.75,0.42
				c-0.3,0.1-0.64,0.15-1.03,0.15h-1.04v2.41h-0.87v-6.45H292.73z M292.73,53.23c0.25,0,0.47-0.03,0.66-0.1s0.35-0.16,0.48-0.28
				c0.13-0.12,0.23-0.26,0.29-0.42c0.07-0.17,0.1-0.35,0.1-0.54c0-0.41-0.13-0.73-0.38-0.96c-0.25-0.23-0.64-0.35-1.15-0.35h-1.04
				v2.65H292.73z"/>
			<path d="M296.26,52.42c0.25-0.24,0.52-0.42,0.81-0.54s0.61-0.18,0.97-0.18c0.26,0,0.48,0.04,0.68,0.13s0.36,0.2,0.5,0.35
				c0.13,0.15,0.24,0.33,0.31,0.54c0.07,0.21,0.1,0.45,0.1,0.7v2.92h-0.36c-0.08,0-0.14-0.01-0.18-0.04s-0.08-0.08-0.1-0.15
				l-0.09-0.43c-0.12,0.11-0.24,0.21-0.35,0.29c-0.11,0.09-0.23,0.16-0.36,0.22s-0.26,0.1-0.4,0.14c-0.14,0.03-0.3,0.05-0.47,0.05
				c-0.18,0-0.34-0.02-0.5-0.07c-0.16-0.05-0.29-0.12-0.41-0.22s-0.21-0.22-0.27-0.38c-0.07-0.15-0.1-0.33-0.1-0.54
				c0-0.18,0.05-0.35,0.15-0.52c0.1-0.17,0.26-0.31,0.48-0.44c0.22-0.13,0.51-0.23,0.87-0.32c0.36-0.08,0.79-0.13,1.31-0.14v-0.36
				c0-0.35-0.08-0.62-0.23-0.8c-0.15-0.18-0.38-0.27-0.67-0.27c-0.2,0-0.36,0.02-0.5,0.07c-0.13,0.05-0.25,0.11-0.35,0.17
				c-0.1,0.06-0.18,0.12-0.25,0.17c-0.07,0.05-0.14,0.07-0.21,0.07c-0.05,0-0.1-0.01-0.14-0.04c-0.04-0.03-0.07-0.06-0.1-0.11
				L296.26,52.42z M298.84,54.29c-0.37,0.01-0.68,0.04-0.94,0.09c-0.26,0.05-0.47,0.11-0.63,0.18c-0.16,0.08-0.28,0.16-0.36,0.27
				s-0.11,0.22-0.11,0.34c0,0.12,0.02,0.22,0.06,0.31c0.04,0.09,0.09,0.16,0.16,0.21c0.07,0.06,0.15,0.1,0.24,0.12
				s0.19,0.04,0.29,0.04c0.14,0,0.27-0.01,0.39-0.04s0.23-0.07,0.33-0.12c0.1-0.05,0.2-0.12,0.3-0.19c0.09-0.07,0.19-0.16,0.28-0.26
				V54.29z"/>
			<path d="M303.78,52.53c-0.04,0.07-0.09,0.1-0.17,0.1c-0.04,0-0.1-0.02-0.15-0.05c-0.06-0.03-0.13-0.07-0.21-0.11
				c-0.08-0.04-0.18-0.08-0.29-0.11c-0.11-0.03-0.25-0.05-0.4-0.05c-0.14,0-0.26,0.02-0.37,0.05c-0.11,0.03-0.2,0.08-0.28,0.14
				s-0.13,0.13-0.18,0.21c-0.04,0.08-0.06,0.17-0.06,0.26c0,0.12,0.03,0.21,0.1,0.29c0.07,0.08,0.16,0.15,0.27,0.2
				s0.24,0.11,0.38,0.15s0.29,0.09,0.43,0.14c0.15,0.05,0.29,0.1,0.43,0.16c0.14,0.06,0.27,0.13,0.38,0.23
				c0.11,0.09,0.2,0.2,0.27,0.33s0.1,0.29,0.1,0.47c0,0.21-0.04,0.4-0.11,0.58c-0.08,0.18-0.19,0.33-0.33,0.46
				c-0.15,0.13-0.33,0.23-0.54,0.31c-0.21,0.08-0.46,0.11-0.74,0.11c-0.32,0-0.61-0.05-0.86-0.15c-0.26-0.1-0.48-0.24-0.66-0.4
				l0.19-0.31c0.02-0.04,0.05-0.07,0.08-0.09s0.08-0.03,0.13-0.03c0.05,0,0.11,0.02,0.17,0.06c0.06,0.04,0.13,0.09,0.22,0.14
				c0.08,0.05,0.19,0.1,0.31,0.14s0.28,0.06,0.46,0.06c0.16,0,0.29-0.02,0.41-0.06s0.21-0.1,0.29-0.16s0.14-0.15,0.17-0.24
				c0.04-0.09,0.06-0.19,0.06-0.29c0-0.13-0.03-0.23-0.1-0.31s-0.16-0.15-0.27-0.21s-0.24-0.11-0.38-0.15
				c-0.14-0.04-0.29-0.09-0.44-0.14c-0.15-0.05-0.29-0.1-0.44-0.16s-0.27-0.14-0.38-0.23c-0.11-0.09-0.2-0.21-0.27-0.34
				c-0.07-0.14-0.1-0.3-0.1-0.5c0-0.17,0.04-0.34,0.11-0.5c0.07-0.16,0.18-0.3,0.32-0.42c0.14-0.12,0.31-0.22,0.51-0.29
				c0.2-0.07,0.43-0.11,0.69-0.11c0.3,0,0.57,0.05,0.81,0.14c0.24,0.09,0.45,0.22,0.62,0.39L303.78,52.53z"/>
			<path d="M307.97,52.53c-0.04,0.07-0.09,0.1-0.17,0.1c-0.04,0-0.1-0.02-0.15-0.05c-0.06-0.03-0.13-0.07-0.21-0.11
				c-0.08-0.04-0.18-0.08-0.29-0.11c-0.11-0.03-0.25-0.05-0.4-0.05c-0.14,0-0.26,0.02-0.37,0.05c-0.11,0.03-0.2,0.08-0.28,0.14
				s-0.13,0.13-0.18,0.21c-0.04,0.08-0.06,0.17-0.06,0.26c0,0.12,0.03,0.21,0.1,0.29c0.07,0.08,0.16,0.15,0.27,0.2
				s0.24,0.11,0.38,0.15s0.29,0.09,0.43,0.14c0.15,0.05,0.29,0.1,0.43,0.16c0.14,0.06,0.27,0.13,0.38,0.23
				c0.11,0.09,0.2,0.2,0.27,0.33s0.1,0.29,0.1,0.47c0,0.21-0.04,0.4-0.11,0.58c-0.08,0.18-0.19,0.33-0.33,0.46
				c-0.15,0.13-0.33,0.23-0.54,0.31c-0.21,0.08-0.46,0.11-0.74,0.11c-0.32,0-0.61-0.05-0.86-0.15c-0.26-0.1-0.48-0.24-0.66-0.4
				l0.19-0.31c0.02-0.04,0.05-0.07,0.08-0.09s0.08-0.03,0.13-0.03c0.05,0,0.11,0.02,0.17,0.06c0.06,0.04,0.13,0.09,0.22,0.14
				c0.08,0.05,0.19,0.1,0.31,0.14s0.28,0.06,0.46,0.06c0.16,0,0.29-0.02,0.41-0.06s0.21-0.1,0.29-0.16s0.14-0.15,0.17-0.24
				c0.04-0.09,0.06-0.19,0.06-0.29c0-0.13-0.03-0.23-0.1-0.31s-0.16-0.15-0.27-0.21s-0.24-0.11-0.38-0.15
				c-0.14-0.04-0.29-0.09-0.44-0.14c-0.15-0.05-0.29-0.1-0.44-0.16s-0.27-0.14-0.38-0.23c-0.11-0.09-0.2-0.21-0.27-0.34
				c-0.07-0.14-0.1-0.3-0.1-0.5c0-0.17,0.04-0.34,0.11-0.5c0.07-0.16,0.18-0.3,0.32-0.42c0.14-0.12,0.31-0.22,0.51-0.29
				c0.2-0.07,0.43-0.11,0.69-0.11c0.3,0,0.57,0.05,0.81,0.14c0.24,0.09,0.45,0.22,0.62,0.39L307.97,52.53z"/>
			<path d="M313.24,55.7c-0.1,0.12-0.22,0.22-0.36,0.31s-0.29,0.16-0.44,0.22c-0.16,0.06-0.32,0.1-0.49,0.13
				c-0.17,0.03-0.33,0.04-0.5,0.04c-0.32,0-0.61-0.05-0.87-0.16s-0.5-0.26-0.69-0.47c-0.19-0.21-0.34-0.46-0.45-0.76
				c-0.11-0.3-0.16-0.65-0.16-1.04c0-0.32,0.05-0.61,0.15-0.89c0.1-0.28,0.24-0.52,0.42-0.72c0.18-0.2,0.41-0.36,0.67-0.48
				c0.26-0.12,0.56-0.17,0.89-0.17c0.27,0,0.53,0.05,0.76,0.14c0.23,0.09,0.43,0.22,0.6,0.4c0.17,0.17,0.3,0.39,0.4,0.64
				c0.1,0.25,0.14,0.54,0.14,0.87c0,0.13-0.01,0.21-0.04,0.25c-0.03,0.04-0.08,0.06-0.15,0.06h-3.05c0.01,0.29,0.05,0.54,0.12,0.75
				s0.17,0.39,0.29,0.53s0.28,0.25,0.45,0.32c0.17,0.07,0.37,0.11,0.58,0.11c0.2,0,0.37-0.02,0.52-0.07s0.27-0.1,0.38-0.15
				c0.1-0.05,0.19-0.1,0.26-0.15c0.07-0.05,0.13-0.07,0.18-0.07c0.07,0,0.12,0.03,0.15,0.08L313.24,55.7z M312.59,53.56
				c0-0.19-0.03-0.36-0.08-0.51c-0.05-0.15-0.13-0.29-0.23-0.4c-0.1-0.11-0.22-0.2-0.37-0.26c-0.14-0.06-0.31-0.09-0.49-0.09
				c-0.38,0-0.69,0.11-0.91,0.34c-0.22,0.22-0.36,0.53-0.42,0.93H312.59z"/>
			<path d="M318.41,49.71v6.63h-0.48c-0.11,0-0.19-0.06-0.22-0.17l-0.07-0.55c-0.2,0.23-0.42,0.42-0.67,0.57s-0.54,0.22-0.86,0.22
				c-0.26,0-0.5-0.05-0.71-0.15c-0.21-0.1-0.39-0.25-0.54-0.44c-0.15-0.2-0.27-0.44-0.35-0.73s-0.12-0.63-0.12-1
				c0-0.34,0.04-0.65,0.13-0.94s0.22-0.54,0.39-0.75s0.37-0.38,0.62-0.5c0.24-0.12,0.52-0.18,0.83-0.18c0.28,0,0.52,0.05,0.72,0.14
				c0.2,0.09,0.38,0.23,0.53,0.39v-2.52H318.41z M317.61,52.86c-0.15-0.2-0.31-0.34-0.49-0.42c-0.17-0.08-0.37-0.12-0.58-0.12
				c-0.42,0-0.75,0.15-0.98,0.45c-0.23,0.3-0.34,0.74-0.34,1.3c0,0.3,0.03,0.55,0.08,0.76c0.05,0.21,0.13,0.39,0.22,0.52
				c0.1,0.14,0.22,0.24,0.36,0.3c0.14,0.06,0.31,0.09,0.49,0.09c0.26,0,0.49-0.06,0.69-0.18c0.2-0.12,0.38-0.29,0.54-0.51V52.86z"/>
			<path d="M296.41,69.31c0,0.48-0.08,0.92-0.23,1.32s-0.37,0.73-0.65,1.02c-0.28,0.28-0.61,0.5-1.01,0.65
				c-0.39,0.15-0.82,0.23-1.3,0.23h-2.41v-6.45h2.41c0.47,0,0.91,0.08,1.3,0.23c0.39,0.15,0.73,0.37,1.01,0.66
				c0.28,0.28,0.49,0.62,0.65,1.02S296.41,68.83,296.41,69.31z M295.52,69.31c0-0.4-0.05-0.75-0.16-1.06
				c-0.11-0.31-0.26-0.58-0.46-0.79c-0.2-0.22-0.44-0.38-0.72-0.49c-0.28-0.11-0.6-0.17-0.95-0.17h-1.53v5.04h1.53
				c0.35,0,0.66-0.06,0.95-0.17c0.28-0.11,0.52-0.28,0.72-0.49c0.2-0.21,0.35-0.48,0.46-0.79
				C295.46,70.06,295.52,69.71,295.52,69.31z"/>
			<path d="M301.55,71.9c-0.1,0.12-0.22,0.22-0.36,0.31s-0.29,0.16-0.44,0.22c-0.16,0.06-0.32,0.1-0.49,0.13
				c-0.17,0.03-0.33,0.04-0.5,0.04c-0.32,0-0.61-0.05-0.87-0.16s-0.5-0.26-0.69-0.47c-0.19-0.21-0.34-0.46-0.45-0.76
				c-0.11-0.3-0.16-0.65-0.16-1.04c0-0.32,0.05-0.61,0.15-0.89c0.1-0.28,0.24-0.52,0.42-0.72c0.18-0.2,0.41-0.36,0.67-0.48
				c0.26-0.12,0.56-0.17,0.89-0.17c0.27,0,0.53,0.05,0.76,0.14c0.23,0.09,0.43,0.22,0.6,0.4c0.17,0.17,0.3,0.39,0.4,0.64
				c0.1,0.25,0.14,0.54,0.14,0.87c0,0.13-0.01,0.21-0.04,0.25c-0.03,0.04-0.08,0.06-0.15,0.06h-3.05c0.01,0.29,0.05,0.54,0.12,0.75
				s0.17,0.39,0.29,0.53s0.28,0.25,0.45,0.32c0.17,0.07,0.37,0.11,0.58,0.11c0.2,0,0.37-0.02,0.52-0.07s0.27-0.1,0.38-0.15
				c0.1-0.05,0.19-0.1,0.26-0.15c0.07-0.05,0.13-0.07,0.18-0.07c0.07,0,0.12,0.03,0.15,0.08L301.55,71.9z M300.9,69.76
				c0-0.19-0.03-0.36-0.08-0.51c-0.05-0.15-0.13-0.29-0.23-0.4c-0.1-0.11-0.22-0.2-0.37-0.26c-0.14-0.06-0.31-0.09-0.49-0.09
				c-0.38,0-0.69,0.11-0.91,0.34c-0.22,0.22-0.36,0.53-0.42,0.93H300.9z"/>
			<path d="M302.83,68.62c0.25-0.24,0.52-0.42,0.81-0.54s0.61-0.18,0.97-0.18c0.26,0,0.48,0.04,0.68,0.13s0.36,0.2,0.5,0.35
				c0.13,0.15,0.24,0.33,0.31,0.54c0.07,0.21,0.1,0.45,0.1,0.7v2.92h-0.36c-0.08,0-0.14-0.01-0.18-0.04s-0.08-0.08-0.1-0.15
				l-0.09-0.43c-0.12,0.11-0.24,0.21-0.35,0.29c-0.11,0.09-0.23,0.16-0.36,0.22s-0.26,0.1-0.4,0.14c-0.14,0.03-0.3,0.05-0.47,0.05
				c-0.18,0-0.34-0.02-0.5-0.07c-0.16-0.05-0.29-0.12-0.41-0.22s-0.21-0.22-0.27-0.38c-0.07-0.15-0.1-0.33-0.1-0.54
				c0-0.18,0.05-0.35,0.15-0.52c0.1-0.17,0.26-0.31,0.48-0.44c0.22-0.13,0.51-0.23,0.87-0.32c0.36-0.08,0.79-0.13,1.31-0.14v-0.36
				c0-0.35-0.08-0.62-0.23-0.8c-0.15-0.18-0.38-0.27-0.67-0.27c-0.2,0-0.36,0.02-0.5,0.07c-0.13,0.05-0.25,0.11-0.35,0.17
				c-0.1,0.06-0.18,0.12-0.25,0.17c-0.07,0.05-0.14,0.07-0.21,0.07c-0.05,0-0.1-0.01-0.14-0.04c-0.04-0.03-0.07-0.06-0.1-0.11
				L302.83,68.62z M305.42,70.49c-0.37,0.01-0.68,0.04-0.94,0.09c-0.26,0.05-0.47,0.11-0.63,0.18c-0.16,0.08-0.28,0.16-0.36,0.27
				s-0.11,0.22-0.11,0.34c0,0.12,0.02,0.22,0.06,0.31c0.04,0.09,0.09,0.16,0.16,0.21c0.07,0.06,0.15,0.1,0.24,0.12
				s0.19,0.04,0.29,0.04c0.14,0,0.27-0.01,0.39-0.04s0.23-0.07,0.33-0.12c0.1-0.05,0.2-0.12,0.3-0.19c0.09-0.07,0.19-0.16,0.28-0.26
				V70.49z"/>
			<path d="M311.53,65.91v6.63h-0.48c-0.11,0-0.19-0.06-0.22-0.17l-0.07-0.55c-0.2,0.23-0.42,0.42-0.67,0.57s-0.54,0.22-0.86,0.22
				c-0.26,0-0.5-0.05-0.71-0.15c-0.21-0.1-0.39-0.25-0.54-0.44c-0.15-0.2-0.27-0.44-0.35-0.73c-0.08-0.29-0.12-0.63-0.12-1
				c0-0.34,0.04-0.65,0.13-0.94s0.22-0.54,0.39-0.75c0.17-0.21,0.37-0.38,0.62-0.5c0.25-0.12,0.52-0.18,0.83-0.18
				c0.28,0,0.52,0.05,0.72,0.14c0.2,0.09,0.38,0.23,0.53,0.39v-2.52H311.53z M310.73,69.06c-0.15-0.2-0.31-0.34-0.49-0.42
				c-0.17-0.08-0.37-0.12-0.58-0.12c-0.42,0-0.75,0.15-0.98,0.45c-0.23,0.3-0.34,0.74-0.34,1.3c0,0.3,0.03,0.55,0.08,0.76
				c0.05,0.21,0.13,0.39,0.23,0.52c0.1,0.14,0.22,0.24,0.36,0.3c0.14,0.06,0.31,0.09,0.49,0.09c0.26,0,0.49-0.06,0.69-0.18
				c0.2-0.12,0.38-0.29,0.54-0.51V69.06z"/>
		</g>
		<g>
			<g>
				<path class="st31" d="M389,34.25c1.52,0,2.75,1.23,2.75,2.75s-1.23,2.75-2.75,2.75s-2.75-1.23-2.75-2.75S387.48,34.25,389,34.25
					 M389,33c-2.21,0-4,1.79-4,4s1.79,4,4,4s4-1.79,4-4S391.21,33,389,33L389,33z"/>
			</g>
		</g>
		<circle class="st31" cx="389" cy="53.23" r="4"/>
		<circle class="st36" cx="389" cy="69.45" r="4"/>
	</g>
	<g id="horiz_lines">
	</g>
	<g id="vert_lines">
	</g>
	<g id="state_names_1_">
	</g>
	<g id="separate_header">
	</g>
</g>
<g id="bill_names">
</g>
</svg>
